<svg width="440" height="772" viewBox="0 0 440 772" fill="none" xmlns="http://www.w3.org/2000/svg">
<g opacity="0.95" filter="url(#filter0_i_207_25328)">
<g clip-path="url(#clip0_207_25328)">
<g opacity="0.7" filter="url(#filter1_i_207_25328)">
<g clip-path="url(#clip1_207_25328)">
<path d="M0 99.7734C0 44.545 44.7715 -0.226562 100 -0.226562H340C395.228 -0.226562 440 44.545 440 99.7734V3245.4H0V99.7734Z" fill="#C8D7E8"/>
<g clip-path="url(#clip2_207_25328)">
<path d="M0 596.852H523.843V-83.4086H0V596.852Z" fill="#B0C6DE"/>
<mask id="mask0_207_25328" style="mask-type:luminance" maskUnits="userSpaceOnUse" x="0" y="128" width="524" height="469">
<path d="M0 128.538H524V597H0V128.538Z" fill="white"/>
</mask>
<g mask="url(#mask0_207_25328)">
<path fill-rule="evenodd" clip-rule="evenodd" d="M523.843 291.621V438.72H506.012V445.464H457.337V466.916H380.377V496.948H293.482V493.27H250.29V452.206H215.326V447.302H207.951V479.332H141.284V479.174H54.9004V442.399H35.0189V520.239H0V276.912H4.85397V305.719H15.1375V339.429H21.3076V374.365H54.9004V345.559H78.2105V331.461H103.576V313.073H135.799V331.461H145.397V345.559H159.795V386.011H184.475V362.106H215.326V327.171H231.78V316.751H249.605V327.171H262.631V373.139H293.482V353.526H315.421V338.816H324.333V314.913H341.473V338.816H350.385V353.526H358.613V341.267H368.896V353.526H380.377V371.913H420.314V348.009H437.11V334.218H477.216V328.396H500.527V291.621H523.843Z" fill="#7A92A8"/>
<path fill-rule="evenodd" clip-rule="evenodd" d="M523.843 410.222V596.863H0V490.514H7.42157V465.997H23.8752V429.222H45.4701V417.424H62.7813V429.222H67.0668V448.835H93.1183V415.125H101.516V407.157H108.201V384.019H119.342V407.157H123.284V415.125H138.709V441.481H178.129V414.512H200.069V389.384H207.611V378.964H230.92V389.384H247.374V414.512H257.143V397.197H271.712V414.512H277.539V472.739H324.844V446.998H363.237V409.61H374.205V396.738H388.602V409.61H402.999V446.998H416.713V431.674H448.249V410.222H470.186V373.447H502.065V410.222H523.843Z" fill="#5B738B"/>
<path fill-rule="evenodd" clip-rule="evenodd" d="M523.843 490.057V596.863H0V498.638H19.0762V472.284H31.4164V498.638H51.2979V575.867H60.8967V536.64H84.8915V575.867H104.773V545.22H129.454V503.542H138.709V471.977H153.448V503.542H176.073V485.156H186.699V479.333H207.951V485.156H224.406V503.542H241.889V580.77H272.054V545.22H291.593V526.835H296.392V517.026H319.016V526.835H332.385V504.768H351.239V487.3H369.063V504.768H380.377V456.961H400.943V426.315H444.819V456.961H468.129V568.511H494.182V490.057H523.843Z" fill="#3C495B"/>
<path fill-rule="evenodd" clip-rule="evenodd" d="M-38.6412 280.123C-38.6412 279.724 -38.2788 279.4 -37.8317 279.4C-37.3854 279.4 -37.0221 279.724 -37.0221 280.123V295.753C-37.0221 296.153 -37.3854 296.477 -37.8317 296.477C-38.2788 296.477 -38.6412 296.153 -38.6412 295.753V280.123ZM-48.9247 243.808C-48.9247 243.409 -48.5623 243.085 -48.1152 243.085C-47.668 243.085 -47.3056 243.409 -47.3056 243.808V255.3C-47.3056 255.7 -47.668 256.024 -48.1152 256.024C-48.5623 256.024 -48.9247 255.7 -48.9247 255.3V243.808ZM-37.4421 217.453C-37.4421 217.053 -37.0788 216.729 -36.6326 216.729C-36.1845 216.729 -35.8221 217.053 -35.8221 217.453V231.55C-35.8221 231.949 -36.1845 232.274 -36.6326 232.274C-37.0788 232.274 -37.4421 231.949 -37.4421 231.55V217.453ZM-10.361 220.518C-10.361 220.118 -9.99765 219.793 -9.55138 219.793C-9.10423 219.793 -8.74179 220.118 -8.74179 220.518V241.357C-8.74179 241.756 -9.10423 242.08 -9.55138 242.08C-9.99765 242.08 -10.361 241.756 -10.361 241.357V220.518ZM-26.129 140.532C-26.129 140.133 -25.7666 139.808 -25.3194 139.808C-24.8723 139.808 -24.5098 140.133 -24.5098 140.532V162.903C-24.5098 163.304 -24.8723 163.627 -25.3194 163.627C-25.7666 163.627 -26.129 163.304 -26.129 162.903V140.532ZM9.8637 146.048C9.8637 145.649 10.227 145.324 10.6741 145.324C11.1204 145.324 11.4837 145.649 11.4837 146.048V160.759C11.4837 161.158 11.1204 161.482 10.6741 161.482C10.227 161.482 9.8637 161.158 9.8637 160.759V146.048ZM62.6532 138.08C62.6532 137.681 63.0156 137.356 63.4628 137.356C63.9099 137.356 64.2724 137.681 64.2724 138.08V154.016C64.2724 154.416 63.9099 154.74 63.4628 154.74C63.0156 154.74 62.6532 154.416 62.6532 154.016V138.08ZM144.237 150.032C144.237 149.633 144.6 149.308 145.047 149.308C145.494 149.308 145.857 149.633 145.857 150.032V164.13C145.857 164.529 145.494 164.853 145.047 164.853C144.6 164.853 144.237 164.529 144.237 164.13V150.032ZM316.318 144.516C316.318 144.116 316.681 143.792 317.129 143.792C317.574 143.792 317.937 144.116 317.937 144.516V164.13C317.937 164.529 317.574 164.853 317.129 164.853C316.681 164.853 316.318 164.529 316.318 164.13V144.516ZM294.38 141.146C294.38 140.746 294.742 140.421 295.188 140.421C295.637 140.421 295.998 140.746 295.998 141.146V155.242C295.998 155.642 295.637 155.966 295.188 155.966C294.742 155.966 294.38 155.642 294.38 155.242V141.146ZM268.328 137.161C268.328 136.762 268.691 136.437 269.136 136.437C269.584 136.437 269.947 136.762 269.947 137.161V153.71C269.947 154.109 269.584 154.434 269.136 154.434C268.691 154.434 268.328 154.109 268.328 153.71V137.161ZM225.136 141.758C225.136 141.359 225.498 141.034 225.946 141.034C226.392 141.034 226.756 141.359 226.756 141.758V151.565C226.756 151.964 226.392 152.289 225.946 152.289C225.498 152.289 225.136 151.964 225.136 151.565V141.758ZM168.575 208.874C168.575 208.474 168.938 208.149 169.386 208.149C169.831 208.149 170.195 208.474 170.195 208.874V237.067C170.195 237.467 169.831 237.792 169.386 237.792C168.938 237.792 168.575 237.467 168.575 237.067V208.874ZM139.781 273.229C139.781 272.83 140.144 272.505 140.59 272.505C141.038 272.505 141.401 272.83 141.401 273.229V296.52C141.401 296.92 141.038 297.244 140.59 297.244C140.144 297.244 139.781 296.92 139.781 296.52V273.229ZM192.571 538.008C192.571 537.609 192.934 537.286 193.381 537.286C193.827 537.286 194.191 537.609 194.191 538.008V561.299C194.191 561.699 193.827 562.024 193.381 562.024C192.934 562.024 192.571 561.699 192.571 561.299V538.008ZM446.922 545.365C446.922 544.965 447.283 544.64 447.73 544.64C448.178 544.64 448.539 544.965 448.539 545.365V571.719C448.539 572.119 448.178 572.442 447.73 572.442C447.283 572.442 446.922 572.119 446.922 571.719V545.365ZM420.184 525.75C420.184 525.351 420.545 525.028 420.993 525.028C421.44 525.028 421.804 525.351 421.804 525.75V550.881C421.804 551.28 421.44 551.605 420.993 551.605C420.545 551.605 420.184 551.28 420.184 550.881V525.75ZM366.022 555.17C366.022 554.772 366.386 554.446 366.833 554.446C367.278 554.446 367.642 554.772 367.642 555.17V576.623C367.642 577.022 367.278 577.347 366.833 577.347C366.386 577.347 366.022 577.022 366.022 576.623V555.17ZM247.416 550.266C247.416 549.867 247.779 549.544 248.227 549.544C248.673 549.544 249.036 549.867 249.036 550.266V579.075C249.036 579.473 248.673 579.799 248.227 579.799C247.779 579.799 247.416 579.473 247.416 579.075V550.266ZM237.133 462.621C237.133 462.222 237.495 461.896 237.943 461.896C238.389 461.896 238.752 462.222 238.752 462.621V488.975C238.752 489.376 238.389 489.699 237.943 489.699C237.495 489.699 237.133 489.376 237.133 488.975V462.621ZM64.3676 510.427C64.3676 510.028 64.7309 509.704 65.1771 509.704C65.6243 509.704 65.9867 510.028 65.9867 510.427V545.218C65.9867 545.62 65.6243 545.943 65.1771 545.943C64.7309 545.943 64.3676 545.62 64.3676 545.218V510.427ZM59.5686 431.362C59.5686 430.961 59.931 430.637 60.3782 430.637C60.8253 430.637 61.1886 430.961 61.1886 431.362V456.492C61.1886 456.89 60.8253 457.216 60.3782 457.216C59.931 457.216 59.5686 456.89 59.5686 456.492V431.362ZM19.8049 460.781C19.8049 460.382 20.1673 460.057 20.6144 460.057C21.0616 460.057 21.424 460.382 21.424 460.781V479.174C21.424 479.574 21.0616 479.897 20.6144 479.897C20.1673 479.897 19.8049 479.574 19.8049 479.174V460.781ZM33.5162 291.617C33.5162 291.217 33.8795 290.893 34.3266 290.893C34.7738 290.893 35.1353 291.217 35.1353 291.617V316.133C35.1353 316.533 34.7738 316.857 34.3266 316.857C33.8795 316.857 33.5162 316.533 33.5162 316.133V291.617ZM5.40796 302.65C5.40796 302.25 5.77126 301.926 6.21754 301.926C6.66468 301.926 7.02711 302.25 7.02711 302.65V324.101C7.02711 324.501 6.66468 324.826 6.21754 324.826C5.77126 324.826 5.40796 324.501 5.40796 324.101V302.65ZM35.5738 344.941C35.5738 344.541 35.9362 344.217 36.3833 344.217C36.8296 344.217 37.1929 344.541 37.1929 344.941V369.457C37.1929 369.857 36.8296 370.181 36.3833 370.181C35.9362 370.181 35.5738 369.857 35.5738 369.457V344.941ZM70.5377 352.909C70.5377 352.509 70.901 352.185 71.3472 352.185C71.7944 352.185 72.1568 352.509 72.1568 352.909V374.974C72.1568 375.372 71.7944 375.698 71.3472 375.698C70.901 375.698 70.5377 375.372 70.5377 374.974V352.909ZM176.802 364.554C176.802 364.154 177.165 363.831 177.612 363.831C178.059 363.831 178.421 364.154 178.421 364.554V401.942C178.421 402.341 178.059 402.665 177.612 402.665C177.165 402.665 176.802 402.341 176.802 401.942V364.554ZM178.174 463.233C178.174 462.835 178.537 462.509 178.984 462.509C179.43 462.509 179.793 462.835 179.793 463.233V485.297C179.793 485.699 179.43 486.022 178.984 486.022C178.537 486.022 178.174 485.699 178.174 485.297V463.233ZM272.783 414.813C272.783 414.413 273.146 414.089 273.594 414.089C274.04 414.089 274.402 414.413 274.402 414.813V432.587C274.402 432.987 274.04 433.311 273.594 433.311C273.146 433.311 272.783 432.987 272.783 432.587V414.813ZM383.161 227.261C383.161 226.861 383.525 226.537 383.972 226.537C384.418 226.537 384.781 226.861 384.781 227.261V242.583C384.781 242.983 384.418 243.308 383.972 243.308C383.525 243.308 383.161 242.983 383.161 242.583V227.261ZM385.904 272.616C385.904 272.217 386.266 271.893 386.714 271.893C387.161 271.893 387.522 272.217 387.522 272.616V303.262C387.522 303.661 387.161 303.986 386.714 303.986C386.266 303.986 385.904 303.661 385.904 303.262V272.616ZM333.801 297.133C333.801 296.734 334.162 296.41 334.608 296.41C335.057 296.41 335.419 296.734 335.419 297.133V319.812C335.419 320.211 335.057 320.535 334.608 320.535C334.162 320.535 333.801 320.211 333.801 319.812V297.133ZM70.5377 244.423C70.5377 244.023 70.901 243.699 71.3472 243.699C71.7944 243.699 72.1568 244.023 72.1568 244.423V258.52C72.1568 258.919 71.7944 259.243 71.3472 259.243C70.901 259.243 70.5377 258.919 70.5377 258.52V244.423ZM48.5987 265.262C48.5987 264.862 48.962 264.538 49.4091 264.538C49.8554 264.538 50.2178 264.862 50.2178 265.262V283.649C50.2178 284.048 49.8554 284.373 49.4091 284.373C48.962 284.373 48.5987 284.048 48.5987 283.649V265.262ZM123.327 255.455C123.327 255.055 123.69 254.731 124.137 254.731C124.584 254.731 124.946 255.055 124.946 255.455V280.584C124.946 280.984 124.584 281.309 124.137 281.309C123.69 281.309 123.327 280.984 123.327 280.584V255.455ZM207.654 252.391C207.654 251.991 208.016 251.667 208.462 251.667C208.909 251.667 209.273 251.991 209.273 252.391V264.649C209.273 265.048 208.909 265.373 208.462 265.373C208.016 265.373 207.654 265.048 207.654 264.649V252.391ZM221.365 321.037C221.365 320.637 221.727 320.313 222.174 320.313C222.622 320.313 222.984 320.637 222.984 321.037V338.199C222.984 338.598 222.622 338.923 222.174 338.923C221.727 338.923 221.365 338.598 221.365 338.199V321.037ZM263.185 490.814C263.185 490.415 263.548 490.09 263.994 490.09C264.441 490.09 264.804 490.415 264.804 490.814V508.589C264.804 508.988 264.441 509.313 263.994 509.313C263.548 509.313 263.185 508.988 263.185 508.589V490.814ZM287.866 437.489C287.866 437.09 288.227 436.767 288.675 436.767C289.122 436.767 289.483 437.09 289.483 437.489V460.781C289.483 461.18 289.122 461.506 288.675 461.506C288.227 461.506 287.866 461.18 287.866 460.781V437.489ZM304.32 379.263C304.32 378.864 304.682 378.54 305.127 378.54C305.576 378.54 305.938 378.864 305.938 379.263V409.609C305.938 410.008 305.576 410.332 305.127 410.332C304.682 410.332 304.32 410.008 304.32 409.609V379.263ZM336.541 348.617C336.541 348.218 336.905 347.893 337.352 347.893C337.799 347.893 338.162 348.218 338.162 348.617V384.78C338.162 385.18 337.799 385.504 337.352 385.504C336.905 385.504 336.541 385.18 336.541 384.78V348.617ZM434.578 206.115C434.578 205.715 434.941 205.391 435.388 205.391C435.834 205.391 436.197 205.715 436.197 206.115V237.374C436.197 237.774 435.834 238.098 435.388 238.098C434.941 238.098 434.578 237.774 434.578 237.374V206.115ZM424.982 158.001C424.982 157.602 425.343 157.278 425.79 157.278C426.238 157.278 426.599 157.602 426.599 158.001V190.486C426.599 190.885 426.238 191.21 425.79 191.21C425.343 191.21 424.982 190.885 424.982 190.486V158.001ZM354.023 150.34C354.023 149.94 354.387 149.616 354.832 149.616C355.278 149.616 355.643 149.94 355.643 150.34V196.309C355.643 196.708 355.278 197.032 354.832 197.032C354.387 197.032 354.023 196.708 354.023 196.309V150.34ZM389.145 149.45C389.145 149.05 389.508 148.726 389.955 148.726C390.401 148.726 390.765 149.05 390.765 149.45V181.292C390.765 181.692 390.401 182.016 389.955 182.016C389.508 182.016 389.145 181.692 389.145 181.292V149.45ZM273.125 283.649C273.125 283.25 273.487 282.925 273.935 282.925C274.381 282.925 274.744 283.25 274.744 283.649V311.843C274.744 312.243 274.381 312.567 273.935 312.567C273.487 312.567 273.125 312.243 273.125 311.843V283.649ZM298.147 241.971C298.147 241.571 298.511 241.247 298.957 241.247C299.406 241.247 299.768 241.571 299.768 241.971V277.52C299.768 277.919 299.406 278.244 298.957 278.244C298.511 278.244 298.147 277.919 298.147 277.52V241.971ZM278.267 195.39C278.267 194.99 278.629 194.665 279.077 194.665C279.523 194.665 279.886 194.99 279.886 195.39V227.261C279.886 227.66 279.523 227.984 279.077 227.984C278.629 227.984 278.267 227.66 278.267 227.261V195.39ZM303.389 160.118C303.389 159.719 303.751 159.395 304.2 159.395C304.646 159.395 305.008 159.719 305.008 160.118V185.276C305.008 185.676 304.646 186 304.2 186C303.751 186 303.389 185.676 303.389 185.276V160.118ZM-1.44859 154.937C-1.44859 154.537 -1.08615 154.212 -0.639008 154.212C-0.19186 154.212 0.170574 154.537 0.170574 154.937V199.373C0.170574 199.773 -0.19186 200.098 -0.639008 200.098C-1.08615 200.098 -1.44859 199.773 -1.44859 199.373V154.937ZM216.566 194.164C216.566 193.764 216.928 193.44 217.375 193.44C217.823 193.44 218.185 193.764 218.185 194.164V249.326C218.185 249.725 217.823 250.05 217.375 250.05C216.928 250.05 216.566 249.725 216.566 249.326V194.164ZM199.767 166.888C199.767 166.489 200.132 166.165 200.578 166.165C201.025 166.165 201.388 166.489 201.388 166.888V206.116C201.388 206.516 201.025 206.84 200.578 206.84C200.132 206.84 199.767 206.516 199.767 206.116V166.888ZM158.291 150.34C158.291 149.94 158.654 149.616 159.101 149.616C159.548 149.616 159.91 149.94 159.91 150.34V199.986C159.91 200.387 159.548 200.711 159.101 200.711C158.654 200.711 158.291 200.387 158.291 199.986V150.34ZM92.8181 153.711C92.8181 153.312 93.1806 152.987 93.6286 152.987C94.0749 152.987 94.4373 153.312 94.4373 153.711V181.292C94.4373 181.692 94.0749 182.017 93.6286 182.017C93.1806 182.017 92.8181 181.692 92.8181 181.292V153.711ZM75.679 198.761C75.679 198.361 76.0414 198.036 76.4886 198.036C76.9357 198.036 77.2981 198.361 77.2981 198.761V233.39C77.2981 233.79 76.9357 234.114 76.4886 234.114C76.0414 234.114 75.679 233.79 75.679 233.39V198.761ZM46.1987 224.196C46.1987 223.797 46.562 223.472 47.0083 223.472C47.4555 223.472 47.8188 223.797 47.8188 224.196V250.246C47.8188 250.645 47.4555 250.97 47.0083 250.97C46.562 250.97 46.1987 250.645 46.1987 250.246V224.196ZM41.4469 164.188C41.4469 163.789 41.8102 163.465 42.2565 163.465C42.7037 163.465 43.0661 163.789 43.0661 164.188V194.47C43.0661 194.87 42.7037 195.194 42.2565 195.194C41.8102 195.194 41.4469 194.87 41.4469 194.47V164.188ZM-49.0977 387.232C-49.0977 386.832 -48.7344 386.507 -48.2872 386.507C-47.8401 386.507 -47.4776 386.832 -47.4776 387.232V431.362C-47.4776 431.761 -47.8401 432.085 -48.2872 432.085C-48.7344 432.085 -49.0977 431.761 -49.0977 431.362V387.232ZM-13.4473 286.714C-13.4473 286.314 -13.084 285.99 -12.6369 285.99C-12.1897 285.99 -11.8273 286.314 -11.8273 286.714V313.683C-11.8273 314.082 -12.1897 314.406 -12.6369 314.406C-13.084 314.406 -13.4473 314.082 -13.4473 313.683V286.714ZM-29.2153 325.941C-29.2153 325.541 -28.8529 325.216 -28.4058 325.216C-27.9586 325.216 -27.5953 325.541 -27.5953 325.941V359.038C-27.5953 359.437 -27.9586 359.761 -28.4058 359.761C-28.8529 359.761 -29.2153 359.437 -29.2153 359.038V325.941ZM-36.7566 526.364C-36.7566 525.963 -36.3941 525.64 -35.947 525.64C-35.4999 525.64 -35.1365 525.963 -35.1365 526.364V558.235C-35.1365 558.634 -35.4999 558.959 -35.947 558.959C-36.3941 558.959 -36.7566 558.634 -36.7566 558.235V526.364ZM-6.59514 466.297C-6.59514 465.898 -6.23271 465.573 -5.78556 465.573C-5.33841 465.573 -4.97598 465.898 -4.97598 466.297V498.637C-4.97598 499.038 -5.33841 499.361 -5.78556 499.361C-6.23271 499.361 -6.59514 499.038 -6.59514 498.637V466.297ZM-25.7875 396.425C-25.7875 396.025 -25.4242 395.701 -24.9779 395.701C-24.5308 395.701 -24.1675 396.025 -24.1675 396.425V429.221C-24.1675 429.622 -24.5308 429.946 -24.9779 429.946C-25.4242 429.946 -25.7875 429.622 -25.7875 429.221V396.425ZM-7.27634 400.103C-7.27634 399.703 -6.91391 399.379 -6.46676 399.379C-6.02049 399.379 -5.65718 399.703 -5.65718 400.103V417.423C-5.65718 417.823 -6.02049 418.147 -6.46676 418.147C-6.91391 418.147 -7.27634 417.823 -7.27634 417.423V400.103ZM13.2907 500.008C13.2907 499.609 13.6531 499.283 14.1002 499.283C14.5474 499.283 14.9098 499.609 14.9098 500.008V536.639C14.9098 537.038 14.5474 537.362 14.1002 537.362C13.6531 537.362 13.2907 537.038 13.2907 536.639V500.008ZM42.0845 472.427C42.0845 472.028 42.4478 471.703 42.894 471.703C43.3421 471.703 43.7045 472.028 43.7045 472.427V503.072C43.7045 503.472 43.3421 503.797 42.894 503.797C42.4478 503.797 42.0845 503.472 42.0845 503.072V472.427ZM99.6729 551.493C99.6729 551.095 100.035 550.769 100.483 550.769C100.931 550.769 101.293 551.095 101.293 551.493V577.849C101.293 578.248 100.931 578.571 100.483 578.571C100.035 578.571 99.6729 578.248 99.6729 577.849V551.493ZM169.602 517.783C169.602 517.384 169.966 517.058 170.412 517.058C170.858 517.058 171.223 517.384 171.223 517.783V548.429C171.223 548.827 170.858 549.153 170.412 549.153C169.966 549.153 169.602 548.827 169.602 548.429V517.783ZM124.354 514.718C124.354 514.32 124.717 513.994 125.164 513.994C125.611 513.994 125.974 514.32 125.974 514.718V552.106C125.974 552.505 125.611 552.829 125.164 552.829C124.717 552.829 124.354 552.505 124.354 552.106V514.718ZM155.205 427.072C155.205 426.672 155.568 426.347 156.015 426.347C156.462 426.347 156.825 426.672 156.825 427.072V458.331C156.825 458.73 156.462 459.053 156.015 459.053C155.568 459.053 155.205 458.73 155.205 458.331V427.072ZM116.634 427.997C116.634 427.596 116.996 427.272 117.444 427.272C117.892 427.272 118.254 427.596 118.254 427.997V462.621C118.254 463.02 117.892 463.345 117.444 463.345C116.996 463.345 116.634 463.02 116.634 462.621V427.997ZM112.7 293.456C112.7 293.056 113.062 292.731 113.509 292.731C113.956 292.731 114.319 293.056 114.319 293.456V323.489C114.319 323.888 113.956 324.213 113.509 324.213C113.062 324.213 112.7 323.888 112.7 323.489V293.456ZM98.2983 361.489C98.2983 361.09 98.6607 360.766 99.1079 360.766C99.555 360.766 99.9175 361.09 99.9175 361.489V403.781C99.9175 404.18 99.555 404.504 99.1079 404.504C98.6607 404.504 98.2983 404.18 98.2983 403.781V361.489ZM334.828 227.874C334.828 227.474 335.189 227.15 335.638 227.15C336.084 227.15 336.446 227.474 336.446 227.874V256.682C336.446 257.081 336.084 257.405 335.638 257.405C335.189 257.405 334.828 257.081 334.828 256.682V227.874ZM435.607 259.132C435.607 258.733 435.971 258.409 436.416 258.409C436.863 258.409 437.227 258.733 437.227 259.132V291.622C437.227 292.022 436.863 292.346 436.416 292.346C435.971 292.346 435.607 292.022 435.607 291.622V259.132ZM436.979 346.78C436.979 346.38 437.34 346.056 437.787 346.056C438.236 346.056 438.596 346.38 438.596 346.78V382.941C438.596 383.341 438.236 383.665 437.787 383.665C437.34 383.665 436.979 383.341 436.979 382.941V346.78ZM391.044 383.555C391.044 383.155 391.407 382.831 391.854 382.831C392.301 382.831 392.664 383.155 392.664 383.555V438.717C392.664 439.116 392.301 439.441 391.854 439.441C391.407 439.441 391.044 439.116 391.044 438.717V383.555ZM427.381 434.427C427.381 434.026 427.742 433.703 428.191 433.703C428.637 433.703 429.001 434.026 429.001 434.427V471.201C429.001 471.6 428.637 471.926 428.191 471.926C427.742 471.926 427.381 471.6 427.381 471.201V434.427ZM388.302 492.654C388.302 492.253 388.665 491.929 389.111 491.929C389.559 491.929 389.921 492.253 389.921 492.654V543.524C389.921 543.926 389.559 544.249 389.111 544.249C388.665 544.249 388.302 543.926 388.302 543.524V492.654ZM276.554 538.623C276.554 538.221 276.916 537.898 277.362 537.898C277.809 537.898 278.172 538.221 278.172 538.623V561.912C278.172 562.313 277.809 562.637 277.362 562.637C276.916 562.637 276.554 562.313 276.554 561.912V538.623ZM314.26 550.881C314.26 550.482 314.621 550.156 315.07 550.156C315.516 550.156 315.878 550.482 315.878 550.881V577.849C315.878 578.248 315.516 578.571 315.07 578.571C314.621 578.571 314.26 578.248 314.26 577.849V550.881ZM357.359 466.916C357.359 466.515 357.722 466.191 358.169 466.191C358.615 466.191 358.979 466.515 358.979 466.916V521.46C358.979 521.859 358.615 522.184 358.169 522.184C357.722 522.184 357.359 521.859 357.359 521.46V466.916ZM318.88 490.201C318.88 489.803 319.241 489.478 319.69 489.478C320.136 489.478 320.498 489.803 320.498 490.201V526.977C320.498 527.376 320.136 527.701 319.69 527.701C319.241 527.701 318.88 527.376 318.88 526.977V490.201ZM213.48 487.75C213.48 487.351 213.842 487.025 214.29 487.025C214.735 487.025 215.099 487.351 215.099 487.75V524.524C215.099 524.924 214.735 525.249 214.29 525.249C213.842 525.249 213.48 524.924 213.48 524.524V487.75ZM252.558 423.394C252.558 422.994 252.92 422.67 253.367 422.67C253.814 422.67 254.177 422.994 254.177 423.394V453.427C254.177 453.826 253.814 454.152 253.367 454.152C252.92 454.152 252.558 453.826 252.558 453.427V423.394ZM234.732 393.973C234.732 393.575 235.095 393.251 235.543 393.251C235.989 393.251 236.351 393.575 236.351 393.973V447.91C236.351 448.309 235.989 448.634 235.543 448.634C235.095 448.634 234.732 448.309 234.732 447.91V393.973ZM185.878 414.511C185.878 414.111 186.24 413.787 186.688 413.787C187.134 413.787 187.496 414.111 187.496 414.511V444.846C187.496 445.245 187.134 445.57 186.688 445.57C186.24 445.57 185.878 445.245 185.878 444.846V414.511ZM77.2126 415.124C77.2126 414.724 77.5759 414.4 78.0221 414.4C78.4693 414.4 78.8317 414.724 78.8317 415.124V471.976C78.8317 472.375 78.4693 472.7 78.0221 472.7C77.5759 472.7 77.2126 472.375 77.2126 471.976V415.124ZM24.2597 362.715C24.2597 362.316 24.623 361.99 25.0702 361.99C25.5165 361.99 25.8789 362.316 25.8789 362.715V431.979C25.8789 432.38 25.5165 432.703 25.0702 432.703C24.623 432.703 24.2597 432.38 24.2597 431.979V362.715ZM13.2907 242.583C13.2907 242.184 13.6531 241.86 14.1002 241.86C14.5474 241.86 14.9098 242.184 14.9098 242.583V290.391C14.9098 290.791 14.5474 291.115 14.1002 291.115C13.6531 291.115 13.2907 290.791 13.2907 290.391V242.583ZM115.955 176.308C115.955 175.909 116.318 175.585 116.765 175.585C117.212 175.585 117.575 175.909 117.575 176.308V218.067C117.575 218.467 117.212 218.792 116.765 218.792C116.318 218.792 115.955 218.467 115.955 218.067V176.308ZM250.501 172.711C250.501 172.312 250.864 171.988 251.31 171.988C251.758 171.988 252.12 172.312 252.12 172.711V222.973C252.12 223.372 251.758 223.696 251.31 223.696C250.864 223.696 250.501 223.372 250.501 222.973V172.711ZM397.215 202.132C397.215 201.733 397.577 201.408 398.025 201.408C398.471 201.408 398.832 201.733 398.832 202.132V269.552C398.832 269.952 398.471 270.276 398.025 270.276C397.577 270.276 397.215 269.952 397.215 269.552V202.132ZM398.584 292.843C398.584 292.443 398.949 292.119 399.395 292.119C399.842 292.119 400.205 292.443 400.205 292.843V351.683C400.205 352.083 399.842 352.406 399.395 352.406C398.949 352.406 398.584 352.083 398.584 351.683V292.843ZM309.46 286.714C309.46 286.314 309.823 285.99 310.269 285.99C310.717 285.99 311.08 286.314 311.08 286.714V314.908C311.08 315.308 310.717 315.632 310.269 315.632C309.823 315.632 309.46 315.308 309.46 314.908V286.714ZM279.977 338.816C279.977 338.416 280.339 338.093 280.786 338.093C281.234 338.093 281.596 338.416 281.596 338.816V393.361C281.596 393.761 281.234 394.086 280.786 394.086C280.339 394.086 279.977 393.761 279.977 393.361V338.816ZM358.823 247.487C358.823 247.088 359.184 246.763 359.631 246.763C360.079 246.763 360.441 247.088 360.441 247.487V412.974C360.441 413.374 360.079 413.698 359.631 413.698C359.184 413.698 358.823 413.374 358.823 412.974V247.487ZM228.56 260.971C228.56 260.571 228.925 260.247 229.371 260.247C229.819 260.247 230.181 260.571 230.181 260.971V295.295C230.181 295.694 229.819 296.018 229.371 296.018C228.925 296.018 228.56 295.694 228.56 295.295V260.971ZM188.799 243.81C188.799 243.41 189.162 243.086 189.609 243.086C190.056 243.086 190.418 243.41 190.418 243.81V362.699C190.418 363.1 190.056 363.424 189.609 363.424C189.162 363.424 188.799 363.1 188.799 362.699V243.81ZM162.747 272.004C162.747 271.604 163.109 271.28 163.556 271.28C164.004 271.28 164.366 271.604 164.366 272.004V302.65C164.366 303.049 164.004 303.373 163.556 303.373C163.109 303.373 162.747 303.049 162.747 302.65V272.004ZM80.4771 265.875C80.4771 265.475 80.8395 265.151 81.2867 265.151C81.7338 265.151 82.0962 265.475 82.0962 265.875V345.559C82.0962 345.958 81.7338 346.282 81.2867 346.282C80.8395 346.282 80.4771 345.958 80.4771 345.559V265.875ZM-26.522 204.313C-26.522 203.913 -26.1587 203.589 -25.7115 203.589C-25.2644 203.589 -24.902 203.913 -24.902 204.313V279.359C-24.902 279.759 -25.2644 280.083 -25.7115 280.083C-26.1587 280.083 -26.522 279.759 -26.522 279.359V204.313Z" fill="#BED3E6"/>
</g>
</g>
</g>
</g>
<path d="M113.696 536.885C160.564 536.885 202.643 557.385 231.457 589.907H275.885C296.138 566.084 326.325 550.969 360.044 550.969C421.025 550.969 470.46 600.403 470.46 661.384C470.46 691.122 458.702 718.113 439.584 737.965V978.503H-0.416016V802.396C-27.1679 774.199 -43.582 736.099 -43.582 694.163C-43.582 607.301 26.8339 536.885 113.696 536.885Z" fill="url(#paint0_linear_207_25328)"/>
</g>
</g>
<defs>
<filter id="filter0_i_207_25328" x="0" y="0" width="440" height="780" filterUnits="userSpaceOnUse" color-interpolation-filters="sRGB">
<feFlood flood-opacity="0" result="BackgroundImageFix"/>
<feBlend mode="normal" in="SourceGraphic" in2="BackgroundImageFix" result="shape"/>
<feColorMatrix in="SourceAlpha" type="matrix" values="0 0 0 0 0 0 0 0 0 0 0 0 0 0 0 0 0 0 127 0" result="hardAlpha"/>
<feOffset dy="8"/>
<feGaussianBlur stdDeviation="4"/>
<feComposite in2="hardAlpha" operator="arithmetic" k2="-1" k3="1"/>
<feColorMatrix type="matrix" values="0 0 0 0 0 0 0 0 0 0 0 0 0 0 0 0 0 0 0.25 0"/>
<feBlend mode="normal" in2="shape" result="effect1_innerShadow_207_25328"/>
</filter>
<filter id="filter1_i_207_25328" x="0" y="-0.5" width="440" height="3007" filterUnits="userSpaceOnUse" color-interpolation-filters="sRGB">
<feFlood flood-opacity="0" result="BackgroundImageFix"/>
<feBlend mode="normal" in="SourceGraphic" in2="BackgroundImageFix" result="shape"/>
<feColorMatrix in="SourceAlpha" type="matrix" values="0 0 0 0 0 0 0 0 0 0 0 0 0 0 0 0 0 0 127 0" result="hardAlpha"/>
<feOffset dy="4"/>
<feGaussianBlur stdDeviation="2"/>
<feComposite in2="hardAlpha" operator="arithmetic" k2="-1" k3="1"/>
<feColorMatrix type="matrix" values="0 0 0 0 0 0 0 0 0 0 0 0 0 0 0 0 0 0 0.25 0"/>
<feBlend mode="normal" in2="shape" result="effect1_innerShadow_207_25328"/>
</filter>
<linearGradient id="paint0_linear_207_25328" x1="232.375" y1="536.885" x2="232.375" y2="978.503" gradientUnits="userSpaceOnUse">
<stop offset="0.3" stop-color="#2A4061"/>
<stop offset="1" stop-color="white" stop-opacity="0"/>
</linearGradient>
<clipPath id="clip0_207_25328">
<rect width="440" height="772" fill="white"/>
</clipPath>
<clipPath id="clip1_207_25328">
<path d="M0 99.5C0 44.2716 44.7715 -0.5 100 -0.5H340C395.228 -0.5 440 44.2715 440 99.5V3002.5H0V99.5Z" fill="white"/>
</clipPath>
<clipPath id="clip2_207_25328">
<rect width="524" height="598" fill="white" transform="translate(0 -1)"/>
</clipPath>
</defs>
</svg>
