<svg width="440" height="772" viewBox="0 0 440 772" fill="none" xmlns="http://www.w3.org/2000/svg">
<g opacity="0.95" filter="url(#filter0_i_207_24867)">
<g clip-path="url(#clip0_207_24867)">
<path d="M0.498047 100C0.498047 44.7715 45.2696 0 100.498 0H340.498C395.727 0 440.498 44.7715 440.498 100V1634H0.498047V100Z" fill="#E0EDFF"/>
<g clip-path="url(#clip1_207_24867)">
<path d="M142.751 337.666C136.854 337.671 130.989 338.538 125.344 340.24C125.387 339.376 125.473 338.538 125.473 337.666C125.465 325.117 120.903 312.997 112.634 303.557C104.365 294.117 92.9513 287.999 80.5124 286.339C68.0735 284.679 55.4547 287.589 44.9995 294.53C34.5442 301.47 26.963 311.969 23.6638 324.077C17.576 321.648 11.0829 320.397 4.52864 320.388C-9.21841 320.388 -22.4024 325.849 -32.1231 335.57C-41.8437 345.29 -47.3047 358.474 -47.3047 372.221C-47.3047 385.968 -41.8437 399.152 -32.1231 408.873C-22.4024 418.594 -9.21841 424.055 4.52864 424.055C15.9017 424.044 26.9557 420.294 35.9868 413.381C45.018 406.469 51.5249 396.777 54.5046 385.802C60.5918 388.233 67.085 389.488 73.6397 389.499C76.8793 389.499 80.0325 389.162 83.108 388.601C82.6069 391.711 82.2786 394.881 82.2786 398.138C82.2786 431.527 109.362 458.61 142.751 458.61C176.14 458.61 203.223 431.527 203.223 398.138C203.223 382.1 196.852 366.718 185.511 355.378C174.17 344.037 158.789 337.666 142.751 337.666Z" fill="white"/>
<path d="M177.306 458.61C173.272 458.61 169.444 459.344 165.738 460.372C167.604 455.828 168.667 450.87 168.667 445.652C168.667 435.341 164.571 425.453 157.281 418.163C149.99 410.872 140.102 406.777 129.792 406.777C121.353 406.802 113.155 409.597 106.458 414.733C103.419 402.598 96.4154 391.825 86.5573 384.124C76.6992 376.422 64.5518 372.233 52.042 372.221C40.4012 372.231 29.0511 375.859 19.5623 382.602C10.0734 389.345 2.91486 398.871 -0.923035 409.861C-10.4256 406.923 -20.4503 406.07 -30.3125 407.362C-40.1747 408.654 -49.6419 412.059 -58.0674 417.345C-66.4928 422.631 -73.678 429.673 -79.1322 437.991C-84.5863 446.308 -88.1808 455.705 -89.6701 465.54C-91.1594 475.374 -90.5084 485.414 -87.7617 494.973C-85.0149 504.533 -80.2371 513.387 -73.7546 520.931C-67.2721 528.474 -59.2376 534.53 -50.2001 538.684C-41.1626 542.838 -31.335 544.992 -21.3886 544.999H177.306C201.167 544.999 220.5 525.665 220.5 501.805C220.5 477.944 201.167 458.61 177.306 458.61Z" fill="white"/>
</g>
<g clip-path="url(#clip2_207_24867)">
<path d="M449.751 319.111C443.854 319.116 437.989 319.983 432.344 321.685C432.387 320.822 432.473 319.984 432.473 319.111C432.465 306.562 427.903 294.442 419.634 285.002C411.365 275.563 399.951 269.445 387.512 267.784C375.073 266.124 362.455 269.034 351.999 275.975C341.544 282.915 333.963 293.414 330.664 305.522C324.576 303.094 318.083 301.842 311.529 301.833C297.782 301.833 284.598 307.294 274.877 317.015C265.156 326.736 259.695 339.92 259.695 353.667C259.695 367.414 265.156 380.598 274.877 390.318C284.598 400.039 297.782 405.5 311.529 405.5C322.902 405.49 333.956 401.739 342.987 394.827C352.018 387.914 358.525 378.223 361.505 367.247C367.592 369.678 374.085 370.933 380.64 370.944C383.879 370.944 387.033 370.607 390.108 370.046C389.607 373.156 389.279 376.326 389.279 379.583C389.279 412.973 416.362 440.056 449.751 440.056C483.14 440.056 510.223 412.973 510.223 379.583C510.223 363.545 503.852 348.164 492.511 336.823C481.17 325.482 465.789 319.111 449.751 319.111Z" fill="white"/>
<path d="M484.306 440.056C480.272 440.056 476.444 440.79 472.738 441.818C474.604 437.274 475.667 432.315 475.667 427.098C475.667 416.787 471.571 406.899 464.281 399.609C456.99 392.318 447.102 388.223 436.792 388.223C428.353 388.248 420.155 391.043 413.458 396.179C410.419 384.044 403.415 373.271 393.557 365.57C383.699 357.868 371.552 353.679 359.042 353.667C347.401 353.677 336.051 357.305 326.562 364.048C317.073 370.791 309.915 380.317 306.077 391.307C296.574 388.369 286.55 387.516 276.687 388.808C266.825 390.099 257.358 393.504 248.933 398.79C240.507 404.076 233.322 411.119 227.868 419.437C222.414 427.754 218.819 437.151 217.33 446.985C215.841 456.82 216.492 466.859 219.238 476.419C221.985 485.979 226.763 494.833 233.245 502.377C239.728 509.92 247.762 515.976 256.8 520.13C265.837 524.283 275.665 526.438 285.611 526.445H484.306C508.167 526.445 527.5 507.111 527.5 483.25C527.5 459.39 508.167 440.056 484.306 440.056Z" fill="white"/>
</g>
<g clip-path="url(#clip3_207_24867)">
<path d="M146.776 356.006V370.586H137.783V379.384H130.24V397.482H127.51L124.941 407.663V417.843H114.019V421.111H111.452V433.93H106.153V430.286H85.2786V433.93H82.7083V414.952L79.3347 410.302H54.9283V418.723H48.6668V422.326H36.9436V403.263L28.5954 400.75H17.9975V403.263H9.32446V430.789H-0.00195312V516.757H440.998V422.326H437.738V395.723H426.499V391.952H420.076V389.061H405.302V391.952H394.866V395.723H390.207V416.712H387.319L379.931 422.326V436.193H377.363L372.224 443.483V453.349H368.293V458.062H363.392V453.663H351.67V447.504H347.174V458.062H338.829V444.739H335.614V436.947L327.749 433.05H322.767V422.326H316.504V420.105H305.907L300.928 422.326V436.947H295.789V449.515H291.614V446.121H277.325V449.515H273.876V438.267L270.74 430.914H266.249V429.72H260.95V430.914H256.931V428.401L250.752 426.703H231.644V428.401H225.779V430.914H222.409V422.326H214.701V430.914H208.437V437.701H206.191V447.504H203.14V430.537H198.484V424.001L194.307 417.843H181.302V404.897L176.967 395.598H175.2V374.608H173.111V370.586H161.55V356.006H146.776Z" fill="white"/>
<path d="M146.776 357.575V372.155H137.783V380.952H130.24V399.051H127.51L124.941 409.231V419.412H114.019V422.68H111.452V435.499H106.153V431.854H85.2786V435.499H82.7083V416.521L79.3347 411.87H54.9283V420.291H48.6668V423.894H36.9436V404.832L28.5954 402.319H17.9975V404.832H9.32446V432.357H-0.00195312V518.325H440.998V423.894H437.738V397.291H426.499V393.521H420.076V390.63H405.302V393.521H394.866V397.291H390.207V418.28H387.319L379.931 423.894V437.761H377.363L372.224 445.051V454.917H368.293V459.63H363.392V455.231H351.67V449.073H347.174V459.63H338.829V446.308H335.614V438.515L327.749 434.619H322.767V423.894H316.504V421.674H305.907L300.928 423.894V438.515H295.789V451.084H291.614V447.69H277.325V451.084H273.876V439.835L270.74 432.483H266.249V431.288H260.95V432.483H256.931V429.969L250.752 428.272H231.644V429.969H225.779V432.483H222.409V423.894H214.701V432.483H208.437V439.269H206.191V449.073H203.14V432.106H198.484V425.57L194.307 419.412H181.302V406.466L176.967 397.166H175.2V376.176H173.111V372.155H161.55V357.575H146.776Z" fill="#91C0F8"/>
<path d="M329.182 427.333V440.153H324.914V442.164H318.254V449.704H315.182L311.597 459.382V475.345H304.768V468.431L303.06 454.103H296.743V468.431H295.206V475.345H289.57V486.655H285.303V496.962H280.693V467.049H273.18V453.727L267.204 445.179H260.886V453.727H258.156V433.239H241.082V453.727H234.251L227.336 461.708V479.366H206.762V457.371L203.518 452.721H196.604V442.854H182.177V447.756H179.274V444.363H171.59L167.494 447.756V452.721H160.493V482.319H155.883V499.978H150.078V477.92H146.151V469.312L139.491 459.445H120.881V469.312H113.881V462.587H102.1V469.312H94.2464V494.888H81.611V505.508H75.8059V479.366L71.8788 469.374H67.2689V463.467H54.122V479.366H50.5367V487.054H35.3413V494.448H25.0976V481.062L21.8533 476.853H12.9752V464.598H4.26691V476.853H-0.00195312V596.942H440.999V473.836H434.87V464.787H417.113V473.836H405.672V453.727H396.282V449.579L393.722 446.94H372.55V449.579H365.891L362.646 453.727V481.503H356.16V498.47H348.304V442.164L343.013 440.153H336.524V427.333H329.182Z" fill="white"/>
<path d="M329.182 428.903V441.723H324.914V443.734H318.254V451.275H315.182L311.597 460.952V476.915H304.768V470.001L303.06 455.673H296.743V470.001H295.206V476.915H289.57V488.226H285.303V498.532H280.693V468.619H273.18V455.297L267.204 446.75H260.886V455.297H258.156V434.81H241.082V455.297H234.251L227.336 463.278V480.936H206.762V458.941L203.518 454.291H196.604V444.425H182.177V449.326H179.274V445.933H171.59L167.494 449.326V454.291H160.493V483.889H155.883V501.549H150.078V479.491H146.151V470.882L139.491 461.015H120.881V470.882H113.881V464.157H102.1V470.882H94.2464V496.458H81.611V507.078H75.8059V480.936L71.8788 470.944H67.2689V465.037H54.122V480.936H50.5367V488.625H35.3413V496.018H25.0976V482.633L21.8533 478.423H12.9752V466.168H4.26691V478.423H-0.00195312V598.514H440.999V475.406H434.87V466.357H417.113V475.406H405.672V455.297H396.282V451.15L393.722 448.51H372.55V451.15H365.891L362.646 455.297V483.073H356.16V500.039H348.304V443.734L343.013 441.723H336.524V428.903H329.182Z" fill="#FFA500"/>
</g>
<path d="M113.696 536.885C160.564 536.885 202.643 557.385 231.457 589.907H275.885C296.138 566.084 326.325 550.969 360.044 550.969C421.025 550.969 470.46 600.403 470.46 661.384C470.46 691.122 458.702 718.113 439.584 737.965V978.503H-0.416016V802.396C-27.1679 774.199 -43.582 736.099 -43.582 694.163C-43.582 607.301 26.8339 536.885 113.696 536.885Z" fill="url(#paint0_linear_207_24867)"/>
</g>
</g>
<defs>
<filter id="filter0_i_207_24867" x="0" y="0" width="440" height="780" filterUnits="userSpaceOnUse" color-interpolation-filters="sRGB">
<feFlood flood-opacity="0" result="BackgroundImageFix"/>
<feBlend mode="normal" in="SourceGraphic" in2="BackgroundImageFix" result="shape"/>
<feColorMatrix in="SourceAlpha" type="matrix" values="0 0 0 0 0 0 0 0 0 0 0 0 0 0 0 0 0 0 127 0" result="hardAlpha"/>
<feOffset dy="8"/>
<feGaussianBlur stdDeviation="4"/>
<feComposite in2="hardAlpha" operator="arithmetic" k2="-1" k3="1"/>
<feColorMatrix type="matrix" values="0 0 0 0 0 0 0 0 0 0 0 0 0 0 0 0 0 0 0.25 0"/>
<feBlend mode="normal" in2="shape" result="effect1_innerShadow_207_24867"/>
</filter>
<linearGradient id="paint0_linear_207_24867" x1="232.375" y1="536.885" x2="232.375" y2="978.503" gradientUnits="userSpaceOnUse">
<stop offset="0.3" stop-color="#7CB432"/>
<stop offset="1" stop-color="white" stop-opacity="0"/>
</linearGradient>
<clipPath id="clip0_207_24867">
<path d="M0 100C0 44.7715 44.7715 0 100 0H340C395.228 0 440 44.7715 440 100V772H0V100Z" fill="white"/>
</clipPath>
<clipPath id="clip1_207_24867">
<rect width="311" height="311" fill="white" transform="translate(-90.5 268.555)"/>
</clipPath>
<clipPath id="clip2_207_24867">
<rect width="311" height="311" fill="white" transform="translate(216.5 250)"/>
</clipPath>
<clipPath id="clip3_207_24867">
<rect width="441" height="321" fill="white" transform="translate(-0.00195312 310)"/>
</clipPath>
</defs>
</svg>
