<svg width="440" height="769" viewBox="0 0 440 769" fill="none" xmlns="http://www.w3.org/2000/svg">
<g opacity="0.95" filter="url(#filter0_i_207_24521)">
<g clip-path="url(#clip0_207_24521)">
<g clip-path="url(#clip1_207_24521)">
<rect width="440" height="1668" fill="#BCD2ED"/>
<g clip-path="url(#clip2_207_24521)">
<path d="M0 642H441V268.032H0V642Z" fill="#BCD2ED"/>
<path d="M146.778 321.603V338.589H137.785V348.841H130.242V369.927H127.511L124.943 381.788V393.649H114.021V397.456H111.454V412.393H106.155V408.146H85.2806V412.393H82.7103V390.281L79.3366 384.863H54.9302V394.675H48.6688V398.872H36.9455V376.662L28.5974 373.734H17.9994V376.662H9.32641V408.732H0V508.895H441V398.872H437.74V367.877H426.501V363.483H420.078V360.115H405.304V363.483H394.868V367.877H390.209V392.331H387.321L379.933 398.872V415.029H377.365L372.226 423.522V435.017H368.295V440.509H363.394V435.383H351.672V428.208H347.176V440.509H338.831V424.986H335.616V415.907L327.751 411.367H322.769V398.872H316.506V396.285H305.909L300.93 398.872V415.907H295.791V430.551H291.616V426.596H277.327V430.551H273.878V417.445L270.742 408.878H266.251V407.488H260.951V408.878H256.932V405.95L250.754 403.972H231.646V405.95H225.781V408.878H222.411V398.872H214.703V408.878H208.439V416.786H206.193V428.208H203.142V408.439H198.486V400.824L194.309 393.649H181.304V378.566L176.969 367.731H175.202V343.276H173.113V338.589H161.552V321.603H146.778Z" fill="white"/>
<path d="M146.778 323.431V340.417H137.785V350.667H130.242V371.754H127.511L124.943 383.615V395.477H114.021V399.284H111.454V414.22H106.155V409.974H85.2806V414.22H82.7103V392.108L79.3366 386.69H54.9302V396.501H48.6688V400.7H36.9455V378.49L28.5974 375.562H17.9994V378.49H9.32641V410.56H0V510.722H441V400.7H437.74V369.704H426.501V365.311H420.078V361.943H405.304V365.311H394.868V369.704H390.209V394.158H387.321L379.933 400.7V416.856H377.365L372.226 425.349V436.844H368.295V442.336H363.394V437.21H351.672V430.035H347.176V442.336H338.831V426.814H335.616V417.734L327.751 413.194H322.769V400.7H316.506V398.113H305.909L300.93 400.7V417.734H295.791V432.379H291.616V428.424H277.327V432.379H273.878V419.272L270.742 410.706H266.251V409.314H260.951V410.706H256.932V407.777L250.754 405.8H231.646V407.777H225.781V410.706H222.411V400.7H214.703V410.706H208.439V418.613H206.193V430.035H203.142V410.267H198.486V402.652L194.309 395.477H181.304V380.393L176.969 369.558H175.202V345.103H173.113V340.417H161.552V323.431H146.778Z" fill="#99B5D6"/>
<path d="M329.184 404.706V419.642H324.916V421.985H318.256V430.771H315.184L311.599 442.047V460.645H304.77V452.59L303.062 435.896H296.744V452.59H295.208V460.645H289.572V473.823H285.305V485.831H280.695V450.979H273.182V435.457L267.206 425.499H260.888V435.457H258.158V411.587H241.084V435.457H234.253L227.338 444.756V465.33H206.764V439.703L203.52 434.286H196.606V422.79H182.179V428.501H179.276V424.547H171.592L167.495 428.501V434.286H160.495V468.771H155.885V489.345H150.08V463.646H146.153V453.616L139.493 442.12H120.883V453.616H113.883V445.78H102.102V453.616H94.2483V483.415H81.6129V495.789H75.8079V465.33L71.8808 453.688H67.2709V446.806H54.1239V465.33H50.5386V474.288H35.3432V482.902H25.0995V467.307L21.8552 462.402H12.9772V448.123H4.26887V462.402H0V602.319H441.001V458.887H434.872V448.344H417.115V458.887H405.674V435.457H396.284V430.625L393.724 427.55H372.552V430.625H365.893L362.648 435.457V467.82H356.162V487.588H348.306V421.985L343.015 419.642H336.526V404.706H329.184Z" fill="white"/>
<path d="M329.184 406.535V421.471H324.916V423.814H318.256V432.6H315.184L311.599 443.875V462.473H304.77V454.419L303.062 437.724H296.744V454.419H295.208V462.473H289.572V475.652H285.305V487.66H280.695V452.808H273.182V437.286L267.206 427.328H260.888V437.286H258.158V413.416H241.084V437.286H234.253L227.338 446.585V467.159H206.764V441.532L203.52 436.114H196.606V424.619H182.179V430.33H179.276V426.377H171.592L167.495 430.33V436.114H160.495V470.6H155.885V491.175H150.08V465.475H146.153V455.445L139.493 443.949H120.883V455.445H113.883V447.609H102.102V455.445H94.2483V485.243H81.6129V497.617H75.8079V467.159L71.8808 455.517H67.2709V448.635H54.1239V467.159H50.5386V476.117H35.3432V484.731H25.0995V469.135L21.8552 464.23H12.9772V449.952H4.26887V464.23H0V604.149H441.001V460.715H434.872V450.172H417.115V460.715H405.674V437.286H396.284V432.454L393.724 429.379H372.552V432.454H365.893L362.648 437.286V469.648H356.162V489.416H348.306V423.814L343.015 421.471H336.526V406.535H329.184Z" fill="#839ABB"/>
<mask id="mask0_207_24521" style="mask-type:luminance" maskUnits="userSpaceOnUse" x="0" y="268" width="441" height="374">
<path d="M0 268H441V642H0V268Z" fill="white"/>
</mask>
<g mask="url(#mask0_207_24521)">
<path fill-rule="evenodd" clip-rule="evenodd" d="M0.152145 502.555H21.5627V531.842H42.9732V510.754H47.6361V493.915H51.6065V477.807H54.7149V493.915H56.6141L65.7656 510.754V542.971H72.6724V524.227H78.889V511.78H84.5867L89.2488 524.227V542.971H95.9829V528.767H104.098L107.897 542.971V552.342H113.422V546.924H120.847V552.342H124.473V523.056H132.243V508.558H143.294V523.056H149.337V497.283L162.46 487.912H171.439V469.753H185.943L199.757 487.912V497.283H208.736V547.656H228.074V521.297H233.601V513.684H241.025V521.297H248.795V494.939H258.81V470.924H267.443V441.345H282.637V470.924H289.544V494.939H294.378V539.456H310.264V524.812H321.315V513.098L329.431 498.309H335.301V482.639H343.244V498.309H347.387V513.098H357.23V524.812H368.97V475.024H375.878V465.067H381.057L386.237 475.024V494.354H390.38V524.812H399.36V516.905L416.281 491.426H435.274V516.905H442.28V641.103H0C0 575.29 0.152145 568.27 0.152145 502.555Z" fill="white"/>
<path fill-rule="evenodd" clip-rule="evenodd" d="M0.152145 504.57H21.5627V533.856H42.9732V512.77H47.6361V495.93H51.6065V479.823H54.7149V495.93H56.6141L65.7656 512.77V544.986H72.6724V526.242H78.889V513.795H84.5867L89.2488 526.242V544.986H95.9829V530.781H104.098L107.897 544.986V554.357H113.422V548.94H120.847V554.357H124.473V525.07H132.243V510.573H143.294V525.07H149.337V499.297L162.46 489.926H171.439V471.768H185.943L199.757 489.926V499.297H208.736V549.67H228.074V523.312H233.601V515.699H241.025V523.312H248.795V496.954H258.81V472.939H267.443V443.36H282.637V472.939H289.544V496.954H294.378V541.471H310.264V526.828H321.315V515.113L329.431 500.323H335.301V484.655H343.244V500.323H347.387V515.113H357.23V526.828H368.97V477.039H375.878V467.082H381.057L386.237 477.039V496.369H390.38V526.828H399.36V518.92L416.281 493.44H435.274V518.92H442.28V643.117H0C0 577.306 0.152145 570.284 0.152145 504.57Z" fill="#67778E"/>
<path fill-rule="evenodd" clip-rule="evenodd" d="M61.3007 307.031C62.2518 307.031 63.0272 306.374 63.0272 305.568C63.0272 304.761 62.2518 304.103 61.3007 304.103C60.3496 304.103 59.5742 304.761 59.5742 305.568C59.5742 306.374 60.3496 307.031 61.3007 307.031Z" fill="white"/>
<path fill-rule="evenodd" clip-rule="evenodd" d="M87.2009 320.504C88.3416 320.504 89.2728 319.714 89.2728 318.746C89.2728 317.779 88.3416 316.99 87.2009 316.99C86.0602 316.99 85.1289 317.779 85.1289 318.746C85.1289 319.714 86.0602 320.504 87.2009 320.504Z" fill="white"/>
<path fill-rule="evenodd" clip-rule="evenodd" d="M130.021 303.518C131.162 303.518 132.093 302.729 132.093 301.761C132.093 300.793 131.162 300.004 130.021 300.004C128.88 300.004 127.949 300.793 127.949 301.761C127.949 302.729 128.88 303.518 130.021 303.518Z" fill="white"/>
<path fill-rule="evenodd" clip-rule="evenodd" d="M197.363 314.062C198.695 314.062 199.78 313.14 199.78 312.011C199.78 310.883 198.695 309.961 197.363 309.961C196.032 309.961 194.945 310.883 194.945 312.011C194.945 313.14 196.032 314.062 197.363 314.062Z" fill="white"/>
<path fill-rule="evenodd" clip-rule="evenodd" d="M242.946 333.391C244.657 333.391 246.054 332.206 246.054 330.755C246.054 329.303 244.657 328.119 242.946 328.119C241.234 328.119 239.838 329.303 239.838 330.755C239.838 332.206 241.234 333.391 242.946 333.391Z" fill="white"/>
<path fill-rule="evenodd" clip-rule="evenodd" d="M280.935 342.763C281.504 342.763 281.97 342.368 281.97 341.884C281.97 341.4 281.504 341.006 280.935 341.006C280.364 341.006 279.898 341.4 279.898 341.884C279.898 342.368 280.364 342.763 280.935 342.763Z" fill="white"/>
<path fill-rule="evenodd" clip-rule="evenodd" d="M325.136 361.506C326.467 361.506 327.554 360.585 327.554 359.456C327.554 358.327 326.467 357.406 325.136 357.406C323.804 357.406 322.719 358.327 322.719 359.456C322.719 360.585 323.804 361.506 325.136 361.506Z" fill="white"/>
<path fill-rule="evenodd" clip-rule="evenodd" d="M363.813 305.86C364.764 305.86 365.54 305.203 365.54 304.396C365.54 303.59 364.764 302.932 363.813 302.932C362.862 302.932 362.086 303.59 362.086 304.396C362.086 305.203 362.862 305.86 363.813 305.86Z" fill="white"/>
<path fill-rule="evenodd" clip-rule="evenodd" d="M284.732 303.518C286.255 303.518 287.496 302.465 287.496 301.175C287.496 299.884 286.255 298.832 284.732 298.832C283.212 298.832 281.969 299.884 281.969 301.175C281.969 302.465 283.212 303.518 284.732 303.518Z" fill="white"/>
<path fill-rule="evenodd" clip-rule="evenodd" d="M315.122 329.291C317.784 329.291 319.956 327.45 319.956 325.191C319.956 322.932 317.784 321.091 315.122 321.091C312.459 321.091 310.287 322.932 310.287 325.191C310.287 327.45 312.459 329.291 315.122 329.291Z" fill="white"/>
<path fill-rule="evenodd" clip-rule="evenodd" d="M370.373 346.276C371.894 346.276 373.136 345.224 373.136 343.934C373.136 342.643 371.894 341.591 370.373 341.591C368.853 341.591 367.611 342.643 367.611 343.934C367.611 345.224 368.853 346.276 370.373 346.276Z" fill="white"/>
<path fill-rule="evenodd" clip-rule="evenodd" d="M383.498 377.321C384.26 377.321 384.88 376.795 384.88 376.15C384.88 375.504 384.26 374.978 383.498 374.978C382.738 374.978 382.117 375.504 382.117 376.15C382.117 376.795 382.738 377.321 383.498 377.321Z" fill="white"/>
<path fill-rule="evenodd" clip-rule="evenodd" d="M309.25 384.351C310.201 384.351 310.977 383.692 310.977 382.886C310.977 382.079 310.201 381.422 309.25 381.422C308.299 381.422 307.523 382.079 307.523 382.886C307.523 383.692 308.299 384.351 309.25 384.351Z" fill="white"/>
<path fill-rule="evenodd" clip-rule="evenodd" d="M288.875 406.608C290.777 406.608 292.328 405.293 292.328 403.68C292.328 402.067 290.777 400.752 288.875 400.752C286.973 400.752 285.422 402.067 285.422 403.68C285.422 405.293 286.973 406.608 288.875 406.608Z" fill="white"/>
<path fill-rule="evenodd" clip-rule="evenodd" d="M266.428 519.656C268.14 519.656 269.535 518.472 269.535 517.02C269.535 515.569 268.14 514.385 266.428 514.385C264.717 514.385 263.32 515.569 263.32 517.02C263.32 518.472 264.717 519.656 266.428 519.656Z" fill="white"/>
<path fill-rule="evenodd" clip-rule="evenodd" d="M270.572 551.285C271.141 551.285 271.607 550.891 271.607 550.408C271.607 549.924 271.141 549.529 270.572 549.529C270.001 549.529 269.535 549.924 269.535 550.408C269.535 550.891 270.001 551.285 270.572 551.285Z" fill="white"/>
<path fill-rule="evenodd" clip-rule="evenodd" d="M309.944 584.087C310.895 584.087 311.67 583.429 311.67 582.622C311.67 581.815 310.895 581.158 309.944 581.158C308.991 581.158 308.215 581.815 308.215 582.622C308.215 583.429 308.991 584.087 309.944 584.087Z" fill="white"/>
<path fill-rule="evenodd" clip-rule="evenodd" d="M378.662 572.372C379.422 572.372 380.043 571.846 380.043 571.201C380.043 570.555 379.422 570.028 378.662 570.028C377.9 570.028 377.281 570.555 377.281 571.201C377.281 571.846 377.9 572.372 378.662 572.372Z" fill="white"/>
<path fill-rule="evenodd" clip-rule="evenodd" d="M253.306 458.152C255.778 458.152 257.794 456.443 257.794 454.345C257.794 452.248 255.778 450.538 253.306 450.538C250.833 450.538 248.816 452.248 248.816 454.345C248.816 456.443 250.833 458.152 253.306 458.152Z" fill="white"/>
<path fill-rule="evenodd" clip-rule="evenodd" d="M192.937 442.338C194.958 442.338 196.606 440.94 196.606 439.226C196.606 437.512 194.958 436.115 192.937 436.115C190.915 436.115 189.268 437.512 189.268 439.226C189.268 440.94 190.915 442.338 192.937 442.338Z" fill="white"/>
<path fill-rule="evenodd" clip-rule="evenodd" d="M95.8331 397.236C98.3057 397.236 100.323 395.527 100.323 393.429C100.323 391.332 98.3057 389.622 95.8331 389.622C93.3606 389.622 91.3438 391.332 91.3438 393.429C91.3438 395.527 93.3606 397.236 95.8331 397.236Z" fill="white"/>
<path fill-rule="evenodd" clip-rule="evenodd" d="M49.9034 372.05C53.327 372.05 56.1193 369.682 56.1193 366.778C56.1193 363.875 53.327 361.507 49.9034 361.507C46.4798 361.507 43.6875 363.875 43.6875 366.778C43.6875 369.682 46.4798 372.05 49.9034 372.05Z" fill="white"/>
<path fill-rule="evenodd" clip-rule="evenodd" d="M147.634 381.422C149.346 381.422 150.741 380.238 150.741 378.786C150.741 377.334 149.346 376.15 147.634 376.15C145.922 376.15 144.525 377.334 144.525 378.786C144.525 380.238 145.922 381.422 147.634 381.422Z" fill="white"/>
<path fill-rule="evenodd" clip-rule="evenodd" d="M193.564 390.793C196.227 390.793 198.399 388.952 198.399 386.693C198.399 384.434 196.227 382.592 193.564 382.592C190.902 382.592 188.73 384.434 188.73 386.693C188.73 388.952 190.902 390.793 193.564 390.793Z" fill="white"/>
<path fill-rule="evenodd" clip-rule="evenodd" d="M247.433 373.221C249.336 373.221 250.887 371.905 250.887 370.292C250.887 368.679 249.336 367.363 247.433 367.363C245.531 367.363 243.98 368.679 243.98 370.292C243.98 371.905 245.531 373.221 247.433 373.221Z" fill="white"/>
<path fill-rule="evenodd" clip-rule="evenodd" d="M253.176 405.8C256.716 405.8 259.606 403.35 259.606 400.346C259.606 397.342 256.716 394.893 253.176 394.893C249.634 394.893 246.746 397.342 246.746 400.346C246.746 403.35 249.634 405.8 253.176 405.8Z" fill="white"/>
<path fill-rule="evenodd" clip-rule="evenodd" d="M365.539 404.266C367.441 404.266 368.992 402.95 368.992 401.337C368.992 399.723 367.441 398.408 365.539 398.408C363.637 398.408 362.086 399.723 362.086 401.337C362.086 402.95 363.637 404.266 365.539 404.266Z" fill="white"/>
<path fill-rule="evenodd" clip-rule="evenodd" d="M414.578 331.048C416.861 331.048 418.724 329.469 418.724 327.533C418.724 325.598 416.861 324.019 414.578 324.019C412.296 324.019 410.434 325.598 410.434 327.533C410.434 329.469 412.296 331.048 414.578 331.048Z" fill="white"/>
<path fill-rule="evenodd" clip-rule="evenodd" d="M394.548 289.46C396.831 289.46 398.692 287.882 398.692 285.945C398.692 284.01 396.831 282.431 394.548 282.431C392.265 282.431 390.402 284.01 390.402 285.945C390.402 287.882 392.265 289.46 394.548 289.46Z" fill="white"/>
<path fill-rule="evenodd" clip-rule="evenodd" d="M322.718 288.874C325.762 288.874 328.243 286.769 328.243 284.188C328.243 281.607 325.762 279.502 322.718 279.502C319.675 279.502 317.193 281.607 317.193 284.188C317.193 286.769 319.675 288.874 322.718 288.874Z" fill="white"/>
<path fill-rule="evenodd" clip-rule="evenodd" d="M222.572 280.674C223.334 280.674 223.954 280.148 223.954 279.503C223.954 278.857 223.334 278.331 222.572 278.331C221.812 278.331 221.191 278.857 221.191 279.503C221.191 280.148 221.812 280.674 222.572 280.674Z" fill="white"/>
<path fill-rule="evenodd" clip-rule="evenodd" d="M162.484 292.975C164.006 292.975 165.246 291.922 165.246 290.631C165.246 289.341 164.006 288.288 162.484 288.288C160.962 288.288 159.721 289.341 159.721 290.631C159.721 291.922 160.962 292.975 162.484 292.975Z" fill="white"/>
<path fill-rule="evenodd" clip-rule="evenodd" d="M92.3803 281.26C93.7114 281.26 94.7977 280.338 94.7977 279.21C94.7977 278.081 93.7114 277.159 92.3803 277.159C91.0485 277.159 89.9629 278.081 89.9629 279.21C89.9629 280.338 91.0485 281.26 92.3803 281.26Z" fill="white"/>
<path fill-rule="evenodd" clip-rule="evenodd" d="M39.5446 291.218C40.6853 291.218 41.6166 290.428 41.6166 289.461C41.6166 288.493 40.6853 287.703 39.5446 287.703C38.4039 287.703 37.4727 288.493 37.4727 289.461C37.4727 290.428 38.4039 291.218 39.5446 291.218Z" fill="white"/>
<path fill-rule="evenodd" clip-rule="evenodd" d="M40.2336 346.863C45.9394 346.863 50.5934 342.916 50.5934 338.077C50.5934 333.238 45.9394 329.291 40.2336 329.291C34.5271 329.291 29.873 333.238 29.873 338.077C29.873 342.916 34.5271 346.863 40.2336 346.863Z" fill="white"/>
<path fill-rule="evenodd" clip-rule="evenodd" d="M113.1 352.72C114.051 352.72 114.826 352.062 114.826 351.256C114.826 350.449 114.051 349.791 113.1 349.791C112.148 349.791 111.373 350.449 111.373 351.256C111.373 352.062 112.148 352.72 113.1 352.72Z" fill="white"/>
<path fill-rule="evenodd" clip-rule="evenodd" d="M64.0624 440.582C66.9164 440.582 69.2426 438.609 69.2426 436.189C69.2426 433.77 66.9164 431.796 64.0624 431.796C61.2098 431.796 58.8828 433.77 58.8828 436.189C58.8828 438.609 61.2098 440.582 64.0624 440.582Z" fill="white"/>
<path fill-rule="evenodd" clip-rule="evenodd" d="M86.479 505.869C89.1581 505.869 91.3439 504.017 91.3439 501.745C91.3439 499.471 89.1581 497.618 86.479 497.618C83.7999 497.618 81.6133 499.471 81.6133 501.745C81.6133 504.017 83.7999 505.869 86.479 505.869Z" fill="white"/>
<path fill-rule="evenodd" clip-rule="evenodd" d="M76.8387 567.1C79.5016 567.1 81.6728 565.258 81.6728 563.001C81.6728 560.742 79.5016 558.901 76.8387 558.901C74.1751 558.901 72.0039 560.742 72.0039 563.001C72.0039 565.258 74.1751 567.1 76.8387 567.1Z" fill="white"/>
<path fill-rule="evenodd" clip-rule="evenodd" d="M99.9772 589.359C100.928 589.359 101.704 588.701 101.704 587.895C101.704 587.088 100.928 586.431 99.9772 586.431C99.0262 586.431 98.25 587.088 98.25 587.895C98.25 588.701 99.0262 589.359 99.9772 589.359Z" fill="white"/>
<path fill-rule="evenodd" clip-rule="evenodd" d="M166.626 558.314C167.387 558.314 168.007 557.788 168.007 557.143C168.007 556.499 167.387 555.972 166.626 555.972C165.864 555.972 165.244 556.499 165.244 557.143C165.244 557.788 165.864 558.314 166.626 558.314Z" fill="white"/>
<path fill-rule="evenodd" clip-rule="evenodd" d="M170.426 599.903C171.377 599.903 172.153 599.246 172.153 598.439C172.153 597.631 171.377 596.975 170.426 596.975C169.475 596.975 168.699 597.631 168.699 598.439C168.699 599.246 169.475 599.903 170.426 599.903Z" fill="white"/>
<path fill-rule="evenodd" clip-rule="evenodd" d="M205.996 623.333C209.419 623.333 212.211 620.963 212.211 618.061C212.211 615.157 209.419 612.789 205.996 612.789C202.572 612.789 199.779 615.157 199.779 618.061C199.779 620.963 202.572 623.333 205.996 623.333Z" fill="white"/>
<path fill-rule="evenodd" clip-rule="evenodd" d="M221.189 568.272C222.711 568.272 223.952 567.22 223.952 565.929C223.952 564.638 222.711 563.585 221.189 563.585C219.668 563.585 218.426 564.638 218.426 565.929C218.426 567.22 219.668 568.272 221.189 568.272Z" fill="white"/>
<path fill-rule="evenodd" clip-rule="evenodd" d="M168.226 508.894C169.485 508.894 170.514 508.022 170.514 506.952C170.514 505.883 169.485 505.012 168.226 505.012C166.966 505.012 165.938 505.883 165.938 506.952C165.938 508.022 166.966 508.894 168.226 508.894Z" fill="white"/>
<path fill-rule="evenodd" clip-rule="evenodd" d="M209.795 480.411C211.888 480.411 213.594 478.964 213.594 477.19C213.594 475.416 211.888 473.968 209.795 473.968C207.702 473.968 205.996 475.416 205.996 477.19C205.996 478.964 207.702 480.411 209.795 480.411Z" fill="white"/>
<path fill-rule="evenodd" clip-rule="evenodd" d="M248.127 567.1C249.268 567.1 250.199 566.31 250.199 565.344C250.199 564.375 249.268 563.585 248.127 563.585C246.986 563.585 246.055 564.375 246.055 565.344C246.055 566.31 246.986 567.1 248.127 567.1Z" fill="white"/>
<path fill-rule="evenodd" clip-rule="evenodd" d="M270.141 609.86C271.996 609.86 273.509 608.577 273.509 607.004C273.509 605.432 271.996 604.148 270.141 604.148C268.287 604.148 266.773 605.432 266.773 607.004C266.773 608.577 268.287 609.86 270.141 609.86Z" fill="white"/>
<path fill-rule="evenodd" clip-rule="evenodd" d="M355.526 614.547C357.237 614.547 358.633 613.363 358.633 611.91C358.633 610.459 357.237 609.275 355.526 609.275C353.813 609.275 352.416 610.459 352.416 611.91C352.416 613.363 353.813 614.547 355.526 614.547Z" fill="white"/>
<path fill-rule="evenodd" clip-rule="evenodd" d="M325.483 565.344C326.624 565.344 327.554 564.555 327.554 563.586C327.554 562.619 326.624 561.83 325.483 561.83C324.341 561.83 323.41 562.619 323.41 563.586C323.41 564.555 324.341 565.344 325.483 565.344Z" fill="white"/>
<path fill-rule="evenodd" clip-rule="evenodd" d="M345.857 539.57C348.328 539.57 350.346 537.861 350.346 535.764C350.346 533.666 348.328 531.956 345.857 531.956C343.383 531.956 341.367 533.666 341.367 535.764C341.367 537.861 343.383 539.57 345.857 539.57Z" fill="white"/>
<path fill-rule="evenodd" clip-rule="evenodd" d="M404.911 561.83C407.573 561.83 409.744 559.988 409.744 557.729C409.744 555.471 407.573 553.629 404.911 553.629C402.246 553.629 400.074 555.471 400.074 557.729C400.074 559.988 402.246 561.83 404.911 561.83Z" fill="white"/>
<path fill-rule="evenodd" clip-rule="evenodd" d="M404.863 602.319C406.79 602.319 408.361 600.989 408.361 599.354C408.361 597.72 406.79 596.387 404.863 596.387C402.936 596.387 401.367 597.72 401.367 599.354C401.367 600.989 402.936 602.319 404.863 602.319Z" fill="white"/>
<path fill-rule="evenodd" clip-rule="evenodd" d="M412.506 406.022C414.028 406.022 415.269 404.97 415.269 403.679C415.269 402.389 414.028 401.336 412.506 401.336C410.984 401.336 409.742 402.389 409.742 403.679C409.742 404.97 410.984 406.022 412.506 406.022Z" fill="white"/>
<path fill-rule="evenodd" clip-rule="evenodd" d="M385.049 477.039C385.703 477.039 386.236 476.586 386.236 476.032C386.236 475.476 385.703 475.023 385.049 475.023C384.392 475.023 383.859 475.476 383.859 476.032C383.859 476.586 384.392 477.039 385.049 477.039Z" fill="white"/>
</g>
</g>
</g>
<path d="M113.696 536.885C160.564 536.885 202.643 557.385 231.457 589.907H275.886C296.139 566.084 326.326 550.969 360.045 550.969C421.026 550.969 470.461 600.403 470.461 661.384C470.461 691.122 458.703 718.113 439.584 737.966V978.503H-0.416016V802.396C-27.1679 774.199 -43.582 736.099 -43.582 694.163C-43.582 607.301 26.8339 536.885 113.696 536.885Z" fill="url(#paint0_linear_207_24521)"/>
<g opacity="0.6">
<path fill-rule="evenodd" clip-rule="evenodd" d="M397.113 53.4736C396.037 53.4736 395.159 52.6814 395.159 51.7105C395.159 50.7389 396.037 49.946 397.113 49.946C398.189 49.946 399.066 50.7389 399.066 51.7105C399.066 52.6814 398.189 53.4736 397.113 53.4736Z" fill="white"/>
<path fill-rule="evenodd" clip-rule="evenodd" d="M367.804 69.7041C366.513 69.7041 365.459 68.7527 365.459 67.5866C365.459 66.4212 366.513 65.4706 367.804 65.4706C369.095 65.4706 370.148 66.4212 370.148 67.5866C370.148 68.7527 369.095 69.7041 367.804 69.7041Z" fill="white"/>
<path fill-rule="evenodd" clip-rule="evenodd" d="M319.349 49.2412C318.058 49.2412 317.004 48.2906 317.004 47.1245C317.004 45.9583 318.058 45.0077 319.349 45.0077C320.64 45.0077 321.693 45.9583 321.693 47.1245C321.693 48.2906 320.64 49.2412 319.349 49.2412Z" fill="white"/>
<path fill-rule="evenodd" clip-rule="evenodd" d="M243.15 61.9414C241.644 61.9414 240.416 60.8316 240.416 59.4717C240.416 58.1119 241.644 57.0021 243.15 57.0021C244.657 57.0021 245.887 58.1119 245.887 59.4717C245.887 60.8316 244.657 61.9414 243.15 61.9414Z" fill="white"/>
<path fill-rule="evenodd" clip-rule="evenodd" d="M191.571 85.2271C189.635 85.2271 188.054 83.8004 188.054 82.0515C188.054 80.3027 189.635 78.8768 191.571 78.8768C193.509 78.8768 195.088 80.3027 195.088 82.0515C195.088 83.8004 193.509 85.2271 191.571 85.2271Z" fill="white"/>
<path fill-rule="evenodd" clip-rule="evenodd" d="M148.587 96.5166C147.943 96.5166 147.416 96.0413 147.416 95.4579C147.416 94.8752 147.943 94.3998 148.587 94.3998C149.233 94.3998 149.76 94.8752 149.76 95.4579C149.76 96.0413 149.233 96.5166 148.587 96.5166Z" fill="white"/>
<path fill-rule="evenodd" clip-rule="evenodd" d="M98.5712 119.095C97.0651 119.095 95.8358 117.986 95.8358 116.626C95.8358 115.265 97.0651 114.156 98.5712 114.156C100.078 114.156 101.307 115.265 101.307 116.626C101.307 117.986 100.078 119.095 98.5712 119.095Z" fill="white"/>
<path fill-rule="evenodd" clip-rule="evenodd" d="M54.8034 52.064C53.7272 52.064 52.8497 51.2718 52.8497 50.3001C52.8497 49.3292 53.7272 48.5363 54.8034 48.5363C55.8796 48.5363 56.7578 49.3292 56.7578 50.3001C56.7578 51.2718 55.8796 52.064 54.8034 52.064Z" fill="white"/>
<path fill-rule="evenodd" clip-rule="evenodd" d="M144.289 49.2412C142.566 49.2412 141.162 47.973 141.162 46.4186C141.162 44.8635 142.566 43.596 144.289 43.596C146.01 43.596 147.416 44.8635 147.416 46.4186C147.416 47.973 146.01 49.2412 144.289 49.2412Z" fill="white"/>
<path fill-rule="evenodd" clip-rule="evenodd" d="M109.902 80.2876C106.89 80.2876 104.432 78.0695 104.432 75.349C104.432 72.6278 106.89 70.4097 109.902 70.4097C112.915 70.4097 115.373 72.6278 115.373 75.349C115.373 78.0695 112.915 80.2876 109.902 80.2876Z" fill="white"/>
<path fill-rule="evenodd" clip-rule="evenodd" d="M47.3812 100.749C45.6596 100.749 44.2549 99.481 44.2549 97.9267C44.2549 96.3716 45.6596 95.1041 47.3812 95.1041C49.1011 95.1041 50.5059 96.3716 50.5059 97.9267C50.5059 99.481 49.1011 100.749 47.3812 100.749Z" fill="white"/>
<path fill-rule="evenodd" clip-rule="evenodd" d="M32.5318 138.147C31.6694 138.147 30.9674 137.513 30.9674 136.736C30.9674 135.958 31.6694 135.324 32.5318 135.324C33.3918 135.324 34.0938 135.958 34.0938 136.736C34.0938 137.513 33.3918 138.147 32.5318 138.147Z" fill="white"/>
<path fill-rule="evenodd" clip-rule="evenodd" d="M116.544 146.615C115.468 146.615 114.59 145.822 114.59 144.851C114.59 143.879 115.468 143.087 116.544 143.087C117.621 143.087 118.498 143.879 118.498 144.851C118.498 145.822 117.621 146.615 116.544 146.615Z" fill="white"/>
<path fill-rule="evenodd" clip-rule="evenodd" d="M139.601 173.427C137.448 173.427 135.693 171.842 135.693 169.899C135.693 167.957 137.448 166.371 139.601 166.371C141.753 166.371 143.508 167.957 143.508 169.899C143.508 171.842 141.753 173.427 139.601 173.427Z" fill="white"/>
<path fill-rule="evenodd" clip-rule="evenodd" d="M164.999 309.608C163.062 309.608 161.483 308.181 161.483 306.432C161.483 304.684 163.062 303.258 164.999 303.258C166.935 303.258 168.516 304.684 168.516 306.432C168.516 308.181 166.935 309.608 164.999 309.608Z" fill="white"/>
<path fill-rule="evenodd" clip-rule="evenodd" d="M160.31 347.71C159.665 347.71 159.138 347.235 159.138 346.653C159.138 346.07 159.665 345.595 160.31 345.595C160.955 345.595 161.482 346.07 161.482 346.653C161.482 347.235 160.955 347.71 160.31 347.71Z" fill="white"/>
<path fill-rule="evenodd" clip-rule="evenodd" d="M115.763 387.223C114.686 387.223 113.809 386.43 113.809 385.459C113.809 384.487 114.686 383.695 115.763 383.695C116.84 383.695 117.719 384.487 117.719 385.459C117.719 386.43 116.84 387.223 115.763 387.223Z" fill="white"/>
<path fill-rule="evenodd" clip-rule="evenodd" d="M38.0025 373.111C37.1426 373.111 36.4398 372.477 36.4398 371.701C36.4398 370.922 37.1426 370.288 38.0025 370.288C38.8642 370.288 39.5645 370.922 39.5645 371.701C39.5645 372.477 38.8642 373.111 38.0025 373.111Z" fill="white"/>
<path fill-rule="evenodd" clip-rule="evenodd" d="M179.848 235.519C177.051 235.519 174.769 233.459 174.769 230.933C174.769 228.407 177.051 226.346 179.848 226.346C182.646 226.346 184.928 228.407 184.928 230.933C184.928 233.459 182.646 235.519 179.848 235.519Z" fill="white"/>
<path fill-rule="evenodd" clip-rule="evenodd" d="M248.157 216.468C245.87 216.468 244.005 214.784 244.005 212.719C244.005 210.654 245.87 208.971 248.157 208.971C250.444 208.971 252.309 210.654 252.309 212.719C252.309 214.784 250.444 216.468 248.157 216.468Z" fill="white"/>
<path fill-rule="evenodd" clip-rule="evenodd" d="M358.035 162.137C355.238 162.137 352.955 160.077 352.955 157.55C352.955 155.024 355.238 152.965 358.035 152.965C360.833 152.965 363.115 155.024 363.115 157.55C363.115 160.077 360.833 162.137 358.035 162.137Z" fill="white"/>
<path fill-rule="evenodd" clip-rule="evenodd" d="M410.007 131.797C406.133 131.797 402.974 128.945 402.974 125.447C402.974 121.949 406.133 119.097 410.007 119.097C413.881 119.097 417.041 121.949 417.041 125.447C417.041 128.945 413.881 131.797 410.007 131.797Z" fill="white"/>
<path fill-rule="evenodd" clip-rule="evenodd" d="M299.42 143.085C297.483 143.085 295.904 141.66 295.904 139.91C295.904 138.161 297.483 136.735 299.42 136.735C301.357 136.735 302.938 138.161 302.938 139.91C302.938 141.66 301.357 143.085 299.42 143.085Z" fill="white"/>
<path fill-rule="evenodd" clip-rule="evenodd" d="M247.451 154.375C244.437 154.375 241.979 152.157 241.979 149.436C241.979 146.716 244.437 144.497 247.451 144.497C250.463 144.497 252.92 146.716 252.92 149.436C252.92 152.157 250.463 154.375 247.451 154.375Z" fill="white"/>
<path fill-rule="evenodd" clip-rule="evenodd" d="M186.493 133.208C184.341 133.208 182.585 131.622 182.585 129.68C182.585 127.737 184.341 126.151 186.493 126.151C188.646 126.151 190.4 127.737 190.4 129.68C190.4 131.622 188.646 133.208 186.493 133.208Z" fill="white"/>
<path fill-rule="evenodd" clip-rule="evenodd" d="M179.998 172.454C175.992 172.454 172.722 169.503 172.722 165.884C172.722 162.266 175.992 159.315 179.998 159.315C184.006 159.315 187.273 162.266 187.273 165.884C187.273 169.503 184.006 172.454 179.998 172.454Z" fill="white"/>
<path fill-rule="evenodd" clip-rule="evenodd" d="M52.8506 170.605C50.6982 170.605 48.9433 169.02 48.9433 167.077C48.9433 165.133 50.6982 163.549 52.8506 163.549C55.003 163.549 56.7578 165.133 56.7578 167.077C56.7578 169.02 55.003 170.605 52.8506 170.605Z" fill="white"/>
<path fill-rule="evenodd" clip-rule="evenodd" d="M-2.6363 82.4043C-5.22035 82.4043 -7.32783 80.5023 -7.32783 78.1708C-7.32783 75.8393 -5.22035 73.9373 -2.6363 73.9373C-0.0547535 73.9373 2.05273 75.8393 2.05273 78.1708C2.05273 80.5023 -0.0547535 82.4043 -2.6363 82.4043Z" fill="white"/>
<path fill-rule="evenodd" clip-rule="evenodd" d="M20.0253 32.3071C17.4421 32.3071 15.3362 30.4051 15.3362 28.0729C15.3362 25.7414 17.4421 23.8394 20.0253 23.8394C22.6093 23.8394 24.7168 25.7414 24.7168 28.0729C24.7168 30.4051 22.6093 32.3071 20.0253 32.3071Z" fill="white"/>
<path fill-rule="evenodd" clip-rule="evenodd" d="M101.305 31.6006C97.8609 31.6006 95.0531 29.0648 95.0531 25.9562C95.0531 22.8467 97.8609 20.311 101.305 20.311C104.748 20.311 107.557 22.8467 107.557 25.9562C107.557 29.0648 104.748 31.6006 101.305 31.6006Z" fill="white"/>
<path fill-rule="evenodd" clip-rule="evenodd" d="M214.625 21.7222C213.763 21.7222 213.061 21.0884 213.061 20.3112C213.061 19.5341 213.763 18.8996 214.625 18.8996C215.486 18.8996 216.188 19.5341 216.188 20.3112C216.188 21.0884 215.486 21.7222 214.625 21.7222Z" fill="white"/>
<path fill-rule="evenodd" clip-rule="evenodd" d="M282.618 36.5405C280.895 36.5405 279.492 35.2723 279.492 33.7179C279.492 32.1636 280.895 30.8954 282.618 30.8954C284.339 30.8954 285.744 32.1636 285.744 33.7179C285.744 35.2723 284.339 36.5405 282.618 36.5405Z" fill="white"/>
<path fill-rule="evenodd" clip-rule="evenodd" d="M361.94 22.4287C360.434 22.4287 359.205 21.3189 359.205 19.959C359.205 18.5992 360.434 17.4894 361.94 17.4894C363.447 17.4894 364.676 18.5992 364.676 19.959C364.676 21.3189 363.447 22.4287 361.94 22.4287Z" fill="white"/>
<path fill-rule="evenodd" clip-rule="evenodd" d="M421.73 34.4233C420.439 34.4233 419.385 33.472 419.385 32.3066C419.385 31.1405 420.439 30.1891 421.73 30.1891C423.02 30.1891 424.074 31.1405 424.074 32.3066C424.074 33.472 423.02 34.4233 421.73 34.4233Z" fill="white"/>
<path fill-rule="evenodd" clip-rule="evenodd" d="M420.948 101.455C414.492 101.455 409.226 96.7005 409.226 90.8706C409.226 85.0414 414.492 80.2868 420.948 80.2868C427.406 80.2868 432.672 85.0414 432.672 90.8706C432.672 96.7005 427.406 101.455 420.948 101.455Z" fill="white"/>
<path fill-rule="evenodd" clip-rule="evenodd" d="M338.499 108.512C337.423 108.512 336.546 107.72 336.546 106.748C336.546 105.776 337.423 104.984 338.499 104.984C339.576 104.984 340.453 105.776 340.453 106.748C340.453 107.72 339.576 108.512 338.499 108.512Z" fill="white"/>
<path fill-rule="evenodd" clip-rule="evenodd" d="M393.987 214.352C390.757 214.352 388.125 211.975 388.125 209.061C388.125 206.146 390.757 203.768 393.987 203.768C397.215 203.768 399.848 206.146 399.848 209.061C399.848 211.975 397.215 214.352 393.987 214.352Z" fill="white"/>
<path fill-rule="evenodd" clip-rule="evenodd" d="M368.621 292.999C365.59 292.999 363.116 290.767 363.116 288.03C363.116 285.291 365.59 283.059 368.621 283.059C371.653 283.059 374.127 285.291 374.127 288.03C374.127 290.767 371.653 292.999 368.621 292.999Z" fill="white"/>
<path fill-rule="evenodd" clip-rule="evenodd" d="M379.527 366.761C376.514 366.761 374.057 364.542 374.057 361.823C374.057 359.102 376.514 356.884 379.527 356.884C382.541 356.884 384.998 359.102 384.998 361.823C384.998 364.542 382.541 366.761 379.527 366.761Z" fill="white"/>
<path fill-rule="evenodd" clip-rule="evenodd" d="M353.344 393.574C352.269 393.574 351.391 392.781 351.391 391.809C351.391 390.837 352.269 390.046 353.344 390.046C354.421 390.046 355.299 390.837 355.299 391.809C355.299 392.781 354.421 393.574 353.344 393.574Z" fill="white"/>
<path fill-rule="evenodd" clip-rule="evenodd" d="M277.929 356.177C277.068 356.177 276.366 355.543 276.366 354.766C276.366 353.99 277.068 353.355 277.929 353.355C278.79 353.355 279.492 353.99 279.492 354.766C279.492 355.543 278.79 356.177 277.929 356.177Z" fill="white"/>
<path fill-rule="evenodd" clip-rule="evenodd" d="M273.63 406.277C272.554 406.277 271.676 405.485 271.676 404.513C271.676 403.539 272.554 402.749 273.63 402.749C274.707 402.749 275.584 403.539 275.584 404.513C275.584 405.485 274.707 406.277 273.63 406.277Z" fill="white"/>
<path fill-rule="evenodd" clip-rule="evenodd" d="M233.38 434.5C229.507 434.5 226.347 431.645 226.347 428.149C226.347 424.651 229.507 421.797 233.38 421.797C237.254 421.797 240.414 424.651 240.414 428.149C240.414 431.645 237.254 434.5 233.38 434.5Z" fill="white"/>
<path fill-rule="evenodd" clip-rule="evenodd" d="M216.19 368.175C214.468 368.175 213.064 366.907 213.064 365.351C213.064 363.796 214.468 362.528 216.19 362.528C217.911 362.528 219.316 363.796 219.316 365.351C219.316 366.907 217.911 368.175 216.19 368.175Z" fill="white"/>
<path fill-rule="evenodd" clip-rule="evenodd" d="M276.122 296.643C274.696 296.643 273.533 295.593 273.533 294.305C273.533 293.017 274.696 291.967 276.122 291.967C277.547 291.967 278.711 293.017 278.711 294.305C278.711 295.593 277.547 296.643 276.122 296.643Z" fill="white"/>
<path fill-rule="evenodd" clip-rule="evenodd" d="M229.085 262.332C226.716 262.332 224.786 260.589 224.786 258.451C224.786 256.314 226.716 254.57 229.085 254.57C231.452 254.57 233.383 256.314 233.383 258.451C233.383 260.589 231.452 262.332 229.085 262.332Z" fill="white"/>
<path fill-rule="evenodd" clip-rule="evenodd" d="M185.709 366.761C184.419 366.761 183.366 365.809 183.366 364.645C183.366 363.479 184.419 362.527 185.709 362.527C187.001 362.527 188.055 363.479 188.055 364.645C188.055 365.809 187.001 366.761 185.709 366.761Z" fill="white"/>
<path fill-rule="evenodd" clip-rule="evenodd" d="M160.797 418.27C158.698 418.27 156.986 416.723 156.986 414.829C156.986 412.934 158.698 411.388 160.797 411.388C162.895 411.388 164.607 412.934 164.607 414.829C164.607 416.723 162.895 418.27 160.797 418.27Z" fill="white"/>
<path fill-rule="evenodd" clip-rule="evenodd" d="M64.1843 423.915C62.2481 423.915 60.6687 422.489 60.6687 420.738C60.6687 418.99 62.2481 417.564 64.1843 417.564C66.1229 417.564 67.7031 418.99 67.7031 420.738C67.7031 422.489 66.1229 423.915 64.1843 423.915Z" fill="white"/>
<path fill-rule="evenodd" clip-rule="evenodd" d="M98.1781 364.644C96.8865 364.644 95.8344 363.693 95.8344 362.527C95.8344 361.362 96.8865 360.411 98.1781 360.411C99.4705 360.411 100.523 361.362 100.523 362.527C100.523 363.693 99.4705 364.644 98.1781 364.644Z" fill="white"/>
<path fill-rule="evenodd" clip-rule="evenodd" d="M75.1251 333.598C72.3282 333.598 70.0452 331.538 70.0452 329.013C70.0452 326.486 72.3282 324.425 75.1251 324.425C77.9246 324.425 80.2051 326.486 80.2051 329.013C80.2051 331.538 77.9246 333.598 75.1251 333.598Z" fill="white"/>
<path fill-rule="evenodd" clip-rule="evenodd" d="M8.30291 360.412C5.29055 360.412 2.83375 358.192 2.83375 355.472C2.83375 352.751 5.29055 350.532 8.30291 350.532C11.3178 350.532 13.7754 352.751 13.7754 355.472C13.7754 358.192 11.3178 360.412 8.30291 360.412Z" fill="white"/>
<path fill-rule="evenodd" clip-rule="evenodd" d="M8.3531 409.186C6.17243 409.186 4.39428 407.583 4.39428 405.614C4.39428 403.646 6.17243 402.04 8.3531 402.04C10.5329 402.04 12.3086 403.646 12.3086 405.614C12.3086 407.583 10.5329 409.186 8.3531 409.186Z" fill="white"/>
<path fill-rule="evenodd" clip-rule="evenodd" d="M-0.295102 172.722C-2.01752 172.722 -3.42224 171.453 -3.42224 169.899C-3.42224 168.345 -2.01752 167.077 -0.295102 167.077C1.42732 167.077 2.83203 168.345 2.83203 169.899C2.83203 171.453 1.42732 172.722 -0.295102 172.722Z" fill="white"/>
<path fill-rule="evenodd" clip-rule="evenodd" d="M30.7754 258.269C30.0344 258.269 29.4323 257.723 29.4323 257.056C29.4323 256.387 30.0344 255.841 30.7754 255.841C31.5181 255.841 32.1211 256.387 32.1211 257.056C32.1211 257.723 31.5181 258.269 30.7754 258.269Z" fill="white"/>
</g>
</g>
</g>
<defs>
<filter id="filter0_i_207_24521" x="0" y="0" width="440" height="777" filterUnits="userSpaceOnUse" color-interpolation-filters="sRGB">
<feFlood flood-opacity="0" result="BackgroundImageFix"/>
<feBlend mode="normal" in="SourceGraphic" in2="BackgroundImageFix" result="shape"/>
<feColorMatrix in="SourceAlpha" type="matrix" values="0 0 0 0 0 0 0 0 0 0 0 0 0 0 0 0 0 0 127 0" result="hardAlpha"/>
<feOffset dy="8"/>
<feGaussianBlur stdDeviation="4"/>
<feComposite in2="hardAlpha" operator="arithmetic" k2="-1" k3="1"/>
<feColorMatrix type="matrix" values="0 0 0 0 0 0 0 0 0 0 0 0 0 0 0 0 0 0 0.25 0"/>
<feBlend mode="normal" in2="shape" result="effect1_innerShadow_207_24521"/>
</filter>
<linearGradient id="paint0_linear_207_24521" x1="232.376" y1="536.885" x2="232.376" y2="978.503" gradientUnits="userSpaceOnUse">
<stop offset="0.3" stop-color="#F5F5F5"/>
<stop offset="1" stop-color="white" stop-opacity="0"/>
</linearGradient>
<clipPath id="clip0_207_24521">
<path d="M0 100C0 44.7715 44.7715 0 100 0H340C395.228 0 440 44.7715 440 100V769H0V100Z" fill="white"/>
</clipPath>
<clipPath id="clip1_207_24521">
<path d="M0 100C0 44.7715 44.7715 0 100 0H340C395.228 0 440 44.7715 440 100V1668H0V100Z" fill="white"/>
</clipPath>
<clipPath id="clip2_207_24521">
<rect width="441" height="374" fill="white" transform="translate(0 268)"/>
</clipPath>
</defs>
</svg>
