<svg width="440" height="772" viewBox="0 0 440 772" fill="none" xmlns="http://www.w3.org/2000/svg">
<g opacity="0.95" filter="url(#filter0_i_207_25268)">
<g clip-path="url(#clip0_207_25268)">
<path d="M0 100C0 44.7715 44.7715 0 100 0H340C395.228 0 440 44.7715 440 100V772H0V100Z" fill="white"/>
<g opacity="0.7" filter="url(#filter1_i_207_25268)">
<g clip-path="url(#clip1_207_25268)">
<path d="M0.5 99.9999C0.5 44.7714 45.2715 0 100.5 0H340.5C395.728 0 440.5 44.7715 440.5 100V3510.03H0.5V99.9999Z" fill="#DBE2E7"/>
<g clip-path="url(#clip2_207_25268)">
<path d="M142.751 329.666C136.854 329.671 130.989 330.538 125.344 332.241C125.387 331.377 125.473 330.539 125.473 329.666C125.465 317.117 120.903 304.997 112.634 295.557C104.365 286.118 92.9513 280 80.5124 278.339C68.0735 276.679 55.4547 279.589 44.9995 286.53C34.5442 293.471 26.963 303.97 23.6638 316.077C17.576 313.649 11.0829 312.397 4.52864 312.388C-9.21841 312.388 -22.4024 317.849 -32.1231 327.57C-41.8437 337.291 -47.3047 350.475 -47.3047 364.222C-47.3047 377.969 -41.8437 391.153 -32.1231 400.874C-22.4024 410.594 -9.21841 416.055 4.52864 416.055C15.9017 416.045 26.9557 412.294 35.9868 405.382C45.018 398.469 51.5249 388.778 54.5046 377.802C60.5918 380.233 67.085 381.488 73.6397 381.5C76.8793 381.5 80.0325 381.163 83.108 380.601C82.6069 383.711 82.2786 386.882 82.2786 390.138C82.2786 423.528 109.362 450.611 142.751 450.611C176.14 450.611 203.223 423.528 203.223 390.138C203.223 374.1 196.852 358.719 185.511 347.378C174.17 336.037 158.789 329.666 142.751 329.666Z" fill="#CCD6DD"/>
<path d="M177.306 450.611C173.272 450.611 169.444 451.345 165.738 452.373C167.604 447.829 168.667 442.87 168.667 437.652C168.667 427.342 164.571 417.454 157.281 410.163C149.99 402.873 140.102 398.777 129.792 398.777C121.353 398.802 113.155 401.598 106.458 406.734C103.419 394.599 96.4154 383.826 86.5573 376.124C76.6992 368.423 64.5518 364.234 52.042 364.222C40.4012 364.232 29.0511 367.859 19.5623 374.602C10.0734 381.346 2.91486 390.871 -0.923035 401.861C-10.4256 398.923 -20.4503 398.071 -30.3125 399.362C-40.1747 400.654 -49.6419 404.059 -58.0674 409.345C-66.4928 414.631 -73.678 421.674 -79.1322 429.991C-84.5863 438.309 -88.1808 447.706 -89.6701 457.54C-91.1594 467.374 -90.5084 477.414 -87.7617 486.974C-85.0149 496.533 -80.2371 505.387 -73.7546 512.931C-67.2721 520.475 -59.2376 526.531 -50.2001 530.684C-41.1626 534.838 -31.335 536.992 -21.3886 536.999H177.306C201.167 536.999 220.5 517.666 220.5 493.805C220.5 469.944 201.167 450.611 177.306 450.611Z" fill="#E1E8ED"/>
</g>
<g clip-path="url(#clip3_207_25268)">
<path d="M308.249 295.111C314.146 295.116 320.011 295.983 325.656 297.685C325.613 296.822 325.527 295.984 325.527 295.111C325.535 282.562 330.097 270.442 338.366 261.002C346.635 251.563 358.049 245.445 370.488 243.784C382.927 242.124 395.545 245.034 406.001 251.975C416.456 258.915 424.037 269.414 427.336 281.522C433.424 279.094 439.917 277.842 446.471 277.833C460.218 277.833 473.402 283.294 483.123 293.015C492.844 302.736 498.305 315.92 498.305 329.667C498.305 343.414 492.844 356.598 483.123 366.318C473.402 376.039 460.218 381.5 446.471 381.5C435.098 381.49 424.044 377.739 415.013 370.827C405.982 363.914 399.475 354.223 396.495 343.247C390.408 345.678 383.915 346.933 377.36 346.944C374.121 346.944 370.967 346.607 367.892 346.046C368.393 349.156 368.721 352.326 368.721 355.583C368.721 388.973 341.638 416.056 308.249 416.056C274.86 416.056 247.777 388.973 247.777 355.583C247.777 339.545 254.148 324.164 265.489 312.823C276.83 301.482 292.211 295.111 308.249 295.111Z" fill="#CCD6DD"/>
<path d="M273.694 416.056C277.728 416.056 281.556 416.79 285.262 417.818C283.396 413.274 282.333 408.315 282.333 403.098C282.333 392.787 286.429 382.899 293.719 375.609C301.01 368.318 310.898 364.223 321.208 364.223C329.647 364.248 337.845 367.043 344.542 372.179C347.581 360.044 354.585 349.271 364.443 341.57C374.301 333.868 386.448 329.679 398.958 329.667C410.599 329.677 421.949 333.305 431.438 340.048C440.927 346.791 448.085 356.317 451.923 367.307C461.426 364.369 471.45 363.516 481.313 364.808C491.175 366.099 500.642 369.504 509.067 374.79C517.493 380.076 524.678 387.119 530.132 395.437C535.586 403.754 539.181 413.151 540.67 422.985C542.159 432.82 541.508 442.859 538.762 452.419C536.015 461.979 531.237 470.833 524.755 478.377C518.272 485.92 510.238 491.976 501.2 496.13C492.163 500.283 482.335 502.438 472.389 502.445H273.694C249.833 502.445 230.5 483.111 230.5 459.25C230.5 435.39 249.833 416.056 273.694 416.056Z" fill="#E1E8ED"/>
</g>
<g clip-path="url(#clip4_207_25268)">
<path d="M147.278 364.562V379.141H138.285V387.94H130.742V406.038H128.011L125.443 416.219V426.399H114.521V429.666H111.954V442.486H106.655V438.842H85.7806V442.486H83.2103V423.508L79.8366 418.858H55.4302V427.279H49.1688V430.881H37.4455V411.819L29.0974 409.306H18.4994V411.819H9.82641V439.344H0.5V525.312H441.5V430.881H438.24V404.278H427.001V400.508H420.578V397.617H405.804V400.508H395.368V404.278H390.709V425.268H387.821L380.433 430.881V444.749H377.865L372.726 452.038V461.904H368.795V466.618H363.894V462.218H352.172V456.06H347.676V466.618H339.331V453.295H336.116V445.502L328.251 441.606H323.269V430.881H317.006V428.661H306.409L301.43 430.881V445.502H296.291V458.071H292.116V454.677H277.827V458.071H274.378V446.823L271.242 439.47H266.751V438.276H261.451V439.47H257.432V436.956L251.254 435.259H232.146V436.956H226.281V439.47H222.911V430.881H215.203V439.47H208.939V446.257H206.693V456.06H203.642V439.092H198.986V432.557L194.809 426.399H181.804V413.453L177.469 404.153H175.702V383.164H173.613V379.141H162.052V364.562H147.278Z" fill="#D5E5F4"/>
<path d="M147.278 366.131V380.71H138.285V389.508H130.742V407.606H128.011L125.443 417.787V427.967H114.521V431.235H111.954V444.055H106.655V440.41H85.7806V444.055H83.2103V425.076L79.8366 420.426H55.4302V428.847H49.1688V432.45H37.4455V413.388L29.0974 410.875H18.4994V413.388H9.82641V440.913H0.5V526.881H441.5V432.45H438.24V405.847H427.001V402.077H420.578V399.185H405.804V402.077H395.368V405.847H390.709V426.836H387.821L380.433 432.45V446.317H377.865L372.726 453.607V463.473H368.795V468.186H363.894V463.787H352.172V457.628H347.676V468.186H339.331V454.863H336.116V447.071L328.251 443.174H323.269V432.45H317.006V430.23H306.409L301.43 432.45V447.071H296.291V459.64H292.116V456.246H277.827V459.64H274.378V448.39L271.242 441.039H266.751V439.844H261.451V441.039H257.432V438.525L251.254 436.828H232.146V438.525H226.281V441.039H222.911V432.45H215.203V441.039H208.939V447.825H206.693V457.628H203.642V440.661H198.986V434.126L194.809 427.967H181.804V415.021L177.469 405.722H175.702V384.732H173.613V380.71H162.052V366.131H147.278Z" fill="#7199C9"/>
<path d="M329.684 435.889V448.708H325.416V450.719H318.756V458.26H315.684L312.099 467.938V483.901H305.27V476.987L303.562 462.659H297.244V476.987H295.708V483.901H290.072V495.211H285.805V505.517H281.195V475.604H273.682V462.282L267.706 453.735H261.388V462.282H258.658V441.795H241.584V462.282H234.753L227.838 470.263V487.922H207.264V465.927L204.02 461.277H197.106V451.41H182.679V456.312H179.776V452.918H172.092L167.995 456.312V461.277H160.995V490.875H156.385V508.534H150.58V486.476H146.653V477.867L139.993 468.001H121.383V477.867H114.383V471.142H102.602V477.867H94.7483V503.444H82.1129V514.064H76.3079V487.922L72.3808 477.929H67.7709V472.022H54.6239V487.922H51.0386V495.61H35.8432V503.004H25.5995V489.618L22.3552 485.408H13.4772V473.153H4.76887V485.408H0.5V605.498H441.501V482.392H435.372V473.342H417.615V482.392H406.174V462.282H396.784V458.135L394.224 455.495H373.052V458.135H366.393L363.148 462.282V490.058H356.662V507.025H348.806V450.719L343.515 448.708H337.026V435.889H329.684Z" fill="#D5E5F4"/>
<path d="M329.684 437.459V450.278H325.416V452.29H318.756V459.83H315.684L312.099 469.508V485.47H305.27V478.557L303.562 464.229H297.244V478.557H295.708V485.47H290.072V496.782H285.805V507.087H281.195V477.175H273.682V463.852L267.706 455.305H261.388V463.852H258.658V443.365H241.584V463.852H234.753L227.838 471.834V489.492H207.264V467.497L204.02 462.847H197.106V452.98H182.679V457.882H179.776V454.489H172.092L167.995 457.882V462.847H160.995V492.445H156.385V510.104H150.58V488.047H146.653V479.438L139.993 469.571H121.383V479.438H114.383V472.713H102.602V479.438H94.7483V505.013H82.1129V515.634H76.3079V489.492L72.3808 479.5H67.7709V473.593H54.6239V489.492H51.0386V497.181H35.8432V504.574H25.5995V491.188L22.3552 486.978H13.4772V474.724H4.76887V486.978H0.5V607.069H441.501V483.962H435.372V474.913H417.615V483.962H406.174V463.852H396.784V459.705L394.224 457.066H373.052V459.705H366.393L363.148 463.852V491.629H356.662V508.595H348.806V452.29L343.515 450.278H337.026V437.459H329.684Z" fill="#5173A2"/>
</g>
</g>
</g>
<path d="M113.696 536.885C160.564 536.885 202.643 557.385 231.457 589.907H275.885C296.138 566.084 326.325 550.969 360.044 550.969C421.025 550.969 470.46 600.403 470.46 661.384C470.46 691.122 458.702 718.113 439.584 737.965V978.503H-0.416016V802.396C-27.1679 774.199 -43.582 736.099 -43.582 694.163C-43.582 607.301 26.8339 536.885 113.696 536.885Z" fill="url(#paint0_linear_207_25268)"/>
</g>
</g>
<defs>
<filter id="filter0_i_207_25268" x="0" y="0" width="440" height="780" filterUnits="userSpaceOnUse" color-interpolation-filters="sRGB">
<feFlood flood-opacity="0" result="BackgroundImageFix"/>
<feBlend mode="normal" in="SourceGraphic" in2="BackgroundImageFix" result="shape"/>
<feColorMatrix in="SourceAlpha" type="matrix" values="0 0 0 0 0 0 0 0 0 0 0 0 0 0 0 0 0 0 127 0" result="hardAlpha"/>
<feOffset dy="8"/>
<feGaussianBlur stdDeviation="4"/>
<feComposite in2="hardAlpha" operator="arithmetic" k2="-1" k3="1"/>
<feColorMatrix type="matrix" values="0 0 0 0 0 0 0 0 0 0 0 0 0 0 0 0 0 0 0.25 0"/>
<feBlend mode="normal" in2="shape" result="effect1_innerShadow_207_25268"/>
</filter>
<filter id="filter1_i_207_25268" x="0" y="0" width="440" height="3080" filterUnits="userSpaceOnUse" color-interpolation-filters="sRGB">
<feFlood flood-opacity="0" result="BackgroundImageFix"/>
<feBlend mode="normal" in="SourceGraphic" in2="BackgroundImageFix" result="shape"/>
<feColorMatrix in="SourceAlpha" type="matrix" values="0 0 0 0 0 0 0 0 0 0 0 0 0 0 0 0 0 0 127 0" result="hardAlpha"/>
<feOffset dy="4"/>
<feGaussianBlur stdDeviation="2"/>
<feComposite in2="hardAlpha" operator="arithmetic" k2="-1" k3="1"/>
<feColorMatrix type="matrix" values="0 0 0 0 0 0 0 0 0 0 0 0 0 0 0 0 0 0 0.25 0"/>
<feBlend mode="normal" in2="shape" result="effect1_innerShadow_207_25268"/>
</filter>
<linearGradient id="paint0_linear_207_25268" x1="232.375" y1="536.885" x2="232.375" y2="978.503" gradientUnits="userSpaceOnUse">
<stop offset="0.3" stop-color="#67778E"/>
<stop offset="1" stop-color="white" stop-opacity="0"/>
</linearGradient>
<clipPath id="clip0_207_25268">
<path d="M0 100C0 44.7715 44.7715 0 100 0H340C395.228 0 440 44.7715 440 100V772H0V100Z" fill="white"/>
</clipPath>
<clipPath id="clip1_207_25268">
<path d="M0 100C0 44.7715 44.7715 0 100 0H340C395.228 0 440 44.7715 440 100V3076H0V100Z" fill="white"/>
</clipPath>
<clipPath id="clip2_207_25268">
<rect width="311" height="311" fill="white" transform="translate(-90.5 260.555)"/>
</clipPath>
<clipPath id="clip3_207_25268">
<rect width="311" height="311" fill="white" transform="matrix(-1 0 0 1 541.5 226)"/>
</clipPath>
<clipPath id="clip4_207_25268">
<rect width="441" height="321" fill="white" transform="translate(0.5 318.556)"/>
</clipPath>
</defs>
</svg>
