<svg width="1463" height="823" viewBox="0 0 1463 823" fill="none" xmlns="http://www.w3.org/2000/svg">
<g clip-path="url(#clip0_490_19586)">
<rect width="1463" height="823" fill="white"/>
<g filter="url(#filter0_f_490_19586)">
<g clip-path="url(#clip1_490_19586)">
<path d="M0 1068H1068V0.0908203H0V1068Z" fill="#A3C3E9"/>
<path d="M355.464 153.067V201.574H333.686V230.848H315.418V291.062H308.805L302.584 324.934V358.803H276.135V369.676H269.918V412.328H257.086V400.203H206.532V412.328H200.307V349.186L192.137 333.714H133.03V361.733H117.866V373.718H89.4754V310.295L69.2582 301.934H43.5924V310.295H22.5884V401.876H0.00195312V687.9H1068V373.718H1060.11V285.207H1032.89V272.662H1017.33V263.043H981.554V272.662H956.28V285.207H944.999V355.04H938.003L920.111 373.718V419.857H913.893L901.447 444.11V476.935H891.928V492.617H880.059V477.98H851.67V457.49H840.781V492.617H820.571V448.291H812.786V422.364L793.74 409.4H781.673V373.718H766.507V366.331H740.843L728.786 373.718V422.364H716.34V464.181H706.229V452.889H671.623V464.181H663.271V426.757L655.677 402.292H644.8V398.321H631.966V402.292H622.233V393.93L607.27 388.282H560.994V393.93H546.791V402.292H538.63V373.718H519.963V402.292H504.794V424.873H499.354V457.49H491.965V401.037H480.689V379.293L470.573 358.803H439.078V315.733L428.58 284.791H424.301V214.956H419.242V201.574H391.244V153.067H355.464Z" fill="#D5E5F4"/>
<path d="M355.464 158.288V206.795H333.686V236.065H315.418V296.281H308.805L302.584 330.153V364.024H276.135V374.897H269.918V417.549H257.086V405.422H206.532V417.549H200.307V354.405L192.137 338.933H133.03V366.951H117.866V378.939H89.4754V315.517L69.2582 307.155H43.5924V315.517H22.5884V407.095H0.00195312V693.12H1068V378.939H1060.11V290.427H1032.89V277.883H1017.33V268.264H981.554V277.883H956.28V290.427H944.999V360.26H938.003L920.111 378.939V425.075H913.893L901.447 449.329V482.154H891.928V497.836H880.059V483.199H851.67V462.709H840.781V497.836H820.571V453.51H812.786V427.583L793.74 414.619H781.673V378.939H766.507V371.552H740.843L728.786 378.939V427.583H716.34V469.402H706.229V458.11H671.623V469.402H663.271V431.974L655.677 407.513H644.8V403.539H631.966V407.513H622.233V399.149L607.27 393.503H560.994V399.149H546.791V407.513H538.63V378.939H519.963V407.513H504.794V430.093H499.354V462.709H491.965V406.258H480.689V384.514L470.573 364.024H439.078V320.952L428.58 290.01H424.301V220.175H419.242V206.795H391.244V158.288H355.464Z" fill="#7199C9"/>
<path d="M797.209 390.379V433.032H786.872V439.723H770.744V464.812H763.303L754.62 497.01V550.12H738.082V527.117L733.946 479.447H718.647V527.117H714.925V550.12H701.277V587.751H690.943V622.041H679.778V522.518H661.583V478.194L647.112 449.757H631.811V478.194H625.2V410.031H583.849V478.194H567.307L550.561 504.748V563.499H500.735V490.319L492.878 474.849H476.134V442.021H441.194V458.329H434.165V447.039H415.557L405.635 458.329V474.849H388.681V573.324H377.517V632.077H363.458V558.689H353.948V530.047L337.819 497.22H292.749V530.047H275.799V507.672H247.267V530.047H228.248V615.142H197.648V650.477H183.589V563.499L174.079 530.254H162.914V510.601H131.076V563.499H122.393V589.079H85.5931V613.679H60.7852V569.143L52.9283 555.136H31.4277V514.363H10.3382V555.136H0V954.688H1068V545.101H1053.16V514.992H1010.16V545.101H982.448V478.194H959.708V464.395L953.509 455.613H902.234V464.395H886.107L878.248 478.194V570.608H862.542V627.059H843.517V439.723L830.703 433.032H814.989V390.379H797.209Z" fill="#D5E5F4"/>
<path d="M797.209 395.602V438.254H786.872V444.945H770.744V470.034H763.303L754.62 502.233V555.341H738.082V532.34L733.946 484.668H718.647V532.34H714.925V555.341H701.277V592.975H690.943V627.264H679.778V527.74H661.583V483.416L647.112 454.979H631.811V483.416H625.2V415.253H583.849V483.416H567.307L550.561 509.971V568.721H500.735V495.542L492.878 480.07H476.134V447.243H441.194V463.552H434.165V452.263H415.557L405.635 463.552V480.07H388.681V578.547H377.517V637.301H363.458V563.913H353.948V535.27L337.819 502.443H292.749V535.27H275.799V512.895H247.267V535.27H228.248V620.363H197.648V655.697H183.589V568.721L174.079 535.476H162.914V515.823H131.076V568.721H122.393V594.303H85.5931V618.901H60.7852V574.366L52.9283 560.359H31.4277V519.586H10.3382V560.359H0V959.914H1068V550.321H1053.16V520.214H1010.16V550.321H982.448V483.416H959.708V469.618L953.509 460.835H902.234V469.618H886.107L878.248 483.416V575.831H862.542V632.28H843.517V444.945L830.703 438.254H814.989V395.602H797.209Z" fill="#5173A2"/>
</g>
<rect width="1512" height="982" fill="url(#paint0_linear_490_19586)"/>
</g>
</g>
<defs>
<filter id="filter0_f_490_19586" x="-8" y="-8" width="1528" height="1084" filterUnits="userSpaceOnUse" color-interpolation-filters="sRGB">
<feFlood flood-opacity="0" result="BackgroundImageFix"/>
<feBlend mode="normal" in="SourceGraphic" in2="BackgroundImageFix" result="shape"/>
<feGaussianBlur stdDeviation="4" result="effect1_foregroundBlur_490_19586"/>
</filter>
<linearGradient id="paint0_linear_490_19586" x1="0" y1="491" x2="1512" y2="491" gradientUnits="userSpaceOnUse">
<stop stop-color="#2A4061" stop-opacity="0"/>
<stop offset="0.596154" stop-color="#2A4061"/>
</linearGradient>
<clipPath id="clip0_490_19586">
<rect width="1463" height="823" fill="white"/>
</clipPath>
<clipPath id="clip1_490_19586">
<rect width="1068" height="1068" fill="white"/>
</clipPath>
</defs>
</svg>
