<svg width="440" height="1668" viewBox="0 0 440 1668" fill="none" xmlns="http://www.w3.org/2000/svg">
<g clip-path="url(#clip0_207_11417)">
<path d="M0 100C0 44.7715 44.7715 0 100 0H340C395.228 0 440 44.7715 440 100V1668H0V100Z" fill="white"/>
<g opacity="0.7">
<g clip-path="url(#clip1_207_11417)">
<path d="M0 99.9999C0 44.7715 44.7715 0 100 0H340C395.228 0 440 44.7715 440 100V2826.82H0V99.9999Z" fill="#BCD2ED"/>
<g clip-path="url(#clip2_207_11417)">
<path d="M0 576H441V1.60986H0V576Z" fill="#BCD2ED"/>
<path d="M146.778 301.006V315.586H137.785V324.384H130.242V342.482H127.511L124.943 352.663V362.843H114.021V366.111H111.454V378.93H106.155V375.286H85.2806V378.93H82.7103V359.952L79.3366 355.302H54.9302V363.723H48.6688V367.326H36.9455V348.263L28.5974 345.75H17.9994V348.263H9.32641V375.789H0V461.757H441V367.326H437.74V340.723H426.501V336.952H420.078V334.061H405.304V336.952H394.868V340.723H390.209V361.712H387.321L379.933 367.326V381.193H377.365L372.226 388.483V398.349H368.295V403.062H363.394V398.663H351.672V392.504H347.176V403.062H338.831V389.739H335.616V381.947L327.751 378.05H322.769V367.326H316.506V365.105H305.909L300.93 367.326V381.947H295.791V394.515H291.616V391.121H277.327V394.515H273.878V383.267L270.742 375.914H266.251V374.72H260.951V375.914H256.932V373.401L250.754 371.703H231.646V373.401H225.781V375.914H222.411V367.326H214.703V375.914H208.439V382.701H206.193V392.504H203.142V375.537H198.486V369.001L194.309 362.843H181.304V349.897L176.969 340.598H175.202V319.608H173.113V315.586H161.552V301.006H146.778Z" fill="white"/>
<path d="M146.778 302.575V317.155H137.785V325.952H130.242V344.051H127.511L124.943 354.231V364.412H114.021V367.68H111.454V380.499H106.155V376.854H85.2806V380.499H82.7103V361.521L79.3366 356.87H54.9302V365.291H48.6688V368.894H36.9455V349.832L28.5974 347.319H17.9994V349.832H9.32641V377.357H0V463.325H441V368.894H437.74V342.291H426.501V338.521H420.078V335.63H405.304V338.521H394.868V342.291H390.209V363.28H387.321L379.933 368.894V382.761H377.365L372.226 390.051V399.917H368.295V404.63H363.394V400.231H351.672V394.073H347.176V404.63H338.831V391.308H335.616V383.515L327.751 379.619H322.769V368.894H316.506V366.674H305.909L300.93 368.894V383.515H295.791V396.084H291.616V392.69H277.327V396.084H273.878V384.835L270.742 377.483H266.251V376.288H260.951V377.483H256.932V374.969L250.754 373.272H231.646V374.969H225.781V377.483H222.411V368.894H214.703V377.483H208.439V384.269H206.193V394.073H203.142V377.106H198.486V370.57L194.309 364.412H181.304V351.466L176.969 342.166H175.202V321.176H173.113V317.155H161.552V302.575H146.778Z" fill="#99B5D6"/>
<path d="M329.184 372.333V385.153H324.916V387.164H318.256V394.704H315.184L311.599 404.382V420.345H304.77V413.431L303.062 399.103H296.744V413.431H295.208V420.345H289.572V431.655H285.305V441.962H280.695V412.049H273.182V398.727L267.206 390.179H260.888V398.727H258.158V378.239H241.084V398.727H234.253L227.338 406.708V424.366H206.764V402.371L203.52 397.721H196.606V387.854H182.179V392.756H179.276V389.363H171.592L167.495 392.756V397.721H160.495V427.319H155.885V444.978H150.08V422.92H146.153V414.312L139.493 404.445H120.883V414.312H113.883V407.587H102.102V414.312H94.2483V439.888H81.6129V450.508H75.8079V424.366L71.8808 414.374H67.2709V408.467H54.1239V424.366H50.5386V432.054H35.3432V439.448H25.0995V426.062L21.8552 421.853H12.9772V409.598H4.26887V421.853H0V541.942H441.001V418.836H434.872V409.787H417.115V418.836H405.674V398.727H396.284V394.579L393.724 391.94H372.552V394.579H365.893L362.648 398.727V426.503H356.162V443.47H348.306V387.164L343.015 385.153H336.526V372.333H329.184Z" fill="white"/>
<path d="M329.184 373.903V386.723H324.916V388.734H318.256V396.275H315.184L311.599 405.952V421.915H304.77V415.001L303.062 400.673H296.744V415.001H295.208V421.915H289.572V433.226H285.305V443.532H280.695V413.619H273.182V400.297L267.206 391.75H260.888V400.297H258.158V379.81H241.084V400.297H234.253L227.338 408.278V425.936H206.764V403.941L203.52 399.291H196.606V389.425H182.179V394.326H179.276V390.933H171.592L167.495 394.326V399.291H160.495V428.889H155.885V446.549H150.08V424.491H146.153V415.882L139.493 406.015H120.883V415.882H113.883V409.157H102.102V415.882H94.2483V441.458H81.6129V452.078H75.8079V425.936L71.8808 415.944H67.2709V410.037H54.1239V425.936H50.5386V433.625H35.3432V441.018H25.0995V427.633L21.8552 423.423H12.9772V411.168H4.26887V423.423H0V543.514H441.001V420.406H434.872V411.357H417.115V420.406H405.674V400.297H396.284V396.15L393.724 393.51H372.552V396.15H365.893L362.648 400.297V428.073H356.162V445.039H348.306V388.734L343.015 386.723H336.526V373.903H329.184Z" fill="#839ABB"/>
<mask id="mask0_207_11417" style="mask-type:luminance" maskUnits="userSpaceOnUse" x="0" y="1" width="441" height="575">
<path d="M0 1.60986H441V576H0V1.60986Z" fill="white"/>
</mask>
<g mask="url(#mask0_207_11417)">
<path fill-rule="evenodd" clip-rule="evenodd" d="M0.152145 453.295H21.5627V479.061H42.9732V460.509H47.6361V445.694H51.6065V431.523H54.7149V445.694H56.6141L65.7656 460.509V488.852H72.6724V472.362H78.889V461.411H84.5867L89.2488 472.362V488.852H95.9829V476.356H104.098L107.897 488.852V497.097H113.422V492.33H120.847V497.097H124.473V471.331H132.243V458.577H143.294V471.331H149.337V448.657L162.46 440.413H171.439V424.437H185.943L199.757 440.413V448.657H208.736V492.974H228.074V469.784H233.601V463.087H241.025V469.784H248.795V446.595H258.81V425.468H267.443V399.444H282.637V425.468H289.544V446.595H294.378V485.76H310.264V472.876H321.315V462.571L329.431 449.56H335.301V435.774H343.244V449.56H347.387V462.571H357.23V472.876H368.97V429.075H375.878V420.315H381.057L386.237 429.075V446.081H390.38V472.876H399.36V465.92L416.281 443.504H435.274V465.92H442.28V575.186H0C0 517.286 0.152145 511.109 0.152145 453.295Z" fill="white"/>
<path fill-rule="evenodd" clip-rule="evenodd" d="M0.152145 455.069H21.5627V480.834H42.9732V462.283H47.6361V447.468H51.6065V433.297H54.7149V447.468H56.6141L65.7656 462.283V490.626H72.6724V474.136H78.889V463.185H84.5867L89.2488 474.136V490.626H95.9829V478.129H104.098L107.897 490.626V498.87H113.422V494.104H120.847V498.87H124.473V473.105H132.243V460.351H143.294V473.105H149.337V450.43L162.46 442.186H171.439V426.211H185.943L199.757 442.186V450.43H208.736V494.747H228.074V471.558H233.601V464.86H241.025V471.558H248.795V448.369H258.81V427.241H267.443V401.218H282.637V427.241H289.544V448.369H294.378V487.533H310.264V474.651H321.315V464.344L329.431 451.333H335.301V437.548H343.244V451.333H347.387V464.344H357.23V474.651H368.97V430.849H375.878V422.088H381.057L386.237 430.849V447.854H390.38V474.651H399.36V467.694L416.281 445.277H435.274V467.694H442.28V576.959H0C0 519.06 0.152145 512.883 0.152145 455.069Z" fill="#67778E"/>
<path fill-rule="evenodd" clip-rule="evenodd" d="M61.2988 281.281C62.2499 281.281 63.0253 280.703 63.0253 279.994C63.0253 279.284 62.2499 278.705 61.2988 278.705C60.3477 278.705 59.5723 279.284 59.5723 279.994C59.5723 280.703 60.3477 281.281 61.2988 281.281Z" fill="white"/>
<path fill-rule="evenodd" clip-rule="evenodd" d="M87.1989 293.134C88.3396 293.134 89.2709 292.439 89.2709 291.587C89.2709 290.736 88.3396 290.042 87.1989 290.042C86.0582 290.042 85.127 290.736 85.127 291.587C85.127 292.439 86.0582 293.134 87.1989 293.134Z" fill="white"/>
<path fill-rule="evenodd" clip-rule="evenodd" d="M130.021 278.189C131.162 278.189 132.093 277.495 132.093 276.644C132.093 275.792 131.162 275.098 130.021 275.098C128.88 275.098 127.949 275.792 127.949 276.644C127.949 277.495 128.88 278.189 130.021 278.189Z" fill="white"/>
<path fill-rule="evenodd" clip-rule="evenodd" d="M197.363 287.465C198.695 287.465 199.78 286.654 199.78 285.661C199.78 284.668 198.695 283.858 197.363 283.858C196.032 283.858 194.945 284.668 194.945 285.661C194.945 286.654 196.032 287.465 197.363 287.465Z" fill="white"/>
<path fill-rule="evenodd" clip-rule="evenodd" d="M242.946 304.471C244.657 304.471 246.054 303.429 246.054 302.152C246.054 300.874 244.657 299.833 242.946 299.833C241.234 299.833 239.838 300.874 239.838 302.152C239.838 303.429 241.234 304.471 242.946 304.471Z" fill="white"/>
<path fill-rule="evenodd" clip-rule="evenodd" d="M280.933 312.716C281.502 312.716 281.968 312.369 281.968 311.943C281.968 311.517 281.502 311.17 280.933 311.17C280.362 311.17 279.896 311.517 279.896 311.943C279.896 312.369 280.362 312.716 280.933 312.716Z" fill="white"/>
<path fill-rule="evenodd" clip-rule="evenodd" d="M325.136 329.205C326.467 329.205 327.554 328.395 327.554 327.402C327.554 326.408 326.467 325.598 325.136 325.598C323.804 325.598 322.719 326.408 322.719 327.402C322.719 328.395 323.804 329.205 325.136 329.205Z" fill="white"/>
<path fill-rule="evenodd" clip-rule="evenodd" d="M363.813 280.251C364.764 280.251 365.54 279.672 365.54 278.963C365.54 278.254 364.764 277.675 363.813 277.675C362.862 277.675 362.086 278.254 362.086 278.963C362.086 279.672 362.862 280.251 363.813 280.251Z" fill="white"/>
<path fill-rule="evenodd" clip-rule="evenodd" d="M284.732 278.189C286.255 278.189 287.496 277.263 287.496 276.128C287.496 274.992 286.255 274.067 284.732 274.067C283.212 274.067 281.969 274.992 281.969 276.128C281.969 277.263 283.212 278.189 284.732 278.189Z" fill="white"/>
<path fill-rule="evenodd" clip-rule="evenodd" d="M315.122 300.863C317.784 300.863 319.956 299.243 319.956 297.257C319.956 295.269 317.784 293.649 315.122 293.649C312.459 293.649 310.287 295.269 310.287 297.257C310.287 299.243 312.459 300.863 315.122 300.863Z" fill="white"/>
<path fill-rule="evenodd" clip-rule="evenodd" d="M370.375 315.807C371.896 315.807 373.138 314.881 373.138 313.746C373.138 312.61 371.896 311.684 370.375 311.684C368.855 311.684 367.613 312.61 367.613 313.746C367.613 314.881 368.855 315.807 370.375 315.807Z" fill="white"/>
<path fill-rule="evenodd" clip-rule="evenodd" d="M383.498 343.119C384.26 343.119 384.88 342.656 384.88 342.089C384.88 341.521 384.26 341.058 383.498 341.058C382.738 341.058 382.117 341.521 382.117 342.089C382.117 342.656 382.738 343.119 383.498 343.119Z" fill="white"/>
<path fill-rule="evenodd" clip-rule="evenodd" d="M309.25 349.304C310.201 349.304 310.977 348.725 310.977 348.015C310.977 347.305 310.201 346.727 309.25 346.727C308.299 346.727 307.523 347.305 307.523 348.015C307.523 348.725 308.299 349.304 309.25 349.304Z" fill="white"/>
<path fill-rule="evenodd" clip-rule="evenodd" d="M288.875 368.885C290.777 368.885 292.328 367.728 292.328 366.308C292.328 364.89 290.777 363.732 288.875 363.732C286.973 363.732 285.422 364.89 285.422 366.308C285.422 367.728 286.973 368.885 288.875 368.885Z" fill="white"/>
<path fill-rule="evenodd" clip-rule="evenodd" d="M266.428 468.341C268.14 468.341 269.535 467.299 269.535 466.022C269.535 464.745 268.14 463.704 266.428 463.704C264.717 463.704 263.32 464.745 263.32 466.022C263.32 467.299 264.717 468.341 266.428 468.341Z" fill="white"/>
<path fill-rule="evenodd" clip-rule="evenodd" d="M270.573 496.168C271.143 496.168 271.609 495.821 271.609 495.396C271.609 494.97 271.143 494.623 270.573 494.623C270.003 494.623 269.537 494.97 269.537 495.396C269.537 495.821 270.003 496.168 270.573 496.168Z" fill="white"/>
<path fill-rule="evenodd" clip-rule="evenodd" d="M309.942 525.025C310.893 525.025 311.668 524.446 311.668 523.737C311.668 523.027 310.893 522.449 309.942 522.449C308.989 522.449 308.213 523.027 308.213 523.737C308.213 524.446 308.989 525.025 309.942 525.025Z" fill="white"/>
<path fill-rule="evenodd" clip-rule="evenodd" d="M378.662 514.72C379.422 514.72 380.043 514.257 380.043 513.69C380.043 513.121 379.422 512.658 378.662 512.658C377.9 512.658 377.281 513.121 377.281 513.69C377.281 514.257 377.9 514.72 378.662 514.72Z" fill="white"/>
<path fill-rule="evenodd" clip-rule="evenodd" d="M253.306 414.233C255.778 414.233 257.794 412.729 257.794 410.884C257.794 409.039 255.778 407.534 253.306 407.534C250.833 407.534 248.816 409.039 248.816 410.884C248.816 412.729 250.833 414.233 253.306 414.233Z" fill="white"/>
<path fill-rule="evenodd" clip-rule="evenodd" d="M192.937 400.319C194.958 400.319 196.606 399.09 196.606 397.582C196.606 396.074 194.958 394.844 192.937 394.844C190.915 394.844 189.268 396.074 189.268 397.582C189.268 399.09 190.915 400.319 192.937 400.319Z" fill="white"/>
<path fill-rule="evenodd" clip-rule="evenodd" d="M95.8331 360.64C98.3057 360.64 100.323 359.135 100.323 357.29C100.323 355.445 98.3057 353.941 95.8331 353.941C93.3606 353.941 91.3438 355.445 91.3438 357.29C91.3438 359.135 93.3606 360.64 95.8331 360.64Z" fill="white"/>
<path fill-rule="evenodd" clip-rule="evenodd" d="M49.9034 338.481C53.327 338.481 56.1193 336.398 56.1193 333.844C56.1193 331.289 53.327 329.206 49.9034 329.206C46.4798 329.206 43.6875 331.289 43.6875 333.844C43.6875 336.398 46.4798 338.481 49.9034 338.481Z" fill="white"/>
<path fill-rule="evenodd" clip-rule="evenodd" d="M147.634 346.727C149.346 346.727 150.741 345.685 150.741 344.407C150.741 343.13 149.346 342.089 147.634 342.089C145.922 342.089 144.525 343.13 144.525 344.407C144.525 345.685 145.922 346.727 147.634 346.727Z" fill="white"/>
<path fill-rule="evenodd" clip-rule="evenodd" d="M193.562 354.972C196.226 354.972 198.397 353.352 198.397 351.364C198.397 349.378 196.226 347.757 193.562 347.757C190.9 347.757 188.729 349.378 188.729 351.364C188.729 353.352 190.9 354.972 193.562 354.972Z" fill="white"/>
<path fill-rule="evenodd" clip-rule="evenodd" d="M247.435 339.512C249.338 339.512 250.889 338.354 250.889 336.935C250.889 335.516 249.338 334.358 247.435 334.358C245.533 334.358 243.982 335.516 243.982 336.935C243.982 338.354 245.533 339.512 247.435 339.512Z" fill="white"/>
<path fill-rule="evenodd" clip-rule="evenodd" d="M253.176 368.174C256.716 368.174 259.606 366.019 259.606 363.376C259.606 360.733 256.716 358.579 253.176 358.579C249.634 358.579 246.746 360.733 246.746 363.376C246.746 366.019 249.634 368.174 253.176 368.174Z" fill="white"/>
<path fill-rule="evenodd" clip-rule="evenodd" d="M365.539 366.824C367.441 366.824 368.992 365.667 368.992 364.247C368.992 362.828 367.441 361.671 365.539 361.671C363.637 361.671 362.086 362.828 362.086 364.247C362.086 365.667 363.637 366.824 365.539 366.824Z" fill="white"/>
<path fill-rule="evenodd" clip-rule="evenodd" d="M414.578 302.409C416.861 302.409 418.724 301.02 418.724 299.317C418.724 297.615 416.861 296.226 414.578 296.226C412.296 296.226 410.434 297.615 410.434 299.317C410.434 301.02 412.296 302.409 414.578 302.409Z" fill="white"/>
<path fill-rule="evenodd" clip-rule="evenodd" d="M394.548 265.822C396.831 265.822 398.692 264.433 398.692 262.73C398.692 261.027 396.831 259.638 394.548 259.638C392.265 259.638 390.402 261.027 390.402 262.73C390.402 264.433 392.265 265.822 394.548 265.822Z" fill="white"/>
<path fill-rule="evenodd" clip-rule="evenodd" d="M322.718 265.306C325.762 265.306 328.243 263.454 328.243 261.183C328.243 258.913 325.762 257.061 322.718 257.061C319.675 257.061 317.193 258.913 317.193 261.183C317.193 263.454 319.675 265.306 322.718 265.306Z" fill="white"/>
<path fill-rule="evenodd" clip-rule="evenodd" d="M222.571 258.092C223.332 258.092 223.952 257.629 223.952 257.061C223.952 256.494 223.332 256.03 222.571 256.03C221.81 256.03 221.189 256.494 221.189 257.061C221.189 257.629 221.81 258.092 222.571 258.092Z" fill="white"/>
<path fill-rule="evenodd" clip-rule="evenodd" d="M162.484 268.914C164.006 268.914 165.246 267.988 165.246 266.853C165.246 265.717 164.006 264.791 162.484 264.791C160.962 264.791 159.721 265.717 159.721 266.853C159.721 267.988 160.962 268.914 162.484 268.914Z" fill="white"/>
<path fill-rule="evenodd" clip-rule="evenodd" d="M92.3803 258.607C93.7114 258.607 94.7977 257.797 94.7977 256.804C94.7977 255.811 93.7114 255 92.3803 255C91.0485 255 89.9629 255.811 89.9629 256.804C89.9629 257.797 91.0485 258.607 92.3803 258.607Z" fill="white"/>
<path fill-rule="evenodd" clip-rule="evenodd" d="M39.5427 267.368C40.6834 267.368 41.6146 266.673 41.6146 265.822C41.6146 264.971 40.6834 264.276 39.5427 264.276C38.4019 264.276 37.4707 264.971 37.4707 265.822C37.4707 266.673 38.4019 267.368 39.5427 267.368Z" fill="white"/>
<path fill-rule="evenodd" clip-rule="evenodd" d="M40.2336 316.323C45.9394 316.323 50.5934 312.851 50.5934 308.593C50.5934 304.336 45.9394 300.864 40.2336 300.864C34.5271 300.864 29.873 304.336 29.873 308.593C29.873 312.851 34.5271 316.323 40.2336 316.323Z" fill="white"/>
<path fill-rule="evenodd" clip-rule="evenodd" d="M113.1 321.476C114.051 321.476 114.826 320.897 114.826 320.187C114.826 319.478 114.051 318.899 113.1 318.899C112.148 318.899 111.373 319.478 111.373 320.187C111.373 320.897 112.148 321.476 113.1 321.476Z" fill="white"/>
<path fill-rule="evenodd" clip-rule="evenodd" d="M64.0624 398.773C66.9164 398.773 69.2426 397.037 69.2426 394.909C69.2426 392.78 66.9164 391.044 64.0624 391.044C61.2098 391.044 58.8828 392.78 58.8828 394.909C58.8828 397.037 61.2098 398.773 64.0624 398.773Z" fill="white"/>
<path fill-rule="evenodd" clip-rule="evenodd" d="M86.479 456.212C89.1581 456.212 91.3439 454.582 91.3439 452.583C91.3439 450.583 89.1581 448.953 86.479 448.953C83.7999 448.953 81.6133 450.583 81.6133 452.583C81.6133 454.582 83.7999 456.212 86.479 456.212Z" fill="white"/>
<path fill-rule="evenodd" clip-rule="evenodd" d="M76.8387 510.082C79.5016 510.082 81.6728 508.462 81.6728 506.476C81.6728 504.488 79.5016 502.869 76.8387 502.869C74.1751 502.869 72.0039 504.488 72.0039 506.476C72.0039 508.462 74.1751 510.082 76.8387 510.082Z" fill="white"/>
<path fill-rule="evenodd" clip-rule="evenodd" d="M99.9772 529.665C100.928 529.665 101.704 529.086 101.704 528.376C101.704 527.667 100.928 527.089 99.9772 527.089C99.0262 527.089 98.25 527.667 98.25 528.376C98.25 529.086 99.0262 529.665 99.9772 529.665Z" fill="white"/>
<path fill-rule="evenodd" clip-rule="evenodd" d="M166.626 502.353C167.387 502.353 168.007 501.89 168.007 501.322C168.007 500.755 167.387 500.292 166.626 500.292C165.864 500.292 165.244 500.755 165.244 501.322C165.244 501.89 165.864 502.353 166.626 502.353Z" fill="white"/>
<path fill-rule="evenodd" clip-rule="evenodd" d="M170.426 538.94C171.377 538.94 172.153 538.362 172.153 537.652C172.153 536.941 171.377 536.364 170.426 536.364C169.475 536.364 168.699 536.941 168.699 537.652C168.699 538.362 169.475 538.94 170.426 538.94Z" fill="white"/>
<path fill-rule="evenodd" clip-rule="evenodd" d="M205.996 559.553C209.419 559.553 212.211 557.468 212.211 554.914C212.211 552.36 209.419 550.276 205.996 550.276C202.572 550.276 199.779 552.36 199.779 554.914C199.779 557.468 202.572 559.553 205.996 559.553Z" fill="white"/>
<path fill-rule="evenodd" clip-rule="evenodd" d="M221.191 511.113C222.713 511.113 223.953 510.188 223.953 509.051C223.953 507.916 222.713 506.989 221.191 506.989C219.67 506.989 218.428 507.916 218.428 509.051C218.428 510.188 219.67 511.113 221.191 511.113Z" fill="white"/>
<path fill-rule="evenodd" clip-rule="evenodd" d="M168.226 458.874C169.485 458.874 170.514 458.107 170.514 457.166C170.514 456.226 169.485 455.459 168.226 455.459C166.966 455.459 165.938 456.226 165.938 457.166C165.938 458.107 166.966 458.874 168.226 458.874Z" fill="white"/>
<path fill-rule="evenodd" clip-rule="evenodd" d="M209.793 433.814C211.886 433.814 213.592 432.542 213.592 430.98C213.592 429.42 211.886 428.146 209.793 428.146C207.7 428.146 205.994 429.42 205.994 430.98C205.994 432.542 207.7 433.814 209.793 433.814Z" fill="white"/>
<path fill-rule="evenodd" clip-rule="evenodd" d="M248.127 510.082C249.268 510.082 250.199 509.387 250.199 508.537C250.199 507.685 249.268 506.99 248.127 506.99C246.986 506.99 246.055 507.685 246.055 508.537C246.055 509.387 246.986 510.082 248.127 510.082Z" fill="white"/>
<path fill-rule="evenodd" clip-rule="evenodd" d="M270.141 547.7C271.996 547.7 273.509 546.571 273.509 545.187C273.509 543.804 271.996 542.675 270.141 542.675C268.287 542.675 266.773 543.804 266.773 545.187C266.773 546.571 268.287 547.7 270.141 547.7Z" fill="white"/>
<path fill-rule="evenodd" clip-rule="evenodd" d="M355.526 551.823C357.237 551.823 358.633 550.782 358.633 549.504C358.633 548.227 357.237 547.186 355.526 547.186C353.813 547.186 352.416 548.227 352.416 549.504C352.416 550.782 353.813 551.823 355.526 551.823Z" fill="white"/>
<path fill-rule="evenodd" clip-rule="evenodd" d="M325.483 508.536C326.624 508.536 327.554 507.842 327.554 506.99C327.554 506.139 326.624 505.445 325.483 505.445C324.341 505.445 323.41 506.139 323.41 506.99C323.41 507.842 324.341 508.536 325.483 508.536Z" fill="white"/>
<path fill-rule="evenodd" clip-rule="evenodd" d="M345.857 485.861C348.328 485.861 350.346 484.357 350.346 482.513C350.346 480.667 348.328 479.162 345.857 479.162C343.383 479.162 341.367 480.667 341.367 482.513C341.367 484.357 343.383 485.861 345.857 485.861Z" fill="white"/>
<path fill-rule="evenodd" clip-rule="evenodd" d="M404.909 505.445C407.571 505.445 409.742 503.824 409.742 501.837C409.742 499.851 407.571 498.23 404.909 498.23C402.244 498.23 400.072 499.851 400.072 501.837C400.072 503.824 402.244 505.445 404.909 505.445Z" fill="white"/>
<path fill-rule="evenodd" clip-rule="evenodd" d="M404.865 541.066C406.792 541.066 408.363 539.896 408.363 538.458C408.363 537.02 406.792 535.847 404.865 535.847C402.938 535.847 401.369 537.02 401.369 538.458C401.369 539.896 402.938 541.066 404.865 541.066Z" fill="white"/>
<path fill-rule="evenodd" clip-rule="evenodd" d="M412.506 368.37C414.028 368.37 415.269 367.444 415.269 366.309C415.269 365.174 414.028 364.247 412.506 364.247C410.984 364.247 409.742 365.174 409.742 366.309C409.742 367.444 410.984 368.37 412.506 368.37Z" fill="white"/>
<path fill-rule="evenodd" clip-rule="evenodd" d="M385.051 430.848C385.705 430.848 386.238 430.449 386.238 429.961C386.238 429.473 385.705 429.074 385.051 429.074C384.394 429.074 383.861 429.473 383.861 429.961C383.861 430.449 384.394 430.848 385.051 430.848Z" fill="white"/>
</g>
</g>
<g opacity="0.6">
<path fill-rule="evenodd" clip-rule="evenodd" d="M397.113 53.4736C396.037 53.4736 395.159 52.6814 395.159 51.7105C395.159 50.7389 396.037 49.946 397.113 49.946C398.189 49.946 399.066 50.7389 399.066 51.7105C399.066 52.6814 398.189 53.4736 397.113 53.4736Z" fill="white"/>
<path fill-rule="evenodd" clip-rule="evenodd" d="M367.804 69.7041C366.513 69.7041 365.459 68.7527 365.459 67.5866C365.459 66.4212 366.513 65.4706 367.804 65.4706C369.095 65.4706 370.148 66.4212 370.148 67.5866C370.148 68.7527 369.095 69.7041 367.804 69.7041Z" fill="white"/>
<path fill-rule="evenodd" clip-rule="evenodd" d="M319.349 49.2412C318.058 49.2412 317.004 48.2906 317.004 47.1245C317.004 45.9583 318.058 45.0077 319.349 45.0077C320.64 45.0077 321.693 45.9583 321.693 47.1245C321.693 48.2906 320.64 49.2412 319.349 49.2412Z" fill="white"/>
<path fill-rule="evenodd" clip-rule="evenodd" d="M243.15 61.9414C241.644 61.9414 240.416 60.8316 240.416 59.4717C240.416 58.1119 241.644 57.0021 243.15 57.0021C244.657 57.0021 245.887 58.1119 245.887 59.4717C245.887 60.8316 244.657 61.9414 243.15 61.9414Z" fill="white"/>
<path fill-rule="evenodd" clip-rule="evenodd" d="M191.571 85.2271C189.635 85.2271 188.054 83.8004 188.054 82.0515C188.054 80.3027 189.635 78.8768 191.571 78.8768C193.509 78.8768 195.088 80.3027 195.088 82.0515C195.088 83.8004 193.509 85.2271 191.571 85.2271Z" fill="white"/>
<path fill-rule="evenodd" clip-rule="evenodd" d="M148.587 96.5166C147.943 96.5166 147.416 96.0413 147.416 95.4579C147.416 94.8752 147.943 94.3998 148.587 94.3998C149.233 94.3998 149.76 94.8752 149.76 95.4579C149.76 96.0413 149.233 96.5166 148.587 96.5166Z" fill="white"/>
<path fill-rule="evenodd" clip-rule="evenodd" d="M98.5712 119.095C97.0651 119.095 95.8358 117.986 95.8358 116.626C95.8358 115.265 97.0651 114.156 98.5712 114.156C100.078 114.156 101.307 115.265 101.307 116.626C101.307 117.986 100.078 119.095 98.5712 119.095Z" fill="white"/>
<path fill-rule="evenodd" clip-rule="evenodd" d="M54.8034 52.064C53.7272 52.064 52.8497 51.2718 52.8497 50.3001C52.8497 49.3292 53.7272 48.5363 54.8034 48.5363C55.8796 48.5363 56.7578 49.3292 56.7578 50.3001C56.7578 51.2718 55.8796 52.064 54.8034 52.064Z" fill="white"/>
<path fill-rule="evenodd" clip-rule="evenodd" d="M144.289 49.2412C142.566 49.2412 141.162 47.973 141.162 46.4186C141.162 44.8635 142.566 43.596 144.289 43.596C146.01 43.596 147.416 44.8635 147.416 46.4186C147.416 47.973 146.01 49.2412 144.289 49.2412Z" fill="white"/>
<path fill-rule="evenodd" clip-rule="evenodd" d="M109.902 80.2876C106.89 80.2876 104.432 78.0695 104.432 75.349C104.432 72.6278 106.89 70.4097 109.902 70.4097C112.915 70.4097 115.373 72.6278 115.373 75.349C115.373 78.0695 112.915 80.2876 109.902 80.2876Z" fill="white"/>
<path fill-rule="evenodd" clip-rule="evenodd" d="M47.3812 100.749C45.6596 100.749 44.2549 99.481 44.2549 97.9267C44.2549 96.3716 45.6596 95.1041 47.3812 95.1041C49.1011 95.1041 50.5059 96.3716 50.5059 97.9267C50.5059 99.481 49.1011 100.749 47.3812 100.749Z" fill="white"/>
<path fill-rule="evenodd" clip-rule="evenodd" d="M32.5318 138.147C31.6694 138.147 30.9674 137.513 30.9674 136.736C30.9674 135.958 31.6694 135.324 32.5318 135.324C33.3918 135.324 34.0938 135.958 34.0938 136.736C34.0938 137.513 33.3918 138.147 32.5318 138.147Z" fill="white"/>
<path fill-rule="evenodd" clip-rule="evenodd" d="M116.544 146.615C115.468 146.615 114.59 145.822 114.59 144.851C114.59 143.879 115.468 143.087 116.544 143.087C117.621 143.087 118.498 143.879 118.498 144.851C118.498 145.822 117.621 146.615 116.544 146.615Z" fill="white"/>
<path fill-rule="evenodd" clip-rule="evenodd" d="M139.601 173.427C137.448 173.427 135.693 171.842 135.693 169.899C135.693 167.957 137.448 166.371 139.601 166.371C141.753 166.371 143.508 167.957 143.508 169.899C143.508 171.842 141.753 173.427 139.601 173.427Z" fill="white"/>
<path fill-rule="evenodd" clip-rule="evenodd" d="M164.999 309.608C163.062 309.608 161.483 308.181 161.483 306.432C161.483 304.684 163.062 303.258 164.999 303.258C166.935 303.258 168.516 304.684 168.516 306.432C168.516 308.181 166.935 309.608 164.999 309.608Z" fill="white"/>
<path fill-rule="evenodd" clip-rule="evenodd" d="M160.31 347.71C159.665 347.71 159.138 347.235 159.138 346.653C159.138 346.07 159.665 345.595 160.31 345.595C160.955 345.595 161.482 346.07 161.482 346.653C161.482 347.235 160.955 347.71 160.31 347.71Z" fill="white"/>
<path fill-rule="evenodd" clip-rule="evenodd" d="M115.763 387.223C114.686 387.223 113.809 386.43 113.809 385.459C113.809 384.487 114.686 383.695 115.763 383.695C116.84 383.695 117.719 384.487 117.719 385.459C117.719 386.43 116.84 387.223 115.763 387.223Z" fill="white"/>
<path fill-rule="evenodd" clip-rule="evenodd" d="M38.0025 373.111C37.1426 373.111 36.4398 372.477 36.4398 371.701C36.4398 370.922 37.1426 370.288 38.0025 370.288C38.8642 370.288 39.5645 370.922 39.5645 371.701C39.5645 372.477 38.8642 373.111 38.0025 373.111Z" fill="white"/>
<path fill-rule="evenodd" clip-rule="evenodd" d="M179.848 235.519C177.051 235.519 174.769 233.459 174.769 230.933C174.769 228.407 177.051 226.346 179.848 226.346C182.646 226.346 184.928 228.407 184.928 230.933C184.928 233.459 182.646 235.519 179.848 235.519Z" fill="white"/>
<path fill-rule="evenodd" clip-rule="evenodd" d="M248.157 216.468C245.87 216.468 244.005 214.784 244.005 212.719C244.005 210.654 245.87 208.971 248.157 208.971C250.444 208.971 252.309 210.654 252.309 212.719C252.309 214.784 250.444 216.468 248.157 216.468Z" fill="white"/>
<path fill-rule="evenodd" clip-rule="evenodd" d="M358.035 162.137C355.238 162.137 352.955 160.077 352.955 157.55C352.955 155.024 355.238 152.965 358.035 152.965C360.833 152.965 363.115 155.024 363.115 157.55C363.115 160.077 360.833 162.137 358.035 162.137Z" fill="white"/>
<path fill-rule="evenodd" clip-rule="evenodd" d="M410.007 131.797C406.133 131.797 402.974 128.945 402.974 125.447C402.974 121.949 406.133 119.097 410.007 119.097C413.881 119.097 417.041 121.949 417.041 125.447C417.041 128.945 413.881 131.797 410.007 131.797Z" fill="white"/>
<path fill-rule="evenodd" clip-rule="evenodd" d="M299.42 143.085C297.483 143.085 295.904 141.66 295.904 139.91C295.904 138.161 297.483 136.735 299.42 136.735C301.357 136.735 302.938 138.161 302.938 139.91C302.938 141.66 301.357 143.085 299.42 143.085Z" fill="white"/>
<path fill-rule="evenodd" clip-rule="evenodd" d="M247.451 154.375C244.437 154.375 241.979 152.157 241.979 149.436C241.979 146.716 244.437 144.497 247.451 144.497C250.463 144.497 252.92 146.716 252.92 149.436C252.92 152.157 250.463 154.375 247.451 154.375Z" fill="white"/>
<path fill-rule="evenodd" clip-rule="evenodd" d="M186.493 133.208C184.341 133.208 182.585 131.622 182.585 129.68C182.585 127.737 184.341 126.151 186.493 126.151C188.646 126.151 190.4 127.737 190.4 129.68C190.4 131.622 188.646 133.208 186.493 133.208Z" fill="white"/>
<path fill-rule="evenodd" clip-rule="evenodd" d="M179.998 172.454C175.992 172.454 172.722 169.503 172.722 165.884C172.722 162.266 175.992 159.315 179.998 159.315C184.006 159.315 187.273 162.266 187.273 165.884C187.273 169.503 184.006 172.454 179.998 172.454Z" fill="white"/>
<path fill-rule="evenodd" clip-rule="evenodd" d="M52.8506 170.605C50.6982 170.605 48.9433 169.02 48.9433 167.077C48.9433 165.133 50.6982 163.549 52.8506 163.549C55.003 163.549 56.7578 165.133 56.7578 167.077C56.7578 169.02 55.003 170.605 52.8506 170.605Z" fill="white"/>
<path fill-rule="evenodd" clip-rule="evenodd" d="M-2.6363 82.4043C-5.22035 82.4043 -7.32783 80.5023 -7.32783 78.1708C-7.32783 75.8393 -5.22035 73.9373 -2.6363 73.9373C-0.0547535 73.9373 2.05273 75.8393 2.05273 78.1708C2.05273 80.5023 -0.0547535 82.4043 -2.6363 82.4043Z" fill="white"/>
<path fill-rule="evenodd" clip-rule="evenodd" d="M20.0253 32.3071C17.4421 32.3071 15.3362 30.4051 15.3362 28.0729C15.3362 25.7414 17.4421 23.8394 20.0253 23.8394C22.6093 23.8394 24.7168 25.7414 24.7168 28.0729C24.7168 30.4051 22.6093 32.3071 20.0253 32.3071Z" fill="white"/>
<path fill-rule="evenodd" clip-rule="evenodd" d="M101.305 31.6006C97.8609 31.6006 95.0531 29.0648 95.0531 25.9562C95.0531 22.8467 97.8609 20.311 101.305 20.311C104.748 20.311 107.557 22.8467 107.557 25.9562C107.557 29.0648 104.748 31.6006 101.305 31.6006Z" fill="white"/>
<path fill-rule="evenodd" clip-rule="evenodd" d="M214.625 21.7222C213.763 21.7222 213.061 21.0884 213.061 20.3112C213.061 19.5341 213.763 18.8996 214.625 18.8996C215.486 18.8996 216.188 19.5341 216.188 20.3112C216.188 21.0884 215.486 21.7222 214.625 21.7222Z" fill="white"/>
<path fill-rule="evenodd" clip-rule="evenodd" d="M282.618 36.5405C280.895 36.5405 279.492 35.2723 279.492 33.7179C279.492 32.1636 280.895 30.8954 282.618 30.8954C284.339 30.8954 285.744 32.1636 285.744 33.7179C285.744 35.2723 284.339 36.5405 282.618 36.5405Z" fill="white"/>
<path fill-rule="evenodd" clip-rule="evenodd" d="M361.94 22.4287C360.434 22.4287 359.205 21.3189 359.205 19.959C359.205 18.5992 360.434 17.4894 361.94 17.4894C363.447 17.4894 364.676 18.5992 364.676 19.959C364.676 21.3189 363.447 22.4287 361.94 22.4287Z" fill="white"/>
<path fill-rule="evenodd" clip-rule="evenodd" d="M421.73 34.4233C420.439 34.4233 419.385 33.472 419.385 32.3066C419.385 31.1405 420.439 30.1891 421.73 30.1891C423.02 30.1891 424.074 31.1405 424.074 32.3066C424.074 33.472 423.02 34.4233 421.73 34.4233Z" fill="white"/>
<path fill-rule="evenodd" clip-rule="evenodd" d="M420.948 101.455C414.492 101.455 409.226 96.7005 409.226 90.8706C409.226 85.0414 414.492 80.2868 420.948 80.2868C427.406 80.2868 432.672 85.0414 432.672 90.8706C432.672 96.7005 427.406 101.455 420.948 101.455Z" fill="white"/>
<path fill-rule="evenodd" clip-rule="evenodd" d="M338.499 108.512C337.423 108.512 336.546 107.72 336.546 106.748C336.546 105.776 337.423 104.984 338.499 104.984C339.576 104.984 340.453 105.776 340.453 106.748C340.453 107.72 339.576 108.512 338.499 108.512Z" fill="white"/>
<path fill-rule="evenodd" clip-rule="evenodd" d="M393.987 214.352C390.757 214.352 388.125 211.975 388.125 209.061C388.125 206.146 390.757 203.768 393.987 203.768C397.215 203.768 399.848 206.146 399.848 209.061C399.848 211.975 397.215 214.352 393.987 214.352Z" fill="white"/>
<path fill-rule="evenodd" clip-rule="evenodd" d="M368.621 292.999C365.59 292.999 363.116 290.767 363.116 288.03C363.116 285.291 365.59 283.059 368.621 283.059C371.653 283.059 374.127 285.291 374.127 288.03C374.127 290.767 371.653 292.999 368.621 292.999Z" fill="white"/>
<path fill-rule="evenodd" clip-rule="evenodd" d="M379.527 366.761C376.514 366.761 374.057 364.542 374.057 361.823C374.057 359.102 376.514 356.884 379.527 356.884C382.541 356.884 384.998 359.102 384.998 361.823C384.998 364.542 382.541 366.761 379.527 366.761Z" fill="white"/>
<path fill-rule="evenodd" clip-rule="evenodd" d="M353.344 393.574C352.269 393.574 351.391 392.781 351.391 391.809C351.391 390.837 352.269 390.046 353.344 390.046C354.421 390.046 355.299 390.837 355.299 391.809C355.299 392.781 354.421 393.574 353.344 393.574Z" fill="white"/>
<path fill-rule="evenodd" clip-rule="evenodd" d="M277.929 356.177C277.068 356.177 276.366 355.543 276.366 354.766C276.366 353.99 277.068 353.355 277.929 353.355C278.79 353.355 279.492 353.99 279.492 354.766C279.492 355.543 278.79 356.177 277.929 356.177Z" fill="white"/>
<path fill-rule="evenodd" clip-rule="evenodd" d="M273.63 406.277C272.554 406.277 271.676 405.485 271.676 404.513C271.676 403.539 272.554 402.749 273.63 402.749C274.707 402.749 275.584 403.539 275.584 404.513C275.584 405.485 274.707 406.277 273.63 406.277Z" fill="white"/>
<path fill-rule="evenodd" clip-rule="evenodd" d="M233.38 434.5C229.507 434.5 226.347 431.645 226.347 428.149C226.347 424.651 229.507 421.797 233.38 421.797C237.254 421.797 240.414 424.651 240.414 428.149C240.414 431.645 237.254 434.5 233.38 434.5Z" fill="white"/>
<path fill-rule="evenodd" clip-rule="evenodd" d="M216.19 368.175C214.468 368.175 213.064 366.907 213.064 365.351C213.064 363.796 214.468 362.528 216.19 362.528C217.911 362.528 219.316 363.796 219.316 365.351C219.316 366.907 217.911 368.175 216.19 368.175Z" fill="white"/>
<path fill-rule="evenodd" clip-rule="evenodd" d="M276.122 296.643C274.696 296.643 273.533 295.593 273.533 294.305C273.533 293.017 274.696 291.967 276.122 291.967C277.547 291.967 278.711 293.017 278.711 294.305C278.711 295.593 277.547 296.643 276.122 296.643Z" fill="white"/>
<path fill-rule="evenodd" clip-rule="evenodd" d="M229.085 262.332C226.716 262.332 224.786 260.589 224.786 258.451C224.786 256.314 226.716 254.57 229.085 254.57C231.452 254.57 233.383 256.314 233.383 258.451C233.383 260.589 231.452 262.332 229.085 262.332Z" fill="white"/>
<path fill-rule="evenodd" clip-rule="evenodd" d="M185.709 366.761C184.419 366.761 183.366 365.809 183.366 364.645C183.366 363.479 184.419 362.527 185.709 362.527C187.001 362.527 188.055 363.479 188.055 364.645C188.055 365.809 187.001 366.761 185.709 366.761Z" fill="white"/>
<path fill-rule="evenodd" clip-rule="evenodd" d="M160.797 418.27C158.698 418.27 156.986 416.723 156.986 414.829C156.986 412.934 158.698 411.388 160.797 411.388C162.895 411.388 164.607 412.934 164.607 414.829C164.607 416.723 162.895 418.27 160.797 418.27Z" fill="white"/>
<path fill-rule="evenodd" clip-rule="evenodd" d="M64.1843 423.915C62.2481 423.915 60.6687 422.489 60.6687 420.738C60.6687 418.99 62.2481 417.564 64.1843 417.564C66.1229 417.564 67.7031 418.99 67.7031 420.738C67.7031 422.489 66.1229 423.915 64.1843 423.915Z" fill="white"/>
<path fill-rule="evenodd" clip-rule="evenodd" d="M98.1781 364.644C96.8865 364.644 95.8344 363.693 95.8344 362.527C95.8344 361.362 96.8865 360.411 98.1781 360.411C99.4705 360.411 100.523 361.362 100.523 362.527C100.523 363.693 99.4705 364.644 98.1781 364.644Z" fill="white"/>
<path fill-rule="evenodd" clip-rule="evenodd" d="M75.1251 333.598C72.3282 333.598 70.0452 331.538 70.0452 329.013C70.0452 326.486 72.3282 324.425 75.1251 324.425C77.9246 324.425 80.2051 326.486 80.2051 329.013C80.2051 331.538 77.9246 333.598 75.1251 333.598Z" fill="white"/>
<path fill-rule="evenodd" clip-rule="evenodd" d="M8.30291 360.412C5.29055 360.412 2.83375 358.192 2.83375 355.472C2.83375 352.751 5.29055 350.532 8.30291 350.532C11.3178 350.532 13.7754 352.751 13.7754 355.472C13.7754 358.192 11.3178 360.412 8.30291 360.412Z" fill="white"/>
<path fill-rule="evenodd" clip-rule="evenodd" d="M8.3531 409.186C6.17243 409.186 4.39428 407.583 4.39428 405.614C4.39428 403.646 6.17243 402.04 8.3531 402.04C10.5329 402.04 12.3086 403.646 12.3086 405.614C12.3086 407.583 10.5329 409.186 8.3531 409.186Z" fill="white"/>
<path fill-rule="evenodd" clip-rule="evenodd" d="M-0.295102 172.722C-2.01752 172.722 -3.42224 171.453 -3.42224 169.899C-3.42224 168.345 -2.01752 167.077 -0.295102 167.077C1.42732 167.077 2.83203 168.345 2.83203 169.899C2.83203 171.453 1.42732 172.722 -0.295102 172.722Z" fill="white"/>
<path fill-rule="evenodd" clip-rule="evenodd" d="M30.7754 258.269C30.0344 258.269 29.4323 257.723 29.4323 257.056C29.4323 256.387 30.0344 255.841 30.7754 255.841C31.5181 255.841 32.1211 256.387 32.1211 257.056C32.1211 257.723 31.5181 258.269 30.7754 258.269Z" fill="white"/>
</g>
</g>
</g>
<path d="M113.696 433.655C160.564 433.655 202.643 454.156 231.457 486.678H275.886C296.139 462.854 326.326 447.739 360.045 447.739C421.026 447.739 470.461 497.174 470.461 558.154C470.461 587.893 458.703 614.884 439.584 634.736V875.273H-0.416016V699.166C-27.1679 670.97 -43.582 632.869 -43.582 590.934C-43.582 504.071 26.8339 433.655 113.696 433.655Z" fill="url(#paint0_linear_207_11417)"/>
</g>
<defs>
<linearGradient id="paint0_linear_207_11417" x1="232.376" y1="433.655" x2="232.376" y2="875.273" gradientUnits="userSpaceOnUse">
<stop offset="0.3" stop-color="white"/>
<stop offset="1" stop-color="white" stop-opacity="0"/>
</linearGradient>
<clipPath id="clip0_207_11417">
<path d="M0 100C0 44.7715 44.7715 0 100 0H340C395.228 0 440 44.7715 440 100V1668H0V100Z" fill="white"/>
</clipPath>
<clipPath id="clip1_207_11417">
<path d="M0 100C0 44.7716 44.7715 0 100 0H340C395.228 0 440 44.7715 440 100V2935H0V100Z" fill="white"/>
</clipPath>
<clipPath id="clip2_207_11417">
<rect width="441" height="321" fill="white" transform="translate(0 255)"/>
</clipPath>
</defs>
</svg>
