<svg width="161" height="25" viewBox="0 0 161 25" fill="none" xmlns="http://www.w3.org/2000/svg">
<path fill-rule="evenodd" clip-rule="evenodd" d="M128.119 4.56543C128.389 4.33946 128.8 4.53147 128.8 4.88477V7.80859C128.8 8.89541 128.204 9.84016 127.322 10.3398V14.0322C126.908 13.8754 126.485 13.7969 126.052 13.7969C125.405 13.7969 124.809 13.9573 124.263 14.2773C123.717 14.5912 123.28 15.0144 122.953 15.5479C122.627 16.0813 122.464 16.6755 122.464 17.3281C122.464 17.9742 122.59 18.4798 122.841 18.8438C123.092 19.2074 123.462 19.3895 123.951 19.3896C124.146 19.3896 124.379 19.3587 124.648 19.2959C124.918 19.2331 125.286 19.0762 125.75 18.8252C126.221 18.5741 126.842 18.1655 127.614 17.6006V23.7305C126.277 24.2703 124.83 24.541 123.273 24.541C122.206 24.541 121.17 24.3772 120.166 24.0508C119.168 23.7244 118.271 23.2475 117.474 22.6201C116.683 21.9926 116.052 21.2198 115.581 20.3037C115.117 19.3873 114.884 18.3381 114.884 17.1582C114.884 15.9092 115.104 14.7696 115.543 13.7402C115.852 13.0211 116.253 12.3728 116.741 11.793V9.47168C116.741 9.04037 116.413 8.6871 115.995 8.64551L115.824 8.6377C115.406 8.59351 115.078 8.23973 115.078 7.80859C115.078 7.3487 115.45 6.97658 115.91 6.97656C117.287 6.97679 118.404 8.09451 118.404 9.47168V10.3008C118.988 9.90691 119.632 9.58115 120.336 9.32422C121.198 9.00949 122.131 8.81715 123.135 8.74512C123.035 8.45124 122.979 8.1364 122.979 7.80859V4.88477C122.979 4.5315 123.389 4.33954 123.659 4.56543L125.058 5.72949H126.721L128.119 4.56543ZM21.5918 13.7969C22.3198 13.7969 22.9474 13.9218 23.4746 14.1729C24.0081 14.4239 24.4442 14.7757 24.7832 15.2275C25.1222 15.6732 25.3739 16.2007 25.5371 16.8096C25.7003 17.4122 25.7812 18.0715 25.7812 18.7871V19.5684H18.8936C18.9045 20.0028 18.9672 20.4139 19.0869 20.8018C19.225 21.2223 19.4224 21.593 19.6797 21.9131C19.9433 22.2332 20.2605 22.4849 20.6309 22.667C21.0074 22.8489 21.4343 22.9394 21.9111 22.9395C22.5263 22.9395 23.0477 22.8136 23.4746 22.5625C23.9013 22.3115 24.2747 21.976 24.5947 21.5557L25.6494 22.3936C25.4297 22.7262 25.1504 23.0435 24.8115 23.3447C24.4726 23.6459 24.0553 23.8908 23.5596 24.0791C23.0699 24.2674 22.489 24.3613 21.8174 24.3613C21.108 24.3613 20.4642 24.2425 19.8867 24.0039C19.3155 23.7591 18.8225 23.4169 18.4082 22.9775C18.0002 22.5381 17.6865 22.0167 17.4668 21.4141C17.2471 20.8115 17.1377 20.1521 17.1377 19.4365V19.041C17.1377 18.2125 17.2601 17.4746 17.5049 16.8281C17.7497 16.1754 18.0824 15.6228 18.5029 15.1709C18.9235 14.719 19.4011 14.3768 19.9346 14.1445C20.468 13.9124 21.0207 13.7969 21.5918 13.7969ZM31.7793 13.7969C32.52 13.7969 33.1733 13.9218 33.7383 14.1729C34.3095 14.4239 34.755 14.804 35.0752 15.3125C35.4016 15.8147 35.5654 16.4455 35.5654 17.2051V21.9512C35.5654 22.2901 35.5929 22.6514 35.6494 23.0342C35.7122 23.4169 35.8036 23.7463 35.9229 24.0225V24.1729H34.1055C34.0177 23.9721 33.9486 23.7055 33.8984 23.373C33.8843 23.2778 33.8725 23.1841 33.8623 23.0928C33.7788 23.1803 33.6912 23.2681 33.5967 23.3535C33.2765 23.6423 32.8939 23.8845 32.4482 24.0791C32.009 24.2674 31.5131 24.3613 30.9609 24.3613C30.2705 24.3613 29.6646 24.2259 29.1436 23.9561C28.6288 23.6861 28.2263 23.326 27.9375 22.874C27.655 22.4158 27.5137 21.9038 27.5137 21.3389C27.5137 20.7929 27.6207 20.3127 27.834 19.8984C28.0474 19.4778 28.3551 19.1287 28.7568 18.8525C29.1585 18.5701 29.6422 18.3573 30.207 18.2129C30.7719 18.0685 31.4029 17.9961 32.0996 17.9961H33.8232V17.1865C33.8232 16.7848 33.7413 16.4357 33.5781 16.1406C33.4212 15.8395 33.1823 15.6075 32.8623 15.4443C32.5422 15.2812 32.1465 15.1992 31.6758 15.1992C31.2365 15.1993 30.8502 15.2752 30.5176 15.4258C30.1914 15.5764 29.9343 15.7739 29.7461 16.0186C29.5641 16.2634 29.4727 16.5271 29.4727 16.8096H27.7305C27.7305 16.4455 27.8244 16.0843 28.0127 15.7266C28.201 15.3687 28.4717 15.0456 28.8232 14.7568C29.181 14.4619 29.6078 14.23 30.1035 14.0605C30.6056 13.8848 31.1642 13.7969 31.7793 13.7969ZM40.6689 13.9844H42.5703V15.3223H40.6689V21.6494C40.6689 21.9946 40.7224 22.2549 40.8291 22.4307C40.9358 22.6064 41.0737 22.7228 41.2432 22.7793C41.4126 22.8358 41.5945 22.8643 41.7891 22.8643C41.9334 22.8643 42.0843 22.8513 42.2412 22.8262C42.4043 22.7948 42.5268 22.7698 42.6084 22.751L42.6182 24.1729C42.4801 24.2168 42.2973 24.2582 42.0713 24.2959C41.8517 24.3398 41.5851 24.3613 41.2715 24.3613C40.8446 24.3613 40.4516 24.2769 40.0938 24.1074C39.7361 23.9379 39.4507 23.6551 39.2373 23.2598C39.0302 22.8581 38.9268 22.3184 38.9268 21.6406V15.3223H37.0625V13.9844H38.9268V11.5088H40.6689V13.9844ZM59.2373 13.7969C59.9653 13.7969 60.5929 13.9219 61.1201 14.1729C61.6537 14.424 62.0907 14.7756 62.4297 15.2275C62.7686 15.6732 63.0194 16.2007 63.1826 16.8096C63.3458 17.4122 63.4277 18.0715 63.4277 18.7871V19.5684H56.5391C56.55 20.0028 56.6127 20.414 56.7324 20.8018C56.8705 21.2223 57.0688 21.5929 57.3262 21.9131C57.5898 22.2331 57.9061 22.485 58.2764 22.667C58.653 22.849 59.0805 22.9395 59.5576 22.9395C60.1727 22.9394 60.6933 22.8135 61.1201 22.5625C61.547 22.3114 61.9211 21.9762 62.2412 21.5557L63.2959 22.3936C63.0762 22.7262 62.797 23.0434 62.458 23.3447C62.119 23.646 61.701 23.8908 61.2051 24.0791C60.7155 24.2674 60.1345 24.3613 59.4629 24.3613C58.7538 24.3613 58.1105 24.2423 57.5332 24.0039C56.962 23.7591 56.469 23.4169 56.0547 22.9775C55.6467 22.5381 55.333 22.0167 55.1133 21.4141C54.8936 20.8114 54.7832 20.1522 54.7832 19.4365V19.041C54.7832 18.2125 54.9056 17.4746 55.1504 16.8281C55.3952 16.1754 55.7279 15.6228 56.1484 15.1709C56.569 14.7189 57.0465 14.3768 57.5801 14.1445C58.1136 13.9123 58.6661 13.7969 59.2373 13.7969ZM91.4121 13.7969C92.1277 13.7969 92.7715 13.9287 93.3428 14.1924C93.9202 14.4497 94.4098 14.8135 94.8115 15.2842C95.2195 15.7486 95.5307 16.2977 95.7441 16.9316C95.9576 17.5594 96.0645 18.2411 96.0645 18.9756V19.1924C96.0644 19.9267 95.9575 20.6077 95.7441 21.2354C95.5307 21.8631 95.2195 22.412 94.8115 22.8828C94.4098 23.3473 93.9237 23.7119 93.3525 23.9756C92.7877 24.2329 92.1471 24.3613 91.4316 24.3613C90.7161 24.3613 90.0722 24.2329 89.501 23.9756C88.9297 23.7119 88.4403 23.3473 88.0322 22.8828C87.6305 22.412 87.3228 21.863 87.1094 21.2354C86.896 20.6077 86.7891 19.9267 86.7891 19.1924V18.9756C86.7891 18.2411 86.8959 17.5594 87.1094 16.9316C87.3228 16.2978 87.6306 15.7486 88.0322 15.2842C88.4339 14.8135 88.9202 14.4497 89.4912 14.1924C90.0624 13.9288 90.7029 13.7969 91.4121 13.7969ZM108.616 13.7969C109.344 13.7969 109.972 13.9218 110.499 14.1729C111.033 14.4239 111.469 14.7757 111.808 15.2275C112.147 15.6732 112.398 16.2007 112.562 16.8096C112.725 17.4122 112.806 18.0715 112.806 18.7871V19.5684H105.918C105.929 20.0028 105.992 20.4139 106.111 20.8018C106.249 21.2223 106.447 21.593 106.704 21.9131C106.968 22.2332 107.285 22.4849 107.655 22.667C108.032 22.8489 108.459 22.9394 108.936 22.9395C109.551 22.9395 110.072 22.8136 110.499 22.5625C110.926 22.3115 111.299 21.976 111.619 21.5557L112.674 22.3936C112.454 22.7262 112.175 23.0435 111.836 23.3447C111.497 23.6459 111.08 23.8908 110.584 24.0791C110.094 24.2674 109.513 24.3613 108.842 24.3613C108.132 24.3613 107.489 24.2424 106.911 24.0039C106.34 23.7592 105.848 23.4167 105.434 22.9775C105.026 22.5381 104.711 22.0167 104.491 21.4141C104.272 20.8115 104.162 20.1521 104.162 19.4365V19.041C104.162 18.2125 104.285 17.4746 104.529 16.8281C104.774 16.1754 105.107 15.6228 105.527 15.1709C105.948 14.719 106.425 14.3768 106.959 14.1445C107.492 13.9124 108.045 13.7969 108.616 13.7969ZM157.604 9.13574C157.359 9.35958 157.108 9.50813 156.851 9.60547C156.233 9.83833 155.514 9.78703 154.7 9.67188C153.887 9.5567 152.988 9.3709 152.051 9.4375C151.114 9.50415 150.161 9.83972 149.271 10.709C148.685 11.2816 149.383 11.8599 149.876 11.3232C150.598 10.5358 151.388 10.3336 152.177 10.2773C152.966 10.2212 153.794 10.3715 154.641 10.4912C155.487 10.6109 156.346 10.7015 157.181 10.3867C157.745 10.1737 158.269 9.77293 158.729 9.13574H160.797V14.0137H156.606V24.1738H150.75V14.0137H146.56V9.13574H157.604ZM3.97363 19.8418L4.24512 21.6572L4.62305 20.0303L7.34473 10.4629H8.86035L11.5068 20.0303L11.8926 21.6973L12.1846 19.832L14.3027 10.4629H16.1201L12.8057 24.1729H11.1582L8.33301 14.1826L8.11523 13.1328L7.90039 14.1826L4.97168 24.1729H3.32422L0 10.4629H1.80762L3.97363 19.8418ZM46.3555 15.2051C46.362 15.197 46.3684 15.1887 46.375 15.1807C46.739 14.7414 47.1719 14.4026 47.6738 14.1641C48.1822 13.9193 48.7443 13.7969 49.3594 13.7969C49.8616 13.7969 50.3141 13.8658 50.7158 14.0039C51.1174 14.1357 51.4598 14.3486 51.7422 14.6436C52.031 14.9386 52.2507 15.3222 52.4014 15.793C52.552 16.2574 52.627 16.8255 52.627 17.4971V24.1729H50.876V17.4785C50.876 16.9449 50.7976 16.5174 50.6406 16.1973C50.4837 15.8709 50.2544 15.6356 49.9531 15.4912C49.6518 15.3406 49.2812 15.2656 48.8418 15.2656C48.4087 15.2656 48.0131 15.3561 47.6553 15.5381C47.3037 15.7201 46.9996 15.9718 46.7422 16.292C46.594 16.481 46.4665 16.6874 46.3555 16.9092V24.1729H44.6143V9.70996H46.3555V15.2051ZM69.6143 13.7969C69.7397 13.7969 69.8839 13.8124 70.0469 13.8438C70.21 13.8688 70.323 13.8973 70.3857 13.9287L70.377 15.5479C70.2326 15.5165 70.0937 15.4975 69.9619 15.4912C69.8365 15.4787 69.6923 15.4727 69.5293 15.4727C69.1275 15.4727 68.7724 15.5356 68.4648 15.6611C68.1574 15.7867 67.8969 15.9626 67.6836 16.1885C67.4849 16.3989 67.3256 16.6479 67.2031 16.9346V24.1729H65.4609V13.9844H67.1562L67.1904 15.1553C67.1948 15.1482 67.1987 15.1409 67.2031 15.1338C67.4605 14.7132 67.7872 14.3866 68.1826 14.1543C68.5844 13.9158 69.0618 13.7969 69.6143 13.7969ZM85.5371 11.9512H78.8604V16.6309H84.6045V18.1182H78.8604V24.1729H77.043V10.4629H85.5371V11.9512ZM102.401 13.7969C102.527 13.7969 102.671 13.8124 102.834 13.8438C102.997 13.8688 103.11 13.8974 103.173 13.9287L103.164 15.5479C103.02 15.5165 102.882 15.4975 102.75 15.4912C102.624 15.4787 102.48 15.4727 102.316 15.4727C101.915 15.4727 101.56 15.5356 101.252 15.6611C100.945 15.7867 100.684 15.9626 100.471 16.1885C100.272 16.3989 100.113 16.648 99.9902 16.9346V24.1729H98.249V13.9844H99.9434L99.9775 15.1553C99.9819 15.1482 99.9858 15.1409 99.9902 15.1338C100.248 14.7132 100.574 14.3866 100.97 14.1543C101.371 13.9158 101.849 13.7969 102.401 13.7969ZM138.509 8.80566C138.879 8.80566 139.24 8.89013 139.592 9.05957C139.95 9.22904 140.226 9.48936 140.421 9.84082L148.443 24.1729H140.807L140.213 22.6846H136.146L135.637 24.1729H128.989L136.466 9.89746C136.648 9.5523 136.931 9.28496 137.313 9.09668C137.696 8.90228 138.095 8.80571 138.509 8.80566ZM91.4121 15.2275C90.9352 15.2276 90.5144 15.3285 90.1504 15.5293C89.7928 15.7301 89.4918 16.0061 89.2471 16.3574C89.0085 16.7027 88.8292 17.1017 88.71 17.5537C88.5907 17.9994 88.5312 18.4735 88.5312 18.9756V19.1924C88.5313 19.7007 88.5907 20.181 88.71 20.6328C88.8292 21.0784 89.0086 21.4741 89.2471 21.8193C89.4918 22.1644 89.7962 22.4379 90.1602 22.6387C90.5242 22.8332 90.9484 22.9297 91.4316 22.9297C91.9085 22.9296 92.3259 22.8332 92.6836 22.6387C93.0477 22.4378 93.3493 22.1646 93.5879 21.8193C93.8264 21.4741 94.0048 21.0784 94.124 20.6328C94.2495 20.181 94.3125 19.7007 94.3125 19.1924V18.9756C94.3125 18.4734 94.2495 17.9994 94.124 17.5537C94.0048 17.1017 93.8229 16.7027 93.5781 16.3574C93.3396 16.006 93.0379 15.7301 92.6738 15.5293C92.316 15.3285 91.8954 15.2275 91.4121 15.2275ZM32.3818 19.2197C31.8861 19.2198 31.4438 19.2612 31.0547 19.3428C30.6655 19.4181 30.3388 19.5345 30.0752 19.6914C29.8117 19.8483 29.6107 20.0457 29.4727 20.2842C29.3346 20.5164 29.2656 20.7896 29.2656 21.1035C29.2656 21.4236 29.3381 21.7159 29.4824 21.9795C29.6268 22.243 29.8432 22.4535 30.1318 22.6104C30.4268 22.761 30.788 22.8359 31.2148 22.8359C31.7483 22.8359 32.219 22.723 32.627 22.4971C33.035 22.2711 33.3581 21.9944 33.5967 21.668C33.6878 21.5465 33.7634 21.4265 33.8232 21.3076V19.2197H32.3818ZM136.607 19.7002H139.648L138.208 15.6318L136.607 19.7002ZM21.5918 15.2275C21.1963 15.2275 20.8317 15.3129 20.499 15.4824C20.1664 15.6456 19.8811 15.8904 19.6426 16.2168C19.4041 16.5432 19.2187 16.9414 19.0869 17.4121C19.0231 17.6399 18.9753 17.8849 18.9424 18.1465H24.0391V18.0146C24.0139 17.5628 23.92 17.1231 23.7568 16.6963C23.5999 16.2696 23.3491 15.9177 23.0039 15.6416C22.6587 15.3655 22.1879 15.2276 21.5918 15.2275ZM59.2373 15.2275C58.8418 15.2275 58.4772 15.3129 58.1445 15.4824C57.8121 15.6456 57.5265 15.8906 57.2881 16.2168C57.0497 16.5431 56.8642 16.9415 56.7324 17.4121C56.6686 17.6399 56.6208 17.8849 56.5879 18.1465H61.6855V18.0146C61.6604 17.5628 61.5665 17.1231 61.4033 16.6963C61.2464 16.2695 60.9946 15.9178 60.6494 15.6416C60.3042 15.3656 59.8334 15.2275 59.2373 15.2275ZM108.616 15.2275C108.221 15.2275 107.856 15.3129 107.523 15.4824C107.191 15.6456 106.905 15.8905 106.667 16.2168C106.429 16.5432 106.243 16.9414 106.111 17.4121C106.048 17.6399 106 17.8849 105.967 18.1465H111.064V18.0146C111.039 17.5628 110.944 17.1231 110.781 16.6963C110.624 16.2696 110.373 15.9177 110.028 15.6416C109.683 15.3655 109.212 15.2276 108.616 15.2275ZM156.729 3.85352C157.497 3.86717 158.157 4.123 158.655 4.5293C159.76 5.4301 160.111 7.09135 158.981 8.75488C158.9 8.89074 158.814 9.01682 158.729 9.13574H157.604C157.705 9.0422 157.807 8.93576 157.906 8.81348H148.964C148.616 7.48452 148.586 6.10979 148.916 5.20215C149.418 5.41795 149.995 5.52955 150.6 5.53711C151.358 5.54647 152.111 5.36103 152.707 4.95703C152.83 5.03654 152.951 5.11872 153.07 5.20312L153.216 5.30664L153.355 5.19531C154.541 4.2496 155.671 3.86098 156.637 3.85352C156.668 3.85328 156.699 3.85298 156.729 3.85352ZM124.642 7.28906C124.356 7.28927 124.122 7.52293 124.122 7.80859C124.122 8.09409 124.356 8.32792 124.642 8.32812C124.927 8.32812 125.162 8.09422 125.162 7.80859C125.162 7.52281 124.927 7.28906 124.642 7.28906ZM127.137 7.28906C126.851 7.28916 126.617 7.52286 126.617 7.80859C126.617 8.09416 126.851 8.32803 127.137 8.32812C127.422 8.32812 127.656 8.09422 127.656 7.80859C127.656 7.52281 127.423 7.28906 127.137 7.28906ZM149.184 1.29004L149.363 1.23242C150.053 1.00886 151.182 1.05082 151.845 1.23535L152.02 1.28418L152.749 0.0498047C153.604 1.81016 153.569 3.0387 153.125 3.82715C152.649 4.67111 151.666 5.07553 150.605 5.0625C149.366 5.04709 148.343 4.56217 147.884 3.68457C147.454 2.86263 147.485 1.63819 148.403 0L149.184 1.29004ZM149.173 2.55762C148.96 2.55654 148.707 2.63504 148.418 2.81445C148.601 3.5753 149.03 3.94419 149.973 3.48926C149.919 2.94775 149.642 2.56013 149.173 2.55762ZM151.951 2.55762C151.482 2.56018 151.205 2.94776 151.151 3.48926C152.094 3.9442 152.523 3.57531 152.706 2.81445C152.417 2.63507 152.164 2.55656 151.951 2.55762Z" fill="black"/>
</svg>
