<svg width="20" height="20" viewBox="0 0 20 20" fill="none" xmlns="http://www.w3.org/2000/svg">
<path d="M2.64379 6.35711C4.39079 4.85711 5.77079 3.67111 9.51579 5.78711C11.3148 6.80311 12.7658 7.18711 13.9728 7.18511C16.0878 7.18511 17.4588 6.00911 18.6438 4.99211C18.8472 4.81517 18.9737 4.56597 18.9965 4.29734C19.0192 4.02871 18.9365 3.76178 18.7658 3.55311C18.6825 3.45072 18.5796 3.36607 18.463 3.30417C18.3464 3.24226 18.2187 3.20436 18.0872 3.19271C17.9557 3.18105 17.8233 3.19588 17.6976 3.23631C17.572 3.27675 17.4558 3.34197 17.3558 3.42811C15.6098 4.93011 14.2288 6.11611 10.4838 3.99811C5.53579 1.20511 3.21779 3.19511 1.35579 4.79511C1.15254 4.9722 1.02624 5.22147 1.00365 5.49009C0.981062 5.75871 1.06397 6.02558 1.23479 6.23411C1.31811 6.33633 1.42109 6.42079 1.53764 6.48251C1.65418 6.54422 1.78192 6.58192 1.91329 6.59339C2.04467 6.60486 2.17701 6.58986 2.30248 6.54927C2.42796 6.50869 2.54402 6.44335 2.64379 6.35711ZM17.3558 8.53511C15.6098 10.0351 14.2288 11.2231 10.4838 9.10511C5.53579 6.31011 3.21779 8.30111 1.35579 9.90011C1.15254 10.0772 1.02624 10.3265 1.00365 10.5951C0.981062 10.8637 1.06397 11.1306 1.23479 11.3391C1.31797 11.4415 1.42084 11.5261 1.53731 11.588C1.65378 11.6499 1.78149 11.6878 1.91287 11.6994C2.04425 11.7111 2.17663 11.6963 2.30218 11.6559C2.42773 11.6154 2.54389 11.5502 2.64379 11.4641C4.39079 9.96311 5.77079 8.77711 9.51579 10.8921C11.3148 11.9101 12.7658 12.2921 13.9728 12.2921C16.0878 12.2921 17.4588 11.1161 18.6438 10.0971C18.8473 9.92048 18.974 9.67142 18.9968 9.40288C19.0195 9.13435 18.9367 8.86751 18.7658 8.65911C18.6825 8.55668 18.5796 8.472 18.463 8.41011C18.3464 8.34821 18.2185 8.31036 18.087 8.2988C17.9555 8.28723 17.823 8.30219 17.6974 8.34279C17.5718 8.38338 17.4556 8.44878 17.3558 8.53511ZM17.3558 13.6411C15.6098 15.1431 14.2288 16.3291 10.4838 14.2131C5.53579 11.4181 3.21779 13.4081 1.35579 15.0081C1.15254 15.1852 1.02624 15.4345 1.00365 15.7031C0.981062 15.9717 1.06397 16.2386 1.23479 16.4471C1.31803 16.5494 1.42098 16.634 1.53752 16.6958C1.65407 16.7576 1.78184 16.7954 1.91326 16.8068C2.04467 16.8183 2.17705 16.8033 2.30254 16.7626C2.42803 16.7219 2.54408 16.6565 2.64379 16.5701C4.39079 15.0701 5.77079 13.8851 9.51579 16.0001C11.3148 17.0161 12.7658 17.4001 13.9728 17.4001C16.0878 17.4001 17.4588 16.2221 18.6438 15.2051C18.8472 15.0282 18.9737 14.779 18.9965 14.5103C19.0192 14.2417 18.9365 13.9748 18.7658 13.7661C18.6823 13.6641 18.5792 13.5797 18.4627 13.5181C18.3461 13.4564 18.2184 13.4186 18.0871 13.407C17.9557 13.3954 17.8234 13.4101 17.6978 13.4503C17.5722 13.4905 17.4559 13.5554 17.3558 13.6411Z" fill="#56A0ED"/>
</svg>
