<svg width="24" height="24" viewBox="0 0 24 24" fill="none" xmlns="http://www.w3.org/2000/svg">
<path d="M6.288 19.65C4.76267 18.0833 4 16.1333 4 13.8C4 12.7667 4.23333 11.7333 4.7 10.7C5.16667 9.66668 5.75 8.67501 6.45 7.72501C7.15 6.77501 7.90833 5.88334 8.725 5.05001C9.54167 4.21668 10.3 3.49168 11 2.87501C11.1333 2.74168 11.2877 2.64601 11.463 2.58801C11.6383 2.53001 11.8173 2.50068 12 2.50001C12.1827 2.49934 12.362 2.52868 12.538 2.58801C12.714 2.64734 12.868 2.74301 13 2.87501C13.7 3.49168 14.4583 4.21668 15.275 5.05001C16.0917 5.88334 16.85 6.77501 17.55 7.72501C18.25 8.67501 18.8333 9.66668 19.3 10.7C19.7667 11.7333 20 12.7667 20 13.8C20 16.1333 19.2377 18.0833 17.713 19.65C16.1883 21.2167 14.284 22 12 22C9.716 22 7.812 21.2167 6.288 19.65ZM15.563 17.563C15.8543 17.271 16 16.9167 16 16.5C16 16.0833 15.8543 15.7293 15.563 15.438C15.2717 15.1467 14.9173 15.0007 14.5 15C14.0827 14.9993 13.7287 15.1453 13.438 15.438C13.1473 15.7307 13.0013 16.0847 13 16.5C12.9987 16.9153 13.1447 17.2697 13.438 17.563C13.7313 17.8563 14.0853 18.002 14.5 18C14.9147 17.998 15.269 17.8523 15.563 17.563ZM9.45 17.55C9.71667 17.55 9.95 17.45 10.15 17.25L15.25 12.15C15.45 11.95 15.55 11.7167 15.55 11.45C15.55 11.1833 15.45 10.95 15.25 10.75C15.05 10.55 14.8127 10.45 14.538 10.45C14.2633 10.45 14.0257 10.55 13.825 10.75L8.75 15.825C8.55 16.025 8.45 16.2627 8.45 16.538C8.45 16.8133 8.55 17.0507 8.75 17.25C8.95 17.4493 9.18333 17.5493 9.45 17.55ZM10.563 12.562C10.8543 12.2713 11 11.9173 11 11.5C11 11.0827 10.8543 10.7287 10.563 10.438C10.2717 10.1473 9.91733 10.0013 9.5 10C9.08267 9.99868 8.72867 10.1447 8.438 10.438C8.14733 10.7313 8.00133 11.0853 8 11.5C7.99867 11.9147 8.14467 12.269 8.438 12.563C8.73133 12.857 9.08533 13.0027 9.5 13C9.91467 12.9973 10.269 12.8507 10.563 12.562Z" fill="#56A0ED"/>
</svg>
