<svg width="56" height="56" viewBox="0 0 56 56" fill="none" xmlns="http://www.w3.org/2000/svg">
<g filter="url(#filter0_i_490_18316)">
<path fill-rule="evenodd" clip-rule="evenodd" d="M28.0007 4.6665C17.692 4.6665 9.33398 13.1738 9.33398 23.6668C9.33398 34.0782 15.291 46.2302 24.587 50.5725C25.6555 51.0728 26.8208 51.3321 28.0007 51.3321C29.1805 51.3321 30.3458 51.0728 31.4143 50.5725C40.7103 46.2278 46.6673 34.0805 46.6673 23.6692C46.6673 13.1715 38.3093 4.6665 28.0007 4.6665ZM19.2507 23.3332C19.2505 21.9689 19.5694 20.6236 20.1818 19.4045C20.7942 18.1855 21.6831 17.1265 22.7777 16.3122C23.8722 15.4979 25.142 14.9508 26.4856 14.7146C27.8292 14.4783 29.2094 14.5596 30.5161 14.9517C31.8227 15.3439 33.0195 16.0362 34.011 16.9733C35.0024 17.9104 35.7611 19.0663 36.2262 20.3487C36.6914 21.6312 36.8503 23.0047 36.6902 24.3595C36.53 25.7143 36.0553 27.0128 35.304 28.1515L37.4086 30.2678C37.7265 30.5989 37.9016 31.0416 37.8962 31.5005C37.8907 31.9595 37.7052 32.3979 37.3796 32.7213C37.054 33.0448 36.6144 33.2274 36.1554 33.2298C35.6965 33.2322 35.255 33.0542 34.926 32.7342L32.833 30.6295C31.5144 31.503 29.9836 32.0028 28.4035 32.0756C26.8235 32.1485 25.2533 31.7916 23.8599 31.0431C22.4665 30.2946 21.302 29.1824 20.4904 27.8247C19.6788 26.4671 19.2503 24.9149 19.2507 23.3332ZM22.7507 23.3332C22.7507 21.9408 23.3038 20.6054 24.2883 19.6209C25.2729 18.6363 26.6083 18.0832 28.0007 18.0832C29.393 18.0832 30.7284 18.6363 31.713 19.6209C32.6975 20.6054 33.2507 21.9408 33.2507 23.3332C33.2507 24.7256 32.6975 26.0609 31.713 27.0455C30.7284 28.03 29.393 28.5832 28.0007 28.5832C26.6083 28.5832 25.2729 28.03 24.2883 27.0455C23.3038 26.0609 22.7507 24.7256 22.7507 23.3332Z" fill="#56A0ED"/>
</g>
<defs>
<filter id="filter0_i_490_18316" x="9.33398" y="4.6665" width="37.334" height="50.6655" filterUnits="userSpaceOnUse" color-interpolation-filters="sRGB">
<feFlood flood-opacity="0" result="BackgroundImageFix"/>
<feBlend mode="normal" in="SourceGraphic" in2="BackgroundImageFix" result="shape"/>
<feColorMatrix in="SourceAlpha" type="matrix" values="0 0 0 0 0 0 0 0 0 0 0 0 0 0 0 0 0 0 127 0" result="hardAlpha"/>
<feOffset dy="4"/>
<feGaussianBlur stdDeviation="2"/>
<feComposite in2="hardAlpha" operator="arithmetic" k2="-1" k3="1"/>
<feColorMatrix type="matrix" values="0 0 0 0 0 0 0 0 0 0 0 0 0 0 0 0 0 0 0.25 0"/>
<feBlend mode="normal" in2="shape" result="effect1_innerShadow_490_18316"/>
</filter>
</defs>
</svg>
