<svg width="19" height="19" viewBox="0 0 19 19" fill="none" xmlns="http://www.w3.org/2000/svg">
<path d="M18 18L13.65 13.65M8 15C8.91925 15 9.82951 14.8189 10.6788 14.4672C11.5281 14.1154 12.2997 13.5998 12.9497 12.9497C13.5998 12.2997 14.1154 11.5281 14.4672 10.6788C14.8189 9.82951 15 8.91925 15 8C15 7.08075 14.8189 6.17049 14.4672 5.32122C14.1154 4.47194 13.5998 3.70026 12.9497 3.05025C12.2997 2.40024 11.5281 1.88463 10.6788 1.53284C9.82951 1.18106 8.91925 1 8 1C6.14348 1 4.36301 1.7375 3.05025 3.05025C1.7375 4.36301 1 6.14348 1 8C1 9.85652 1.7375 11.637 3.05025 12.9497C4.36301 14.2625 6.14348 15 8 15Z" stroke="black" stroke-width="2" stroke-linecap="round" stroke-linejoin="round"/>
</svg>
