<svg width="98" height="26" viewBox="0 0 98 26" fill="none" xmlns="http://www.w3.org/2000/svg">
<path d="M82 0C86.4183 0 90 3.58172 90 8V15.7539C91.4041 16.5869 92.5218 15.927 92.8887 15.6318C93.366 15.2476 94.7399 13.7145 92.7529 11.2461C92.1511 10.5408 91.6992 9.71988 91.4258 8.83398C91.1524 7.94812 91.0625 7.01548 91.1621 6.09375C91.2617 5.17215 91.5486 4.28055 92.0049 3.47363C92.4613 2.66666 93.0779 1.9608 93.8164 1.40039C94.178 1.10929 94.641 0.973617 95.1025 1.02344C95.5641 1.07332 95.9872 1.30443 96.2783 1.66602C96.5695 2.02771 96.7052 2.49053 96.6553 2.95215C96.6054 3.41372 96.3743 3.8368 96.0127 4.12793C95.6312 4.39897 95.311 4.74767 95.0742 5.15137C94.8375 5.55503 94.6889 6.00449 94.6387 6.46973C94.5884 6.93497 94.6382 7.40567 94.7832 7.85059C94.9282 8.29545 95.1657 8.70454 95.4805 9.05078C96.0899 9.67373 96.5654 10.415 96.8779 11.2285C97.1904 12.0422 97.3336 12.9114 97.2979 13.7822C97.2621 14.6531 97.0481 15.5077 96.6699 16.293C96.2917 17.0781 95.7571 17.7778 95.0986 18.3486C94.2305 19.0061 93.2063 19.4272 92.127 19.5713C91.3712 19.671 90.605 19.6269 89.8672 19.4453C89.1867 23.1735 85.9246 26 82 26H12C9.91385 26 8.015 25.2006 6.59082 23.8926L4.33496 23.9326C1.15075 23.9233 0.043332 22.3871 0.0400391 21.0752C0.0373745 19.7632 3.09292 17.146 3.09082 16.2715C3.0882 15.2215 2.7805 15.0176 2.77539 12.9893C2.77033 10.9607 3.07772 10.758 3.0752 9.70703C3.07302 8.83382 0.00332848 6.19764 0 4.88574C-0.00312884 3.57256 1.09633 2.04449 4.28027 2.05371L6.69727 2.01172C8.10902 0.760652 9.96533 6.40865e-06 12 0H82Z" fill="#56A0ED"/>
<path d="M36.9863 15.9189C37.3961 15.919 37.7647 15.9948 38.0918 16.1465C38.4225 16.2946 38.7035 16.5044 38.9336 16.7754C39.1671 17.0427 39.3446 17.3589 39.4668 17.7236C39.589 18.085 39.6504 18.4776 39.6504 18.9004V19.0244C39.6504 19.4472 39.589 19.8398 39.4668 20.2012C39.3446 20.5623 39.1671 20.8786 38.9336 21.1494C38.7036 21.4167 38.4247 21.6266 38.0977 21.7783C37.7741 21.9265 37.4069 22 36.9971 22C36.5873 22 36.2187 21.9264 35.8916 21.7783C35.5646 21.6266 35.2844 21.4167 35.0508 21.1494C34.8208 20.8785 34.6447 20.5623 34.5225 20.2012C34.4002 19.8398 34.3389 19.4472 34.3389 19.0244V18.9004C34.3389 18.4776 34.4002 18.085 34.5225 17.7236C34.6447 17.3588 34.8208 17.0427 35.0508 16.7754C35.2808 16.5045 35.5596 16.2946 35.8867 16.1465C36.2137 15.9949 36.5803 15.919 36.9863 15.9189ZM46.8418 15.9189C47.2586 15.919 47.618 15.9913 47.9199 16.1357C48.2255 16.2803 48.4758 16.483 48.6699 16.7432C48.864 16.9997 49.0081 17.3029 49.1016 17.6533C49.195 18.0002 49.2412 18.3801 49.2412 18.792V19.2412H45.2969C45.3031 19.4913 45.3387 19.728 45.4072 19.9512C45.4863 20.1932 45.5997 20.4066 45.7471 20.5908C45.8981 20.7751 46.0799 20.9196 46.292 21.0244C46.5077 21.1292 46.7522 21.1816 47.0254 21.1816C47.3775 21.1816 47.6756 21.1092 47.9199 20.9648C48.1644 20.8203 48.3792 20.6268 48.5625 20.3848L49.166 20.8672C49.0402 21.0586 48.8806 21.2416 48.6865 21.415C48.4924 21.5885 48.2527 21.7295 47.9688 21.8379C47.6885 21.9462 47.3561 22 46.9717 22C46.5656 22 46.1969 21.9312 45.8662 21.7939C45.5391 21.653 45.2568 21.456 45.0195 21.2031C44.7859 20.9502 44.6053 20.6506 44.4795 20.3037C44.3537 19.957 44.2911 19.5777 44.291 19.166V18.9375C44.2911 18.4607 44.3608 18.0361 44.501 17.6641C44.6412 17.2883 44.8324 16.9701 45.0732 16.71C45.314 16.4499 45.5871 16.2528 45.8926 16.1191C46.1981 15.9855 46.5147 15.919 46.8418 15.9189ZM60.8838 7.64648C61.0552 7.50414 61.3157 7.62608 61.3164 7.84961V9.70605C61.3164 10.2624 61.0692 10.7598 60.6807 11.0986V13.9863C60.3666 13.8669 60.0451 13.8077 59.7168 13.8076C59.2262 13.8076 58.7728 13.9298 58.3584 14.1738C57.9444 14.4131 57.6128 14.7361 57.3652 15.1426C57.2324 15.3608 57.1357 15.5924 57.0742 15.8369C57.0748 15.9155 57.0653 15.9834 57.0342 16.0303C57.0083 16.182 56.9942 16.3388 56.9941 16.5C56.9942 16.9926 57.089 17.3787 57.2793 17.6562C57.4699 17.9337 57.7516 18.0723 58.123 18.0723C58.2706 18.0722 58.4468 18.0488 58.6514 18.001C58.8561 17.9531 59.1351 17.8329 59.4873 17.6416C59.8445 17.4501 60.3167 17.1386 60.9023 16.708V21.3828C59.8878 21.7944 58.7897 22 57.6084 22C56.7986 22 56.0122 21.8758 55.25 21.627C54.4927 21.3781 53.811 21.0137 53.2061 20.5352C52.6061 20.0566 52.1267 19.4671 51.7695 18.7686C51.4174 18.0701 51.2413 17.2703 51.2412 16.3711C51.2413 15.4188 51.4079 14.5485 51.7412 13.7637C52.0794 12.9742 52.5587 12.294 53.1777 11.7246C53.3312 11.5823 53.4917 11.4474 53.6592 11.3213V10.7627C53.6589 10.4892 53.4508 10.264 53.1855 10.2373L53.0762 10.2324C52.8105 10.2043 52.6025 9.97994 52.6025 9.70605C52.603 9.41437 52.839 9.17871 53.1309 9.17871C53.9779 9.17895 54.6674 9.84518 54.71 10.6816C54.9245 10.577 55.1473 10.4815 55.3789 10.3965C56.0708 10.1426 56.8233 9.99302 57.6357 9.94629C57.6256 9.86774 57.6191 9.78738 57.6191 9.70605V7.84961C57.6198 7.6259 57.8803 7.5036 58.0518 7.64648L58.9395 8.38574H59.9961L60.8838 7.64648ZM33.623 14.8564H29.7998V17.5498H33.0889V18.4062H29.7998V21.8916H28.7588V14H33.623V14.8564ZM43.2812 15.9189C43.3531 15.919 43.436 15.9283 43.5293 15.9463C43.6223 15.9607 43.6867 15.9771 43.7227 15.9951L43.7178 16.9268C43.6351 16.9087 43.5559 16.8981 43.4805 16.8945C43.4086 16.8873 43.3259 16.8838 43.2324 16.8838C43.0024 16.8838 42.7992 16.9199 42.623 16.9922C42.4469 17.0644 42.298 17.1659 42.1758 17.2959C42.0621 17.4169 41.9705 17.5598 41.9004 17.7246V21.8916H40.9023V16.0273H41.873L41.8926 16.7012C41.8951 16.697 41.8978 16.6927 41.9004 16.6885C42.0477 16.4465 42.2346 16.2587 42.4609 16.125C42.691 15.9877 42.9649 15.9189 43.2812 15.9189ZM69.165 10.001C69.4459 10.001 69.7197 10.0653 69.9863 10.1943C70.2579 10.3236 70.4676 10.523 70.6152 10.791L76.7041 21.7197H70.9082L70.458 20.585H67.3711L66.9854 21.7197H61.9404L67.6143 10.834C67.7524 10.5707 67.9672 10.3672 68.2578 10.2236C68.5483 10.0753 68.8507 10.001 69.165 10.001ZM76.9795 10.252C77.008 10.4024 77.0408 10.5539 77.0801 10.7041H83.8838C83.6278 11.0199 83.3582 11.2016 83.0801 11.3066C82.6104 11.4838 82.0633 11.445 81.4443 11.3574C80.8253 11.2698 80.1413 11.1281 79.4287 11.1787C78.7162 11.2294 77.9907 11.4853 77.3135 12.1465C76.8675 12.5821 77.3987 13.0221 77.7734 12.6143C78.323 12.0153 78.9242 11.8602 79.5244 11.8174C80.1247 11.7747 80.7548 11.8894 81.3984 11.9805C82.0422 12.0715 82.6967 12.1411 83.332 11.9014C83.8418 11.7089 84.3088 11.3165 84.7012 10.6592C84.7932 10.5236 84.8707 10.3867 84.9375 10.252H86.0811V13.9717H82.9004V21.7188H78.4561V13.9717H75.2764V10.252H76.9795ZM36.9863 16.7432C36.7132 16.7432 36.4722 16.8004 36.2637 16.916C36.0588 17.0316 35.8863 17.1912 35.7461 17.3936C35.6096 17.5921 35.5068 17.8212 35.4385 18.0811C35.3702 18.3376 35.3359 18.6113 35.3359 18.9004V19.0244C35.3359 19.3169 35.3702 19.5935 35.4385 19.8535C35.5068 20.1101 35.6095 20.3384 35.7461 20.5371C35.8863 20.7357 36.0611 20.8932 36.2695 21.0088C36.4779 21.1206 36.7205 21.1767 36.9971 21.1768C37.2703 21.1768 37.5099 21.1208 37.7148 21.0088C37.9233 20.8932 38.0958 20.7358 38.2324 20.5371C38.369 20.3384 38.4708 20.1101 38.5391 19.8535C38.6109 19.5934 38.6475 19.317 38.6475 19.0244V18.9004C38.6475 18.6113 38.611 18.3376 38.5391 18.0811C38.4708 17.8212 38.3666 17.5921 38.2266 17.3936C38.09 17.1912 37.9175 17.0316 37.709 16.916C37.5041 16.8004 37.2631 16.7432 36.9863 16.7432ZM46.8418 16.7432C46.6153 16.7432 46.4063 16.7911 46.2158 16.8887C46.0255 16.9826 45.8621 17.1238 45.7256 17.3115C45.589 17.4994 45.4827 17.7291 45.4072 18C45.3707 18.1311 45.3431 18.2722 45.3242 18.4229H48.2441V18.3467C48.2297 18.0867 48.1754 17.8335 48.082 17.5879C47.9921 17.3424 47.848 17.1403 47.6504 16.9814C47.4527 16.8225 47.1832 16.7432 46.8418 16.7432ZM67.7217 18.3086H70.0293L68.9365 15.207L67.7217 18.3086ZM22.7295 6.23145C23.1251 6.23145 23.4664 6.29943 23.7529 6.43652C24.0428 6.57361 24.2797 6.76594 24.4639 7.0127C24.648 7.25606 24.7844 7.54447 24.873 7.87695C24.9616 8.20586 25.0058 8.56552 25.0059 8.95605V9.38281H21.2637C21.2696 9.62011 21.3041 9.84482 21.3691 10.0566C21.4442 10.2862 21.5516 10.4883 21.6914 10.6631C21.8346 10.8379 22.0068 10.9748 22.208 11.0742C22.4126 11.1736 22.6442 11.2236 22.9033 11.2236C23.2376 11.2236 23.521 11.1547 23.7529 11.0176C23.9847 10.8805 24.1875 10.6973 24.3613 10.4678L24.9346 10.9258C24.8153 11.1072 24.6634 11.28 24.4795 11.4443C24.2953 11.6089 24.0683 11.7429 23.7988 11.8457C23.5328 11.9485 23.2174 12 22.8525 12C22.4672 12 22.1175 11.9349 21.8037 11.8047C21.4933 11.671 21.2251 11.4841 21 11.2441C20.7784 11.0043 20.6086 10.7195 20.4893 10.3906C20.3699 10.0616 20.3096 9.7013 20.3096 9.31055V9.09473C20.3096 8.64242 20.3768 8.23968 20.5098 7.88672C20.6427 7.53044 20.8234 7.22912 21.0518 6.98242C21.2802 6.73569 21.5393 6.5487 21.8291 6.42188C22.119 6.29507 22.4192 6.23146 22.7295 6.23145ZM28.2656 6.23145C28.668 6.23146 29.0231 6.29943 29.3301 6.43652C29.6401 6.57354 29.8818 6.78129 30.0557 7.05859C30.233 7.3328 30.3223 7.67803 30.3223 8.09277V10.6836C30.3223 10.8687 30.3375 11.0663 30.3682 11.2754C30.4022 11.4842 30.4519 11.6638 30.5166 11.8145V11.8975H29.5293C29.4815 11.7878 29.4443 11.6416 29.417 11.46C29.4093 11.4075 29.404 11.3559 29.3984 11.3057C29.3527 11.354 29.3048 11.403 29.2529 11.4502C29.0791 11.6078 28.8709 11.7395 28.6289 11.8457C28.3902 11.9485 28.1204 12 27.8203 12C27.4452 12 27.116 11.9266 26.833 11.7793C26.5534 11.6319 26.3356 11.4342 26.1787 11.1875C26.0252 10.9373 25.9482 10.6581 25.9482 10.3496C25.9482 10.0514 26.0061 9.78872 26.1221 9.5625C26.238 9.33308 26.405 9.1429 26.623 8.99219C26.8413 8.83795 27.1042 8.72141 27.4111 8.64258C27.7181 8.56374 28.0609 8.52442 28.4395 8.52441H29.376V8.08203C29.376 7.8629 29.3317 7.6727 29.2432 7.51172C29.1579 7.34719 29.0275 7.21998 28.8535 7.13086C28.6796 7.04186 28.4646 6.99707 28.209 6.99707C27.9704 6.9971 27.7608 7.03886 27.5801 7.12109C27.4028 7.20334 27.2625 7.3107 27.1602 7.44434C27.0612 7.57801 27.0117 7.72271 27.0117 7.87695H26.0654C26.0654 7.67818 26.1165 7.48051 26.2188 7.28516C26.3211 7.0898 26.4682 6.91352 26.6592 6.75586C26.8535 6.59482 27.0852 6.46754 27.3545 6.375C27.6273 6.27903 27.9314 6.23145 28.2656 6.23145ZM33.0967 6.33496H34.1299V7.06445H33.0967V10.5195C33.0967 10.708 33.1256 10.8503 33.1836 10.9463C33.2415 11.0421 33.3163 11.1058 33.4082 11.1367C33.5002 11.1675 33.5995 11.1826 33.7051 11.1826C33.7835 11.1826 33.8659 11.1758 33.9512 11.1621C34.0397 11.145 34.1061 11.1314 34.1504 11.1211L34.1553 11.8975C34.0803 11.9214 33.981 11.9443 33.8584 11.9648C33.7391 11.9888 33.5941 12 33.4238 12C33.192 12 32.9785 11.9538 32.7842 11.8613C32.59 11.7688 32.4352 11.6142 32.3193 11.3984C32.2069 11.1791 32.1504 10.8847 32.1504 10.5146V7.06445H31.1377V6.33496H32.1504V4.98242H33.0967V6.33496ZM43.1846 6.23145C43.5801 6.23145 43.9216 6.29949 44.208 6.43652C44.4978 6.57359 44.7348 6.76599 44.9189 7.0127C45.1031 7.25606 45.2394 7.54447 45.3281 7.87695C45.4167 8.20587 45.4619 8.5655 45.4619 8.95605V9.38281H41.7197C41.7257 9.6201 41.7591 9.84483 41.8242 10.0566C41.8992 10.2862 42.0067 10.4883 42.1465 10.6631C42.2897 10.8379 42.4619 10.9748 42.6631 11.0742C42.8676 11.1736 43.0994 11.2236 43.3584 11.2236C43.6926 11.2236 43.9761 11.1547 44.208 11.0176C44.4398 10.8805 44.6425 10.6973 44.8164 10.4678L45.3896 10.9258C45.2704 11.1073 45.1185 11.28 44.9346 11.4443C44.7504 11.6089 44.5233 11.7429 44.2539 11.8457C43.9879 11.9485 43.6725 12 43.3076 12C42.9222 12 42.5725 11.9349 42.2588 11.8047C41.9485 11.671 41.6811 11.484 41.4561 11.2441C41.2344 11.0042 41.0637 10.7197 40.9443 10.3906C40.825 10.0616 40.7646 9.70129 40.7646 9.31055V9.09473C40.7647 8.64242 40.8319 8.23968 40.9648 7.88672C41.0978 7.53046 41.2785 7.22912 41.5068 6.98242C41.7352 6.73575 41.9944 6.54869 42.2842 6.42188C42.574 6.2951 42.8743 6.23149 43.1846 6.23145ZM13.1592 9.53223L13.3066 10.5225L13.5117 9.63477L14.9902 4.41113H15.8145L17.252 9.63477L17.4609 10.5449L17.6201 9.52637L18.7715 4.41113H19.7588L17.958 11.8975H17.0625L15.5273 6.44238L15.4082 5.86914L15.292 6.44238L13.7012 11.8975H12.8057L11 4.41113H11.9824L13.1592 9.53223ZM36.1855 7C36.1889 6.99586 36.1919 6.99142 36.1953 6.9873C36.3931 6.74744 36.6286 6.56188 36.9014 6.43164C37.1776 6.29798 37.4832 6.23146 37.8174 6.23145C38.0902 6.23145 38.3364 6.26932 38.5547 6.34473C38.7727 6.41672 38.9589 6.53336 39.1123 6.69434C39.269 6.85536 39.3879 7.06446 39.4697 7.32129C39.5516 7.57493 39.5928 7.8852 39.5928 8.25195V11.8975H38.6416V8.24121C38.6416 7.95008 38.5989 7.71671 38.5137 7.54199C38.4284 7.36387 38.3033 7.23603 38.1396 7.15723C37.9759 7.07496 37.7749 7.0332 37.5361 7.0332C37.3008 7.0332 37.086 7.08323 36.8916 7.18262C36.7007 7.28198 36.5353 7.41903 36.3955 7.59375C36.3152 7.69662 36.2458 7.80901 36.1855 7.92969V11.8975H35.2393V4H36.1855V7ZM48.8213 6.23145C48.8894 6.23145 48.9681 6.23974 49.0566 6.25684C49.1453 6.27055 49.2071 6.28657 49.2412 6.30371L49.2363 7.1875C49.1579 7.17036 49.0824 7.16065 49.0107 7.15723C48.9426 7.15038 48.864 7.14648 48.7754 7.14648C48.5572 7.1465 48.3643 7.18049 48.1973 7.24902C48.0302 7.31757 47.8884 7.41373 47.7725 7.53711C47.6644 7.65212 47.5783 7.78862 47.5117 7.94531V11.8975H46.5654V6.33398H47.4863L47.5049 6.97266C47.5072 6.96887 47.5094 6.96471 47.5117 6.96094C47.6515 6.73142 47.8292 6.55354 48.0439 6.42676C48.2621 6.29655 48.5213 6.23149 48.8213 6.23145ZM28.5928 9.19238C28.3236 9.19239 28.0834 9.21527 27.8721 9.25977C27.6606 9.30089 27.4831 9.36452 27.3398 9.4502C27.1966 9.53588 27.0868 9.64321 27.0117 9.77344C26.9367 9.90018 26.8995 10.0495 26.8994 10.2207C26.8994 10.3955 26.9391 10.5553 27.0176 10.6992C27.096 10.8431 27.2133 10.9583 27.3701 11.0439C27.5304 11.1262 27.7271 11.167 27.959 11.167C28.2485 11.1669 28.5041 11.1056 28.7256 10.9824C28.9473 10.859 29.1233 10.7075 29.2529 10.5293C29.3037 10.4612 29.3431 10.3927 29.376 10.3262V9.19238H28.5928ZM82.9883 6.93066C83.5717 6.94115 84.0741 7.13627 84.4531 7.44531C85.2031 8.05702 85.4945 9.12861 84.9375 10.252H76.9795C76.8162 9.38967 76.83 8.54385 77.0439 7.95605C77.4262 8.12022 77.8642 8.20617 78.3242 8.21191C78.9014 8.21901 79.4743 8.07785 79.9277 7.77051C80.0211 7.83106 80.1133 7.89372 80.2041 7.95801L80.3154 8.03613L80.4219 7.95117C81.3234 7.23221 82.1822 6.93639 82.917 6.93066C82.9406 6.93048 82.9649 6.93025 82.9883 6.93066ZM60.2598 9.37598C60.0785 9.37598 59.9301 9.52492 59.9297 9.70605C59.9297 9.88757 60.0782 10.0361 60.2598 10.0361C60.4412 10.036 60.5898 9.88748 60.5898 9.70605C60.5894 9.52501 60.4409 9.37612 60.2598 9.37598ZM58.6758 9.37598C58.4945 9.37598 58.3462 9.52492 58.3457 9.70605C58.3457 9.79453 58.3813 9.87514 58.4385 9.93457C58.5711 9.93876 58.7206 9.94537 58.8867 9.95605C58.9583 9.89538 59.0059 9.80656 59.0059 9.70605C59.0054 9.52509 58.8568 9.37626 58.6758 9.37598ZM22.7295 7.0127C22.5147 7.01271 22.3165 7.05884 22.1357 7.15137C21.9551 7.24047 21.8004 7.37461 21.6709 7.55273C21.5413 7.73097 21.4408 7.94898 21.3691 8.20605C21.3345 8.33035 21.3079 8.46373 21.29 8.60645H24.0596V8.53418C24.0459 8.28756 23.9949 8.04738 23.9062 7.81445C23.821 7.5816 23.6845 7.38998 23.4971 7.23926C23.3095 7.08844 23.0535 7.0127 22.7295 7.0127ZM43.1846 7.0127C42.97 7.01274 42.7724 7.05899 42.5918 7.15137C42.411 7.24049 42.2556 7.3745 42.126 7.55273C41.9964 7.73097 41.8958 7.949 41.8242 8.20605C41.7896 8.33034 41.763 8.46374 41.7451 8.60645H44.5146V8.53418C44.501 8.28756 44.4499 8.04738 44.3613 7.81445C44.2761 7.58158 44.1396 7.38998 43.9521 7.23926C43.7646 7.08844 43.5086 7.0127 43.1846 7.0127ZM77.2471 4.98047L77.3838 4.93652C77.9089 4.76663 78.7673 4.79815 79.2715 4.93848L79.4053 4.97656L79.96 4.03711C80.6103 5.37621 80.5838 6.31126 80.2461 6.91113C79.8843 7.55317 79.1361 7.86036 78.3291 7.85059C77.3863 7.83887 76.6083 7.46959 76.2588 6.80176C75.9318 6.1765 75.9549 5.24597 76.6533 4L77.2471 4.98047ZM77.2393 5.94531C77.0772 5.94444 76.884 6.0042 76.6641 6.14062C76.8035 6.7196 77.1301 7.00048 77.8477 6.6543C77.8069 6.24258 77.5957 5.94746 77.2393 5.94531ZM79.3525 5.94531C78.9958 5.94725 78.7849 6.24245 78.7441 6.6543C79.4615 7.00031 79.7873 6.71943 79.9268 6.14062C79.7069 6.00422 79.5146 5.94455 79.3525 5.94531Z" fill="white"/>
</svg>
