<svg width="16" height="16" viewBox="0 0 16 16" fill="none" xmlns="http://www.w3.org/2000/svg">
<g clip-path="url(#clip0_428_14653)">
<path d="M14.4069 10.9062L13.3444 10.2925C13.5366 10.0945 13.7572 9.92596 13.9988 9.7925C14.1567 9.70345 14.2731 9.55561 14.3225 9.38117C14.372 9.20673 14.3506 9.01981 14.2629 8.86111C14.1752 8.70241 14.0283 8.58478 13.8543 8.53383C13.6803 8.48287 13.4932 8.50273 13.3338 8.58906C12.8725 8.84437 12.4637 9.18475 12.1291 9.59219L9.37564 8L12.1285 6.41062C12.463 6.81812 12.8718 7.1585 13.3331 7.41375C13.4122 7.45833 13.4993 7.48681 13.5895 7.49755C13.6796 7.50829 13.771 7.50106 13.8583 7.4763C13.9457 7.45153 14.0272 7.40972 14.0983 7.35327C14.1694 7.29681 14.2286 7.22684 14.2725 7.14739C14.3164 7.06793 14.3442 6.98057 14.3541 6.89034C14.3641 6.80011 14.3561 6.7088 14.3306 6.62168C14.3051 6.53456 14.2626 6.45335 14.2055 6.38275C14.1484 6.31214 14.078 6.25354 13.9981 6.21031C13.7566 6.07677 13.5361 5.90829 13.3438 5.71031L14.4063 5.09656C14.4875 5.05311 14.5592 4.99376 14.6171 4.92205C14.675 4.85033 14.7179 4.76771 14.7432 4.67909C14.7685 4.59048 14.7757 4.49768 14.7645 4.40621C14.7532 4.31475 14.7236 4.22648 14.6776 4.14666C14.6315 4.06684 14.5699 3.99709 14.4963 3.94156C14.4228 3.88604 14.3388 3.84587 14.2494 3.82344C14.16 3.80102 14.067 3.79679 13.976 3.81101C13.8849 3.82524 13.7977 3.85763 13.7194 3.90625L12.6569 4.51969C12.5812 4.25405 12.5452 3.97867 12.55 3.7025C12.552 3.61206 12.5361 3.52211 12.5033 3.43781C12.4704 3.35352 12.4213 3.27653 12.3586 3.21127C12.296 3.14601 12.2211 3.09375 12.1382 3.0575C12.0553 3.02124 11.9661 3.00171 11.8756 3H11.8628C11.6827 2.99997 11.5097 3.07064 11.3812 3.19681C11.2526 3.32299 11.1787 3.49458 11.1753 3.67469C11.1656 4.20153 11.2558 4.72544 11.441 5.21875L8.68814 6.80906V3.63063C9.20826 3.54466 9.70738 3.3609 10.1591 3.08906C10.3153 2.99495 10.4277 2.84265 10.4716 2.66566C10.5155 2.48868 10.4872 2.3015 10.3931 2.14531C10.299 1.98912 10.1467 1.87672 9.96974 1.83282C9.79275 1.78893 9.60558 1.81714 9.44939 1.91125C9.21261 2.05354 8.95608 2.16 8.68814 2.22719V1.1875C8.68814 1.00516 8.6157 0.830295 8.48677 0.701364C8.35784 0.572433 8.18297 0.5 8.00064 0.5C7.8183 0.5 7.64343 0.572433 7.5145 0.701364C7.38557 0.830295 7.31314 1.00516 7.31314 1.1875V2.22719C7.04519 2.16 6.78866 2.05354 6.55189 1.91125C6.3957 1.81714 6.20852 1.78893 6.03154 1.83282C5.85455 1.87672 5.70225 1.98912 5.60814 2.14531C5.51403 2.3015 5.48582 2.48868 5.52971 2.66566C5.57361 2.84265 5.68601 2.99495 5.8422 3.08906C6.29389 3.3609 6.79301 3.54466 7.31314 3.63063V6.80906L4.56033 5.21875C4.7458 4.72528 4.83614 4.20115 4.82658 3.67406C4.82322 3.49396 4.74931 3.32236 4.62074 3.19619C4.49217 3.07002 4.31921 2.99934 4.13908 2.99938H4.12564C4.03535 3.00104 3.94627 3.02048 3.8635 3.05658C3.78072 3.09268 3.70587 3.14473 3.64322 3.20976C3.58057 3.2748 3.53134 3.35154 3.49835 3.4356C3.46536 3.51966 3.44925 3.6094 3.45095 3.69969C3.45601 3.97626 3.4201 4.25206 3.34439 4.51813L2.28189 3.90625C2.20365 3.85958 2.11691 3.82892 2.02671 3.81606C1.93652 3.80321 1.84467 3.8084 1.75651 3.83135C1.66834 3.8543 1.58561 3.89455 1.51313 3.94975C1.44066 4.00495 1.37987 4.074 1.33432 4.1529C1.28876 4.23179 1.25934 4.31896 1.24776 4.40933C1.23618 4.49969 1.24268 4.59146 1.26688 4.67929C1.29108 4.76712 1.3325 4.84927 1.38872 4.92096C1.44494 4.99264 1.51485 5.05244 1.59439 5.09688L2.65689 5.71063C2.46457 5.9086 2.24406 6.07708 2.00251 6.21063C1.92269 6.25385 1.85221 6.31246 1.79515 6.38306C1.73809 6.45366 1.69558 6.53487 1.67007 6.62199C1.64456 6.70911 1.63656 6.80042 1.64652 6.89065C1.65649 6.98088 1.68422 7.06824 1.72813 7.1477C1.77203 7.22715 1.83124 7.29713 1.90233 7.35358C1.97342 7.41003 2.05499 7.45185 2.14232 7.47661C2.22966 7.50137 2.32103 7.5086 2.41117 7.49786C2.50131 7.48713 2.58844 7.45865 2.66751 7.41406C3.12881 7.15875 3.53758 6.81838 3.8722 6.41094L6.62564 8L3.87283 9.58937C3.5382 9.18193 3.12944 8.84156 2.66814 8.58625C2.58906 8.54167 2.50194 8.51319 2.4118 8.50245C2.32166 8.49172 2.23028 8.49894 2.14295 8.5237C2.05561 8.54847 1.97404 8.59028 1.90295 8.64673C1.83186 8.70319 1.77266 8.77316 1.72875 8.85261C1.68485 8.93207 1.65711 9.01943 1.64715 9.10966C1.63718 9.19989 1.64519 9.2912 1.6707 9.37832C1.69621 9.46544 1.73872 9.54665 1.79578 9.61725C1.85283 9.68786 1.92331 9.74646 2.00314 9.78969C2.24469 9.92323 2.46519 10.0917 2.65751 10.2897L1.59439 10.9062C1.51485 10.9507 1.44494 11.0105 1.38872 11.0822C1.3325 11.1539 1.29108 11.236 1.26688 11.3238C1.24268 11.4117 1.23618 11.5034 1.24776 11.5938C1.25934 11.6842 1.28876 11.7713 1.33432 11.8502C1.37987 11.9291 1.44066 11.9982 1.51313 12.0534C1.58561 12.1086 1.66834 12.1488 1.75651 12.1718C1.84467 12.1947 1.93652 12.1999 2.02671 12.1871C2.11691 12.1742 2.20365 12.1435 2.28189 12.0969L3.34439 11.4834C3.42008 11.7491 3.45609 12.0245 3.45126 12.3006C3.44808 12.4828 3.51732 12.6587 3.64376 12.7898C3.7702 12.921 3.94351 12.9966 4.12564 13H4.13845C4.31859 13 4.49154 12.9294 4.62011 12.8032C4.74868 12.677 4.82259 12.5054 4.82595 12.3253C4.83564 11.7985 4.74551 11.2746 4.56033 10.7812L7.31314 9.19094V12.3694C6.79301 12.4553 6.29389 12.6391 5.8422 12.9109C5.68601 13.005 5.57361 13.1573 5.52971 13.3343C5.48582 13.5113 5.51403 13.6985 5.60814 13.8547C5.70225 14.0109 5.85455 14.1233 6.03154 14.1672C6.20852 14.2111 6.3957 14.1829 6.55189 14.0887C6.78866 13.9465 7.04519 13.84 7.31314 13.7728V14.8125C7.31314 14.9948 7.38557 15.1697 7.5145 15.2986C7.64343 15.4276 7.8183 15.5 8.00064 15.5C8.18297 15.5 8.35784 15.4276 8.48677 15.2986C8.6157 15.1697 8.68814 14.9948 8.68814 14.8125V13.7728C8.95608 13.84 9.21261 13.9465 9.44939 14.0887C9.60558 14.1829 9.79275 14.2111 9.96974 14.1672C10.1467 14.1233 10.299 14.0109 10.3931 13.8547C10.4872 13.6985 10.5155 13.5113 10.4716 13.3343C10.4277 13.1573 10.3153 13.005 10.1591 12.9109C9.70738 12.6391 9.20826 12.4553 8.68814 12.3694V9.19094L11.441 10.7812C11.2555 11.2747 11.1651 11.7988 11.1747 12.3259C11.1781 12.506 11.252 12.6776 11.3805 12.8038C11.5091 12.93 11.6821 13.0007 11.8622 13.0006H11.8756C11.9659 12.999 12.055 12.9795 12.1378 12.9434C12.2206 12.9073 12.2954 12.8553 12.3581 12.7902C12.4207 12.7252 12.4699 12.6485 12.5029 12.5644C12.5359 12.4803 12.552 12.3906 12.5503 12.3003C12.5453 12.0237 12.5812 11.7479 12.6569 11.4819L13.7194 12.0953C13.7976 12.1455 13.8852 12.1794 13.9769 12.1948C14.0686 12.2102 14.1625 12.2069 14.2529 12.1849C14.3432 12.163 14.4282 12.123 14.5027 12.0673C14.5771 12.0116 14.6395 11.9414 14.686 11.8609C14.7326 11.7804 14.7623 11.6913 14.7734 11.599C14.7845 11.5067 14.7768 11.4131 14.7507 11.3239C14.7246 11.2346 14.6807 11.1516 14.6216 11.0798C14.5625 11.008 14.4895 10.949 14.4069 10.9062Z" fill="black"/>
</g>
<defs>
<clipPath id="clip0_428_14653">
<rect width="16" height="16" fill="white"/>
</clipPath>
</defs>
</svg>
