<svg width="48" height="48" viewBox="0 0 48 48" fill="none" xmlns="http://www.w3.org/2000/svg">
<path d="M36 21.8472C36 22.4405 35.8241 23.0206 35.4944 23.5139C35.1648 24.0073 34.6962 24.3918 34.148 24.6188C33.5999 24.8459 32.9967 24.9053 32.4147 24.7896C31.8328 24.6738 31.2982 24.3881 30.8787 23.9685C30.4591 23.549 30.1734 23.0144 30.0576 22.4325C29.9419 21.8505 30.0013 21.2473 30.2284 20.6992C30.4554 20.151 30.8399 19.6824 31.3333 19.3528C31.8266 19.0231 32.4067 18.8472 33 18.8472C33.7956 18.8472 34.5587 19.1633 35.1213 19.7259C35.6839 20.2885 36 21.0516 36 21.8472ZM18 21.8472C18 21.2539 17.8241 20.6738 17.4944 20.1805C17.1648 19.6871 16.6962 19.3026 16.1481 19.0756C15.5999 18.8485 14.9967 18.7891 14.4147 18.9048C13.8328 19.0206 13.2982 19.3063 12.8787 19.7259C12.4591 20.1454 12.1734 20.68 12.0576 21.2619C11.9419 21.8439 12.0013 22.4471 12.2284 22.9953C12.4554 23.5434 12.8399 24.012 13.3333 24.3416C13.8266 24.6713 14.4067 24.8472 15 24.8472C15.7957 24.8472 16.5587 24.5311 17.1213 23.9685C17.6839 23.4059 18 22.6429 18 21.8472ZM20.1429 19.7043C20.7362 19.7043 21.3162 19.5284 21.8096 19.1988C22.3029 18.8691 22.6874 18.4006 22.9145 17.8524C23.1416 17.3042 23.201 16.701 23.0852 16.1191C22.9695 15.5371 22.6837 15.0026 22.2642 14.583C21.8446 14.1635 21.3101 13.8777 20.7281 13.762C20.1462 13.6462 19.543 13.7056 18.9948 13.9327C18.4466 14.1598 17.9781 14.5443 17.6484 15.0376C17.3188 15.531 17.1429 16.111 17.1429 16.7043C17.1429 17.5 17.4589 18.2631 18.0215 18.8257C18.5841 19.3883 19.3472 19.7043 20.1429 19.7043ZM27.8571 19.7043C28.4505 19.7043 29.0305 19.5284 29.5239 19.1988C30.0172 18.8691 30.4017 18.4006 30.6288 17.8524C30.8558 17.3042 30.9153 16.701 30.7995 16.1191C30.6837 15.5371 30.398 15.0026 29.9785 14.583C29.5589 14.1635 29.0244 13.8777 28.4424 13.762C27.8605 13.6462 27.2573 13.7056 26.7091 13.9327C26.1609 14.1598 25.6924 14.5443 25.3627 15.0376C25.0331 15.531 24.8571 16.111 24.8571 16.7043C24.8571 17.5 25.1732 18.2631 25.7358 18.8257C26.2984 19.3883 27.0615 19.7043 27.8571 19.7043ZM30.3343 26.2251C29.8989 25.9849 29.5152 25.6612 29.205 25.2725C28.8949 24.8839 28.6644 24.4379 28.5268 23.9601C28.2418 22.98 27.6464 22.1188 26.8301 21.5061C26.0138 20.8934 25.0207 20.5621 24 20.5621C22.9793 20.5621 21.9862 20.8934 21.1699 21.5061C20.3536 22.1188 19.7582 22.98 19.4732 23.9601C19.1979 24.9215 18.5525 25.7345 17.6786 26.2208C16.8402 26.6744 16.177 27.3946 15.7939 28.2675C15.4107 29.1403 15.3295 30.116 15.5631 31.0402C15.7966 31.9643 16.3316 32.7843 17.0835 33.3703C17.8353 33.9563 18.7611 34.2749 19.7143 34.2758C20.2855 34.2774 20.8512 34.1633 21.3771 33.9404C23.054 33.249 24.9363 33.249 26.6132 33.9404C27.6289 34.3821 28.7761 34.4135 29.8144 34.028C30.8527 33.6424 31.7014 32.8699 32.1826 31.8723C32.6638 30.8747 32.7401 29.7296 32.3955 28.677C32.0509 27.6244 31.3122 26.745 30.3343 26.2251Z" fill="#56A0ED"/>
</svg>
