<svg width="40" height="40" viewBox="0 0 40 40" fill="none" xmlns="http://www.w3.org/2000/svg">
<path d="M28.334 2C29.218 2 30.0659 2.42143 30.691 3.17159C31.3161 3.92175 31.6673 4.93919 31.6673 6.00007V36.0006C31.6672 36.3508 31.5905 36.6949 31.4448 36.9984C31.2991 37.3019 31.0895 37.5541 30.8371 37.7299C30.5846 37.9057 30.2981 37.9988 30.0063 38C29.7144 38.0012 29.4274 37.9104 29.174 37.7366L21.654 32.5805C21.1504 32.2354 20.5806 32.0538 20.0007 32.0538C19.4207 32.0538 18.8509 32.2354 18.3473 32.5805L10.8273 37.7366C10.5739 37.9104 10.2869 38.0012 9.99502 38C9.70316 37.9988 9.41667 37.9057 9.16422 37.7299C8.91178 37.5541 8.70222 37.3019 8.55652 36.9984C8.41081 36.6949 8.33408 36.3508 8.33398 36.0006V6.00007C8.33398 4.93919 8.68517 3.92175 9.31029 3.17159C9.93542 2.42143 10.7833 2 11.6673 2H28.334Z" fill="#FFA500" stroke="#FFA500" stroke-width="2" stroke-linecap="round" stroke-linejoin="round"/>
<path d="M28 15.0619C28 15.4574 27.8827 15.8441 27.6629 16.173C27.4432 16.5019 27.1308 16.7583 26.7654 16.9096C26.3999 17.061 25.9978 17.1006 25.6098 17.0234C25.2219 16.9463 24.8655 16.7558 24.5858 16.4761C24.3061 16.1964 24.1156 15.84 24.0384 15.4521C23.9613 15.0641 24.0009 14.662 24.1522 14.2965C24.3036 13.9311 24.56 13.6187 24.8889 13.3989C25.2178 13.1792 25.6044 13.0619 26 13.0619C26.5304 13.0619 27.0391 13.2726 27.4142 13.6477C27.7893 14.0227 28 14.5314 28 15.0619ZM16 15.0619C16 14.6663 15.8827 14.2796 15.6629 13.9507C15.4432 13.6218 15.1308 13.3655 14.7654 13.2141C14.3999 13.0627 13.9978 13.0231 13.6098 13.1003C13.2219 13.1775 12.8655 13.368 12.5858 13.6477C12.3061 13.9274 12.1156 14.2837 12.0384 14.6717C11.9613 15.0597 12.0009 15.4618 12.1522 15.8272C12.3036 16.1927 12.56 16.505 12.8889 16.7248C13.2178 16.9446 13.6044 17.0619 14 17.0619C14.5304 17.0619 15.0391 16.8512 15.4142 16.4761C15.7893 16.101 16 15.5923 16 15.0619ZM17.4286 13.6333C17.8241 13.6333 18.2108 13.516 18.5397 13.2962C18.8686 13.0765 19.125 12.7641 19.2763 12.3987C19.4277 12.0332 19.4673 11.6311 19.3901 11.2431C19.313 10.8552 19.1225 10.4988 18.8428 10.2191C18.5631 9.93938 18.2067 9.7489 17.8188 9.67173C17.4308 9.59456 17.0287 9.63417 16.6632 9.78554C16.2978 9.93692 15.9854 10.1933 15.7656 10.5222C15.5459 10.8511 15.4286 11.2377 15.4286 11.6333C15.4286 12.1637 15.6393 12.6724 16.0144 13.0475C16.3894 13.4226 16.8981 13.6333 17.4286 13.6333ZM22.5714 13.6333C22.967 13.6333 23.3537 13.516 23.6826 13.2962C24.0115 13.0765 24.2678 12.7641 24.4192 12.3987C24.5706 12.0332 24.6102 11.6311 24.533 11.2431C24.4558 10.8552 24.2653 10.4988 23.9856 10.2191C23.7059 9.93938 23.3496 9.7489 22.9616 9.67173C22.5736 9.59456 22.1715 9.63417 21.8061 9.78554C21.4406 9.93692 21.1283 10.1933 20.9085 10.5222C20.6887 10.8511 20.5714 11.2377 20.5714 11.6333C20.5714 12.1637 20.7821 12.6724 21.1572 13.0475C21.5323 13.4226 22.041 13.6333 22.5714 13.6333ZM24.2229 17.9804C23.9326 17.8203 23.6768 17.6045 23.47 17.3454C23.2632 17.0863 23.1096 16.789 23.0179 16.4704C22.8279 15.817 22.4309 15.243 21.8867 14.8345C21.3425 14.426 20.6805 14.2051 20 14.2051C19.3195 14.2051 18.6575 14.426 18.1133 14.8345C17.5691 15.243 17.1721 15.817 16.9821 16.4704C16.7986 17.1114 16.3683 17.6534 15.7857 17.9776C15.2268 18.28 14.7847 18.7601 14.5292 19.342C14.2738 19.9239 14.2197 20.5744 14.3754 21.1905C14.5311 21.8066 14.8878 22.3533 15.389 22.7439C15.8902 23.1346 16.5074 23.347 17.1429 23.3476C17.5237 23.3486 17.9008 23.2726 18.2514 23.124C19.3693 22.6631 20.6242 22.6631 21.7421 23.124C22.4193 23.4185 23.1841 23.4394 23.8763 23.1824C24.5685 22.9253 25.1343 22.4103 25.4551 21.7453C25.7759 21.0802 25.8267 20.3168 25.597 19.6151C25.3673 18.9133 24.8748 18.3278 24.2229 17.9812V17.9804Z" fill="white"/>
</svg>
