<svg width="24" height="24" viewBox="0 0 24 24" fill="none" xmlns="http://www.w3.org/2000/svg">
<path d="M10.9998 6C13.7598 6 15.9998 8.24 15.9998 11C15.9998 13.76 13.7598 16 10.9998 16C8.23984 16 5.99984 13.76 5.99984 11C5.99984 8.24 8.23984 6 10.9998 6ZM10.9998 1L13.3898 4.42C12.6498 4.15 11.8398 4 10.9998 4C10.1598 4 9.34984 4.15 8.60984 4.42L10.9998 1ZM2.33984 6L6.49984 5.65C5.87919 6.17424 5.35175 6.79974 4.93984 7.5C4.49984 8.24 4.24984 9 4.10984 9.79L2.33984 6ZM2.35984 16L4.11984 12.23C4.41372 13.8425 5.25423 15.3046 6.49984 16.37L2.35984 16ZM19.6498 6L17.8798 9.79C17.5969 8.17067 16.7546 6.702 15.4998 5.64L19.6498 6ZM22.9998 13H20.9998C20.9998 15.05 20.2198 17.1 18.6598 18.66C17.9177 19.4045 17.0354 19.9945 16.0639 20.3962C15.0924 20.7978 14.0511 21.003 12.9998 21V23C15.5598 23 18.1198 22 20.0698 20.07C22.0198 18.14 22.9998 15.56 22.9998 13ZM18.9998 13H16.9998C16.9998 14 16.6098 15.05 15.8298 15.83C15.0498 16.61 13.9998 17 12.9998 17V19C13.7881 19.0013 14.569 18.847 15.2975 18.546C16.026 18.2449 16.688 17.803 17.2454 17.2456C17.8028 16.6882 18.2447 16.0262 18.5458 15.2977C18.8469 14.5691 19.0012 13.7883 18.9998 13Z" fill="#56A0ED"/>
</svg>
