<svg width="16" height="16" viewBox="0 0 16 16" fill="none" xmlns="http://www.w3.org/2000/svg">
<g clip-path="url(#clip0_428_14862)">
<path d="M7.66634 12.5813C8.06034 11.006 10.813 11.006 11.207 12.5813C11.219 10.994 14.169 11.006 14.159 12.5813C14.333 8.71467 11.5223 5.5 7.66634 5.5C3.81034 5.5 0.999672 8.71467 1.17367 12.5813C1.16367 11.006 4.11367 10.994 4.12567 12.5813C4.51967 11.006 7.27234 11.006 7.66634 12.5813Z" stroke="black" stroke-width="1.5" stroke-linejoin="round"/>
<path d="M7.66468 5.5V4.5M7.66602 15.5L7.66468 12.5813M14.666 0.5L13.166 2.5M11.666 0.5L10.166 2.5M8.66602 0.5L7.16602 2.5M2.66602 0.5L1.16602 2.5M5.66602 0.5L4.16602 2.5" stroke="black" stroke-width="1.5" stroke-linecap="round" stroke-linejoin="round"/>
</g>
<defs>
<clipPath id="clip0_428_14862">
<rect width="16" height="16" fill="white"/>
</clipPath>
</defs>
</svg>
